<svg xmlns="http://www.w3.org/2000/svg" xmlns:xlink="http://www.w3.org/1999/xlink" width="1080" zoomAndPan="magnify" viewBox="0 0 810 809.999993" height="1080" preserveAspectRatio="xMidYMid meet" version="1.0"><path fill="#ebeefd" d="M 74.949219 415.152344 C 134.375 355.117188 27.796875 241.804688 48.707031 158.984375 C 80.574219 32.761719 402.996094 -30.347656 607.585938 82.582031 C 607.597656 82.589844 607.605469 82.59375 607.617188 82.601562 C 689.40625 127.753906 754.351562 209.230469 782.046875 297.566406 C 795.628906 340.921875 800.132812 387.832031 789.019531 432.238281 C 779.726562 469.390625 758.082031 500.058594 731.765625 527.425781 C 707.003906 553.1875 672.050781 577.089844 666.296875 614.800781 C 663.40625 633.722656 669.0625 652.738281 672.808594 671.511719 C 702.789062 821.644531 426.476562 805.003906 338.292969 791.578125 C 301.652344 786 115.957031 753.554688 47.65625 618.761719 C 42.371094 608.328125 -7.632812 507.589844 39.421875 451.546875 C 55.738281 432.113281 59.105469 431.152344 74.949219 415.152344 " fill-opacity="1" fill-rule="nonzero"/><path fill="#718bee" d="M 275.3125 608.03125 L 68.128906 608.03125 C 60.882812 608.03125 55.007812 602.160156 55.007812 594.917969 C 55.007812 587.671875 60.882812 581.796875 68.128906 581.796875 L 275.3125 581.796875 C 282.558594 581.796875 288.433594 587.671875 288.433594 594.917969 C 288.433594 602.160156 282.558594 608.03125 275.3125 608.03125 " fill-opacity="1" fill-rule="nonzero"/><path fill="#718bee" d="M 719.464844 369.019531 L 512.28125 369.019531 C 505.035156 369.019531 499.160156 363.148438 499.160156 355.902344 C 499.160156 348.65625 505.035156 342.785156 512.28125 342.785156 L 719.464844 342.785156 C 726.710938 342.785156 732.589844 348.65625 732.589844 355.902344 C 732.589844 363.148438 726.710938 369.019531 719.464844 369.019531 " fill-opacity="1" fill-rule="nonzero"/><path fill="#718bee" d="M 760.695312 433.683594 L 553.511719 433.683594 C 546.269531 433.683594 540.390625 427.8125 540.390625 420.566406 C 540.390625 413.320312 546.269531 407.449219 553.511719 407.449219 L 760.695312 407.449219 C 767.945312 407.449219 773.820312 413.320312 773.820312 420.566406 C 773.820312 427.8125 767.945312 433.683594 760.695312 433.683594 " fill-opacity="1" fill-rule="nonzero"/><path fill="#718bee" d="M 315.613281 554.613281 L 108.429688 554.613281 C 101.183594 554.613281 95.308594 548.738281 95.308594 541.496094 C 95.308594 534.253906 101.183594 528.375 108.429688 528.375 L 315.613281 528.375 C 322.863281 528.375 328.734375 534.253906 328.734375 541.496094 C 328.734375 548.738281 322.863281 554.613281 315.613281 554.613281 " fill-opacity="1" fill-rule="nonzero"/><path fill="#718bee" d="M 128.777344 469.554688 C 118.957031 469.878906 110.730469 462.183594 110.40625 452.355469 C 110.085938 442.53125 117.78125 434.300781 127.601562 433.972656 C 137.425781 433.644531 145.648438 441.347656 145.972656 451.171875 C 146.296875 460.996094 138.597656 469.226562 128.777344 469.554688 Z M 164.039062 454.03125 L 163.8125 447.117188 L 156.398438 445.703125 C 156.058594 444.109375 155.59375 442.566406 155.003906 441.089844 L 160.375 435.789062 L 156.722656 429.921875 L 149.589844 432.40625 C 148.515625 431.214844 147.339844 430.113281 146.078125 429.117188 L 148.085938 421.835938 L 141.988281 418.578125 L 137.058594 424.289062 C 135.546875 423.800781 133.976562 423.441406 132.367188 423.203125 L 130.464844 415.894531 L 123.554688 416.128906 L 122.140625 423.546875 C 120.550781 423.886719 119.007812 424.351562 117.53125 424.941406 L 112.234375 419.570312 L 106.367188 423.222656 L 108.847656 430.359375 C 107.65625 431.4375 106.558594 432.609375 105.5625 433.875 L 98.28125 431.871094 L 95.023438 437.972656 L 100.730469 442.898438 C 100.242188 444.414062 99.878906 445.984375 99.644531 447.59375 L 92.339844 449.5 L 92.570312 456.410156 L 99.984375 457.824219 C 100.324219 459.417969 100.785156 460.960938 101.375 462.4375 L 96.007812 467.738281 L 99.65625 473.601562 L 106.789062 471.121094 C 107.867188 472.3125 109.042969 473.414062 110.300781 474.410156 L 108.296875 481.691406 L 114.390625 484.949219 L 119.320312 479.238281 C 120.835938 479.730469 122.40625 480.089844 124.011719 480.320312 L 125.917969 487.628906 L 132.824219 487.402344 L 134.242188 479.980469 C 135.832031 479.640625 137.371094 479.175781 138.851562 478.585938 L 144.148438 483.957031 L 150.015625 480.300781 L 147.53125 473.167969 C 148.722656 472.085938 149.824219 470.914062 150.820312 469.652344 L 158.101562 471.65625 L 161.355469 465.554688 L 155.652344 460.628906 C 156.140625 459.113281 156.5 457.542969 156.734375 455.9375 L 164.039062 454.03125 " fill-opacity="1" fill-rule="nonzero"/><path fill="#2a47b8" d="M 212.273438 367.078125 C 198.65625 368.691406 186.308594 358.964844 184.695312 345.347656 C 183.085938 331.734375 192.816406 319.390625 206.433594 317.78125 C 220.050781 316.164062 232.398438 325.898438 234.007812 339.511719 C 235.621094 353.125 225.890625 365.46875 212.273438 367.078125 Z M 259.46875 341.355469 L 258.335938 331.777344 L 247.855469 330.683594 C 247.199219 328.515625 246.371094 326.425781 245.378906 324.4375 L 252.214844 316.445312 L 246.445312 308.71875 L 236.820312 313.011719 C 235.183594 311.480469 233.417969 310.089844 231.550781 308.855469 L 233.476562 298.5 L 224.613281 294.695312 L 218.4375 303.207031 C 216.273438 302.707031 214.050781 302.390625 211.785156 302.253906 L 208.273438 292.328125 L 198.695312 293.457031 L 197.601562 303.933594 C 195.433594 304.59375 193.34375 305.421875 191.359375 306.414062 L 183.363281 299.578125 L 175.632812 305.347656 L 179.925781 314.96875 C 178.398438 316.609375 177.007812 318.371094 175.773438 320.238281 L 165.414062 318.308594 L 161.605469 327.171875 L 170.121094 333.347656 C 169.621094 335.511719 169.304688 337.730469 169.171875 340 L 159.238281 343.507812 L 160.371094 353.085938 L 170.847656 354.175781 C 171.507812 356.34375 172.335938 358.433594 173.332031 360.421875 L 166.492188 368.414062 L 172.261719 376.140625 L 181.886719 371.851562 C 183.523438 373.378906 185.289062 374.765625 187.15625 376.003906 L 185.230469 386.363281 L 194.089844 390.167969 L 200.269531 381.652344 C 202.433594 382.152344 204.65625 382.46875 206.921875 382.605469 L 210.429688 392.535156 L 220.007812 391.398438 L 221.101562 380.929688 C 223.273438 380.265625 225.363281 379.441406 227.347656 378.445312 L 235.34375 385.28125 L 243.070312 379.511719 L 238.777344 369.894531 C 240.308594 368.253906 241.695312 366.492188 242.933594 364.621094 L 253.292969 366.550781 L 257.101562 357.6875 L 248.582031 351.511719 C 249.085938 349.347656 249.402344 347.128906 249.535156 344.863281 L 259.46875 341.355469 " fill-opacity="1" fill-rule="nonzero"/><path fill="#ffffff" d="M 205.644531 316.074219 C 204.726562 316.074219 203.804688 316.128906 202.871094 316.238281 C 190.046875 317.753906 180.847656 329.425781 182.367188 342.246094 C 183.886719 355.070312 195.550781 364.261719 208.378906 362.75 C 221.207031 361.230469 230.40625 349.5625 228.886719 336.742188 C 227.476562 324.847656 217.335938 316.074219 205.644531 316.074219 Z M 205.605469 365.722656 C 192.507812 365.722656 181.152344 355.898438 179.574219 342.578125 C 177.875 328.214844 188.175781 315.144531 202.542969 313.445312 C 216.902344 311.746094 229.980469 322.046875 231.679688 336.410156 C 233.378906 350.769531 223.078125 363.839844 208.710938 365.542969 C 207.667969 365.664062 206.632812 365.722656 205.605469 365.722656 Z M 196.542969 377.308594 C 196.648438 377.308594 196.753906 377.324219 196.859375 377.347656 C 198.929688 377.828125 201.089844 378.136719 203.277344 378.261719 C 203.84375 378.296875 204.332031 378.664062 204.519531 379.199219 L 207.65625 388.070312 L 215 387.199219 L 215.980469 377.84375 C 216.035156 377.28125 216.425781 376.808594 216.96875 376.644531 C 219.066406 376.003906 221.09375 375.199219 222.992188 374.25 C 223.496094 373.996094 224.105469 374.074219 224.535156 374.441406 L 231.675781 380.546875 L 237.605469 376.125 L 233.769531 367.527344 C 233.539062 367.011719 233.640625 366.410156 234.023438 365.996094 C 235.496094 364.417969 236.84375 362.707031 238.035156 360.914062 C 238.347656 360.4375 238.910156 360.199219 239.464844 360.308594 L 248.71875 362.027344 L 251.636719 355.230469 L 244.03125 349.710938 C 243.574219 349.378906 243.359375 348.808594 243.488281 348.257812 C 243.96875 346.1875 244.277344 344.027344 244.40625 341.839844 C 244.441406 341.277344 244.808594 340.785156 245.339844 340.597656 L 254.214844 337.464844 L 253.34375 330.121094 L 243.984375 329.144531 C 243.421875 329.085938 242.949219 328.695312 242.785156 328.152344 C 242.148438 326.0625 241.34375 324.03125 240.390625 322.132812 C 240.140625 321.625 240.214844 321.015625 240.582031 320.589844 L 246.691406 313.445312 L 242.261719 307.519531 L 233.667969 311.359375 C 233.152344 311.585938 232.546875 311.484375 232.136719 311.101562 C 230.558594 309.628906 228.847656 308.28125 227.046875 307.09375 C 226.578125 306.777344 226.335938 306.214844 226.441406 305.660156 L 228.164062 296.410156 L 221.367188 293.492188 L 215.847656 301.09375 C 215.515625 301.550781 214.945312 301.769531 214.394531 301.640625 C 212.320312 301.15625 210.160156 300.847656 207.976562 300.722656 C 207.410156 300.6875 206.921875 300.320312 206.734375 299.785156 L 203.597656 290.914062 L 196.253906 291.789062 L 195.273438 301.144531 C 195.214844 301.703125 194.824219 302.179688 194.285156 302.34375 C 192.1875 302.980469 190.160156 303.785156 188.261719 304.734375 C 187.753906 304.988281 187.148438 304.910156 186.71875 304.542969 L 179.578125 298.4375 L 173.648438 302.863281 L 177.484375 311.460938 C 177.714844 311.972656 177.613281 312.578125 177.230469 312.988281 C 175.757812 314.566406 174.40625 316.277344 173.21875 318.078125 C 172.90625 318.546875 172.34375 318.785156 171.789062 318.683594 L 162.535156 316.964844 L 159.617188 323.757812 L 167.222656 329.273438 C 167.679688 329.605469 167.894531 330.179688 167.765625 330.730469 C 167.285156 332.796875 166.976562 334.957031 166.847656 337.140625 C 166.8125 337.710938 166.445312 338.199219 165.914062 338.386719 L 157.039062 341.523438 L 157.910156 348.863281 L 167.269531 349.84375 C 167.832031 349.902344 168.304688 350.292969 168.46875 350.832031 C 169.105469 352.933594 169.910156 354.957031 170.859375 356.859375 C 171.113281 357.363281 171.039062 357.96875 170.671875 358.402344 L 164.5625 365.539062 L 168.992188 371.464844 L 177.585938 367.628906 C 178.101562 367.402344 178.703125 367.5 179.117188 367.882812 C 180.695312 369.355469 182.40625 370.707031 184.207031 371.898438 C 184.675781 372.207031 184.914062 372.769531 184.8125 373.324219 L 183.089844 382.574219 L 189.886719 385.492188 L 195.40625 377.890625 C 195.671875 377.519531 196.097656 377.308594 196.542969 377.308594 Z M 206.703125 391.003906 C 206.113281 391.003906 205.578125 390.632812 205.378906 390.066406 L 202.175781 381.003906 C 200.46875 380.867188 198.78125 380.625 197.140625 380.28125 L 191.503906 388.054688 C 191.117188 388.585938 190.414062 388.78125 189.808594 388.523438 L 180.949219 384.714844 C 180.34375 384.457031 180 383.8125 180.121094 383.167969 L 181.878906 373.714844 C 180.488281 372.746094 179.152344 371.695312 177.890625 370.570312 L 169.109375 374.488281 C 168.511719 374.757812 167.800781 374.574219 167.410156 374.046875 L 161.640625 366.320312 C 161.246094 365.792969 161.269531 365.0625 161.695312 364.5625 L 167.9375 357.269531 C 167.222656 355.753906 166.59375 354.167969 166.0625 352.542969 L 156.5 351.546875 C 155.847656 351.476562 155.328125 350.964844 155.25 350.3125 L 154.113281 340.734375 C 154.039062 340.082031 154.425781 339.464844 155.042969 339.242188 L 164.105469 336.042969 C 164.246094 334.335938 164.488281 332.648438 164.828125 331.011719 L 157.054688 325.371094 C 156.523438 324.984375 156.328125 324.28125 156.585938 323.679688 L 160.394531 314.820312 C 160.65625 314.21875 161.292969 313.875 161.945312 313.992188 L 171.398438 315.75 C 172.363281 314.363281 173.417969 313.027344 174.542969 311.765625 L 170.625 302.984375 C 170.355469 302.382812 170.539062 301.675781 171.066406 301.285156 L 178.796875 295.515625 C 179.320312 295.121094 180.046875 295.144531 180.550781 295.570312 L 187.847656 301.808594 C 189.363281 301.09375 190.949219 300.46875 192.574219 299.933594 L 193.574219 290.378906 C 193.640625 289.726562 194.152344 289.203125 194.804688 289.128906 L 204.382812 287.992188 C 205.03125 287.917969 205.65625 288.300781 205.875 288.917969 L 209.078125 297.980469 C 210.78125 298.121094 212.46875 298.363281 214.113281 298.699219 L 219.75 290.929688 C 220.136719 290.398438 220.839844 290.203125 221.445312 290.460938 L 230.304688 294.269531 C 230.910156 294.527344 231.253906 295.171875 231.132812 295.820312 L 229.375 305.269531 C 230.761719 306.238281 232.097656 307.289062 233.363281 308.414062 L 242.144531 304.496094 C 242.746094 304.230469 243.449219 304.410156 243.84375 304.941406 L 249.613281 312.667969 C 250.007812 313.191406 249.984375 313.921875 249.554688 314.421875 L 243.316406 321.714844 C 244.03125 323.238281 244.660156 324.816406 245.191406 326.441406 L 254.753906 327.441406 C 255.40625 327.511719 255.925781 328.023438 256.003906 328.675781 L 257.136719 338.25 C 257.214844 338.902344 256.832031 339.519531 256.210938 339.742188 L 247.148438 342.941406 C 247.007812 344.648438 246.769531 346.335938 246.425781 347.980469 L 254.199219 353.613281 C 254.730469 354 254.921875 354.703125 254.664062 355.308594 L 250.859375 364.164062 C 250.597656 364.769531 249.957031 365.113281 249.308594 364.996094 L 239.855469 363.238281 C 238.890625 364.628906 237.835938 365.960938 236.710938 367.222656 L 240.628906 376.003906 C 240.898438 376.601562 240.714844 377.308594 240.1875 377.703125 L 232.460938 383.472656 C 231.933594 383.867188 231.203125 383.84375 230.703125 383.414062 L 223.40625 377.171875 C 221.890625 377.890625 220.308594 378.515625 218.679688 379.050781 L 217.679688 388.609375 C 217.613281 389.265625 217.101562 389.78125 216.449219 389.863281 L 206.871094 390.992188 C 206.816406 391 206.757812 391.003906 206.703125 391.003906 " fill-opacity="1" fill-rule="nonzero"/><path fill="#2a47b8" d="M 166.34375 242.082031 C 144.078125 249.484375 120.023438 237.4375 112.621094 215.179688 C 105.214844 192.917969 117.261719 168.867188 139.527344 161.464844 C 161.792969 154.0625 185.84375 166.101562 193.25 188.367188 C 200.65625 210.625 188.609375 234.671875 166.34375 242.082031 Z M 236.554688 182.660156 L 231.34375 167.003906 L 213.40625 168.785156 C 211.550781 165.378906 209.441406 162.164062 207.09375 159.179688 L 215.792969 143.417969 L 203.453125 132.464844 L 188.804688 142.980469 C 185.53125 140.984375 182.097656 139.265625 178.539062 137.839844 L 178.1875 119.8125 L 162.023438 116.496094 L 154.609375 132.902344 C 150.8125 132.804688 146.972656 133.042969 143.132812 133.601562 L 133.820312 118.171875 L 118.15625 123.375 L 119.941406 141.3125 C 116.535156 143.164062 113.320312 145.277344 110.332031 147.621094 L 94.570312 138.929688 L 83.613281 151.265625 L 94.128906 165.90625 C 92.132812 169.179688 90.414062 172.613281 88.988281 176.171875 L 70.960938 176.523438 L 67.640625 192.6875 L 84.046875 200.097656 C 83.957031 203.898438 84.191406 207.730469 84.75 211.574219 L 69.316406 220.886719 L 74.523438 236.539062 L 92.460938 234.753906 C 94.316406 238.167969 96.425781 241.378906 98.773438 244.363281 L 90.078125 260.121094 L 102.417969 271.078125 L 117.0625 260.5625 C 120.335938 262.558594 123.769531 264.277344 127.328125 265.707031 L 127.679688 283.726562 L 143.847656 287.050781 L 151.257812 270.644531 C 155.058594 270.734375 158.894531 270.503906 162.734375 269.945312 L 172.050781 285.375 L 187.710938 280.167969 L 185.925781 262.234375 C 189.335938 260.378906 192.546875 258.269531 195.535156 255.917969 L 211.296875 264.617188 L 222.257812 252.277344 L 211.738281 237.640625 C 213.734375 234.363281 215.453125 230.929688 216.882812 227.371094 L 234.90625 227.019531 L 238.226562 210.859375 L 221.820312 203.445312 C 221.914062 199.648438 221.675781 195.808594 221.121094 191.972656 L 236.554688 182.660156 " fill-opacity="1" fill-rule="nonzero"/><path fill="#ffffff" d="M 162.042969 239.703125 L 162.050781 239.703125 Z M 148.671875 158.304688 C 144.308594 158.304688 139.929688 159.003906 135.667969 160.417969 C 125.253906 163.882812 116.816406 171.195312 111.902344 181.003906 C 106.988281 190.8125 106.1875 201.949219 109.652344 212.355469 C 116.800781 233.84375 140.105469 245.515625 161.597656 238.367188 C 172.007812 234.902344 180.449219 227.59375 185.363281 217.785156 C 190.277344 207.976562 191.074219 196.839844 187.613281 186.429688 C 184.152344 176.023438 176.839844 167.582031 167.027344 162.667969 C 161.230469 159.769531 154.96875 158.304688 148.671875 158.304688 Z M 148.667969 243.28125 C 130.273438 243.28125 113.097656 231.625 106.984375 213.246094 C 103.285156 202.121094 104.136719 190.21875 109.386719 179.742188 C 114.636719 169.261719 123.652344 161.453125 134.777344 157.753906 C 145.90625 154.054688 157.804688 154.902344 168.289062 160.15625 C 178.769531 165.40625 186.582031 174.417969 190.28125 185.546875 C 197.921875 208.503906 185.449219 233.398438 162.484375 241.035156 C 157.90625 242.554688 153.246094 243.28125 148.667969 243.28125 Z M 124.761719 280.199219 L 138.726562 283.066406 L 145.675781 267.6875 C 145.910156 267.171875 146.425781 266.828125 146.992188 266.863281 C 150.683594 266.949219 154.464844 266.71875 158.234375 266.175781 C 158.792969 266.09375 159.347656 266.359375 159.636719 266.84375 L 168.371094 281.308594 L 181.898438 276.808594 L 180.222656 259.996094 C 180.167969 259.429688 180.453125 258.890625 180.949219 258.621094 C 184.292969 256.800781 187.460938 254.722656 190.367188 252.441406 C 190.808594 252.089844 191.417969 252.039062 191.914062 252.3125 L 206.691406 260.464844 L 216.15625 249.808594 L 206.296875 236.078125 C 205.964844 235.621094 205.941406 235.011719 206.234375 234.527344 C 208.183594 231.332031 209.878906 227.949219 211.273438 224.46875 C 211.484375 223.945312 211.988281 223.597656 212.550781 223.589844 L 229.457031 223.257812 L 232.324219 209.300781 L 216.941406 202.351562 C 216.425781 202.113281 216.101562 201.597656 216.113281 201.03125 C 216.203125 197.34375 215.972656 193.5625 215.425781 189.792969 C 215.347656 189.234375 215.605469 188.679688 216.089844 188.390625 L 230.5625 179.660156 L 226.0625 166.132812 L 209.246094 167.8125 C 208.683594 167.863281 208.140625 167.578125 207.871094 167.085938 C 206.050781 163.738281 203.972656 160.570312 201.6875 157.671875 C 201.339844 157.222656 201.289062 156.613281 201.5625 156.121094 L 209.71875 141.347656 L 199.054688 131.886719 L 185.324219 141.742188 C 184.867188 142.074219 184.257812 142.09375 183.773438 141.800781 C 180.574219 139.851562 177.191406 138.15625 173.710938 136.761719 C 173.1875 136.554688 172.839844 136.050781 172.832031 135.484375 L 172.503906 118.585938 L 158.539062 115.722656 L 151.585938 131.101562 C 151.355469 131.617188 150.816406 131.933594 150.273438 131.925781 C 146.574219 131.835938 142.792969 132.066406 139.03125 132.613281 C 138.472656 132.699219 137.917969 132.433594 137.625 131.949219 L 128.894531 117.484375 L 115.367188 121.980469 L 117.039062 138.792969 C 117.097656 139.359375 116.808594 139.898438 116.3125 140.167969 C 112.972656 141.980469 109.804688 144.0625 106.898438 146.347656 C 106.457031 146.699219 105.847656 146.75 105.351562 146.476562 L 90.574219 138.320312 L 81.109375 148.980469 L 90.96875 162.710938 C 91.300781 163.167969 91.324219 163.777344 91.027344 164.261719 C 89.078125 167.460938 87.382812 170.84375 85.988281 174.320312 C 85.78125 174.839844 85.277344 175.1875 84.710938 175.199219 L 67.808594 175.527344 L 64.941406 189.488281 L 80.324219 196.4375 C 80.839844 196.671875 81.164062 197.191406 81.152344 197.757812 C 81.0625 201.449219 81.292969 205.230469 81.835938 208.992188 C 81.917969 209.550781 81.65625 210.105469 81.175781 210.398438 L 66.703125 219.125 L 71.203125 232.652344 L 88.019531 230.980469 C 88.582031 230.921875 89.125 231.210938 89.394531 231.703125 C 91.214844 235.050781 93.292969 238.214844 95.578125 241.113281 C 95.925781 241.5625 95.976562 242.167969 95.703125 242.667969 L 87.546875 257.441406 L 98.207031 266.902344 L 111.941406 257.042969 C 112.398438 256.71875 113.007812 256.691406 113.492188 256.988281 C 116.691406 258.9375 120.074219 260.628906 123.550781 262.023438 C 124.074219 262.230469 124.421875 262.738281 124.433594 263.300781 Z M 139.546875 286.078125 C 139.453125 286.078125 139.355469 286.066406 139.261719 286.046875 L 123.09375 282.730469 C 122.449219 282.597656 121.984375 282.039062 121.972656 281.382812 L 121.640625 264.277344 C 118.609375 263.015625 115.652344 261.535156 112.828125 259.867188 L 98.9375 269.84375 C 98.402344 270.230469 97.671875 270.191406 97.179688 269.75 L 84.839844 258.796875 C 84.347656 258.363281 84.222656 257.644531 84.542969 257.070312 L 92.792969 242.117188 C 90.824219 239.539062 89.003906 236.769531 87.378906 233.867188 L 70.363281 235.558594 C 69.707031 235.621094 69.09375 235.230469 68.886719 234.609375 L 63.679688 218.949219 C 63.472656 218.324219 63.726562 217.640625 64.289062 217.300781 L 78.925781 208.46875 C 78.492188 205.171875 78.289062 201.867188 78.324219 198.621094 L 62.761719 191.589844 C 62.160156 191.320312 61.828125 190.667969 61.960938 190.023438 L 65.28125 173.859375 C 65.414062 173.21875 65.972656 172.75 66.632812 172.742188 L 83.734375 172.40625 C 84.996094 169.378906 86.476562 166.421875 88.148438 163.597656 L 78.167969 149.703125 C 77.785156 149.171875 77.824219 148.445312 78.257812 147.957031 L 89.21875 135.613281 C 89.652344 135.125 90.371094 135.003906 90.945312 135.320312 L 105.902344 143.5625 C 108.484375 141.597656 111.25 139.773438 114.152344 138.152344 L 112.457031 121.140625 C 112.390625 120.484375 112.789062 119.875 113.414062 119.664062 L 129.074219 114.453125 C 129.695312 114.25 130.382812 114.5 130.722656 115.066406 L 139.554688 129.703125 C 142.851562 129.269531 146.160156 129.066406 149.40625 129.101562 L 156.4375 113.539062 C 156.710938 112.9375 157.363281 112.609375 158.003906 112.742188 L 174.167969 116.058594 C 174.816406 116.191406 175.28125 116.75 175.292969 117.410156 L 175.625 134.507812 C 178.65625 135.769531 181.613281 137.25 184.433594 138.921875 L 198.328125 128.941406 C 198.867188 128.558594 199.59375 128.597656 200.082031 129.035156 L 212.425781 139.988281 C 212.917969 140.425781 213.039062 141.144531 212.722656 141.71875 L 204.46875 156.667969 C 206.441406 159.25 208.261719 162.019531 209.886719 164.921875 L 226.902344 163.226562 C 227.550781 163.167969 228.171875 163.558594 228.375 164.179688 L 233.585938 179.835938 C 233.792969 180.464844 233.539062 181.144531 232.976562 181.484375 L 218.335938 190.316406 C 218.773438 193.613281 218.972656 196.921875 218.941406 200.167969 L 234.503906 207.199219 C 235.101562 207.46875 235.4375 208.117188 235.304688 208.765625 L 231.984375 224.925781 C 231.851562 225.570312 231.289062 226.035156 230.632812 226.050781 L 213.53125 226.382812 C 212.269531 229.410156 210.785156 232.371094 209.117188 235.1875 L 219.097656 249.082031 C 219.480469 249.617188 219.441406 250.34375 219.007812 250.835938 L 208.046875 263.171875 C 207.609375 263.660156 206.894531 263.789062 206.316406 263.46875 L 191.363281 255.222656 C 188.785156 257.191406 186.015625 259.011719 183.113281 260.636719 L 184.808594 277.648438 C 184.871094 278.300781 184.476562 278.914062 183.851562 279.121094 L 168.191406 284.332031 C 167.566406 284.535156 166.882812 284.285156 166.542969 283.722656 L 157.710938 269.085938 C 154.410156 269.519531 151.109375 269.722656 147.855469 269.691406 L 140.828125 285.246094 C 140.59375 285.761719 140.089844 286.078125 139.546875 286.078125 " fill-opacity="1" fill-rule="nonzero"/><path fill="#ffffff" d="M 77.378906 125.992188 C 76.957031 125.992188 76.539062 125.800781 76.261719 125.433594 C 75.789062 124.820312 75.910156 123.9375 76.527344 123.46875 C 78.019531 122.335938 79.5625 121.210938 81.125 120.125 C 81.761719 119.6875 82.636719 119.847656 83.082031 120.484375 C 83.523438 121.125 83.363281 121.996094 82.726562 122.441406 C 81.199219 123.496094 79.6875 124.59375 78.230469 125.703125 C 77.976562 125.894531 77.675781 125.992188 77.378906 125.992188 " fill-opacity="1" fill-rule="nonzero"/><path fill="#ffffff" d="M 151.164062 98.578125 C 150.425781 98.578125 149.808594 98.003906 149.761719 97.253906 C 149.71875 96.480469 150.308594 95.816406 151.085938 95.769531 C 154.675781 95.558594 158.261719 95.503906 161.808594 95.613281 C 162.585938 95.640625 163.195312 96.289062 163.167969 97.070312 C 163.144531 97.839844 162.472656 98.460938 161.722656 98.429688 C 158.257812 98.316406 154.753906 98.367188 151.25 98.574219 C 151.222656 98.578125 151.195312 98.578125 151.164062 98.578125 Z M 182.753906 101.164062 C 182.648438 101.164062 182.539062 101.152344 182.429688 101.128906 C 179.085938 100.339844 175.628906 99.707031 172.148438 99.257812 C 171.378906 99.15625 170.835938 98.457031 170.933594 97.679688 C 171.035156 96.914062 171.742188 96.367188 172.507812 96.472656 C 176.085938 96.933594 179.640625 97.578125 183.078125 98.390625 C 183.832031 98.574219 184.300781 99.332031 184.121094 100.085938 C 183.96875 100.730469 183.390625 101.164062 182.753906 101.164062 Z M 130.199219 101.589844 C 129.558594 101.589844 128.976562 101.148438 128.828125 100.496094 C 128.65625 99.738281 129.132812 98.984375 129.890625 98.8125 C 133.390625 98.019531 136.933594 97.359375 140.421875 96.855469 C 141.1875 96.742188 141.902344 97.273438 142.011719 98.042969 C 142.125 98.8125 141.589844 99.527344 140.824219 99.636719 C 137.410156 100.132812 133.941406 100.773438 130.511719 101.554688 C 130.40625 101.574219 130.300781 101.589844 130.199219 101.589844 Z M 109.957031 107.832031 C 109.398438 107.832031 108.867188 107.496094 108.648438 106.945312 C 108.367188 106.21875 108.722656 105.402344 109.445312 105.121094 C 112.757812 103.816406 116.15625 102.628906 119.542969 101.582031 C 120.285156 101.351562 121.074219 101.769531 121.304688 102.507812 C 121.535156 103.253906 121.117188 104.035156 120.375 104.265625 C 117.050781 105.292969 113.71875 106.460938 110.472656 107.738281 C 110.304688 107.800781 110.128906 107.832031 109.957031 107.832031 Z M 202.667969 108.289062 C 202.457031 108.289062 202.25 108.242188 202.046875 108.144531 C 198.953125 106.621094 195.722656 105.257812 192.4375 104.085938 C 191.710938 103.824219 191.328125 103.019531 191.589844 102.292969 C 191.847656 101.558594 192.65625 101.175781 193.386719 101.441406 C 196.765625 102.644531 200.097656 104.050781 203.289062 105.625 C 203.988281 105.96875 204.273438 106.808594 203.929688 107.503906 C 203.683594 108.003906 203.1875 108.289062 202.667969 108.289062 Z M 90.878906 117.023438 C 90.390625 117.023438 89.921875 116.773438 89.660156 116.320312 C 89.269531 115.652344 89.5 114.789062 90.171875 114.398438 C 93.230469 112.628906 96.410156 110.945312 99.632812 109.398438 C 100.335938 109.0625 101.175781 109.351562 101.511719 110.054688 C 101.847656 110.753906 101.554688 111.597656 100.855469 111.929688 C 97.695312 113.449219 94.578125 115.101562 91.582031 116.835938 C 91.359375 116.960938 91.117188 117.023438 90.878906 117.023438 Z M 220.433594 119.773438 C 220.121094 119.773438 219.804688 119.664062 219.539062 119.453125 C 216.851562 117.234375 214.019531 115.164062 211.125 113.289062 C 210.472656 112.867188 210.285156 111.996094 210.707031 111.347656 C 211.125 110.695312 211.996094 110.507812 212.648438 110.925781 C 215.636719 112.859375 218.558594 114.996094 221.328125 117.28125 C 221.929688 117.777344 222.015625 118.664062 221.519531 119.261719 C 221.242188 119.597656 220.839844 119.773438 220.433594 119.773438 " fill-opacity="1" fill-rule="nonzero"/><path fill="#ffffff" d="M 232.0625 131.136719 C 231.667969 131.136719 231.277344 130.96875 231 130.648438 C 229.78125 129.25 228.519531 127.875 227.25 126.566406 C 226.707031 126.007812 226.722656 125.121094 227.28125 124.578125 C 227.835938 124.035156 228.726562 124.050781 229.265625 124.609375 C 230.574219 125.953125 231.871094 127.367188 233.121094 128.808594 C 233.632812 129.394531 233.570312 130.28125 232.980469 130.789062 C 232.714844 131.019531 232.390625 131.136719 232.0625 131.136719 " fill-opacity="1" fill-rule="nonzero"/><path fill="#ffffff" d="M 133.339844 356.125 C 132.734375 356.125 132.175781 355.730469 131.992188 355.121094 C 131.003906 351.816406 130.503906 348.941406 130.503906 346.578125 C 130.503906 345.300781 130.65625 344.179688 130.949219 343.234375 C 131.183594 342.492188 131.96875 342.082031 132.714844 342.3125 C 133.453125 342.542969 133.867188 343.332031 133.636719 344.074219 C 133.425781 344.746094 133.316406 345.585938 133.316406 346.578125 C 133.316406 348.640625 133.792969 351.316406 134.6875 354.320312 C 134.910156 355.0625 134.484375 355.847656 133.742188 356.066406 C 133.605469 356.109375 133.472656 356.125 133.339844 356.125 Z M 143.003906 376.390625 C 142.539062 376.390625 142.082031 376.164062 141.816406 375.738281 C 139.722656 372.441406 137.847656 369.089844 136.238281 365.785156 C 135.894531 365.085938 136.1875 364.246094 136.886719 363.90625 C 137.582031 363.566406 138.425781 363.855469 138.765625 364.554688 C 140.328125 367.765625 142.152344 371.023438 144.191406 374.234375 C 144.605469 374.886719 144.410156 375.753906 143.757812 376.175781 C 143.523438 376.324219 143.261719 376.390625 143.003906 376.390625 Z M 156.964844 393.996094 C 156.601562 393.996094 156.238281 393.855469 155.964844 393.578125 C 153.34375 390.929688 150.804688 388.054688 148.414062 385.03125 C 147.933594 384.421875 148.035156 383.539062 148.644531 383.058594 C 149.253906 382.574219 150.136719 382.675781 150.621094 383.289062 C 152.949219 386.226562 155.417969 389.027344 157.964844 391.601562 C 158.511719 392.15625 158.507812 393.046875 157.953125 393.59375 C 157.679688 393.863281 157.320312 393.996094 156.964844 393.996094 Z M 174.640625 407.804688 C 174.40625 407.804688 174.164062 407.746094 173.945312 407.617188 C 170.738281 405.789062 167.550781 403.632812 164.464844 401.203125 C 163.855469 400.722656 163.75 399.835938 164.230469 399.226562 C 164.710938 398.621094 165.59375 398.515625 166.207031 398.992188 C 169.179688 401.335938 172.253906 403.417969 175.339844 405.179688 C 176.015625 405.566406 176.25 406.421875 175.863281 407.097656 C 175.605469 407.550781 175.128906 407.804688 174.640625 407.804688 Z M 195.734375 415.164062 C 195.671875 415.164062 195.609375 415.160156 195.546875 415.152344 C 191.8125 414.644531 188.050781 413.726562 184.367188 412.421875 C 183.632812 412.164062 183.253906 411.359375 183.511719 410.628906 C 183.769531 409.898438 184.574219 409.511719 185.304688 409.773438 C 188.808594 411.015625 192.378906 411.882812 195.921875 412.363281 C 196.691406 412.464844 197.230469 413.175781 197.125 413.941406 C 197.03125 414.652344 196.429688 415.164062 195.734375 415.164062 " fill-opacity="1" fill-rule="nonzero"/><path fill="#0a122e" d="M 709.203125 228.582031 C 708.425781 228.582031 707.792969 227.953125 707.792969 227.175781 L 707.792969 219.90625 C 707.792969 219.128906 708.425781 218.5 709.203125 218.5 C 709.972656 218.5 710.605469 219.128906 710.605469 219.90625 L 710.605469 227.175781 C 710.605469 227.953125 709.972656 228.582031 709.203125 228.582031 " fill-opacity="1" fill-rule="nonzero"/><path fill="#0a122e" d="M 709.203125 245.515625 C 708.425781 245.515625 707.792969 244.886719 707.792969 244.109375 L 707.792969 236.839844 C 707.792969 236.0625 708.425781 235.433594 709.203125 235.433594 C 709.972656 235.433594 710.605469 236.0625 710.605469 236.839844 L 710.605469 244.109375 C 710.605469 244.886719 709.972656 245.515625 709.203125 245.515625 " fill-opacity="1" fill-rule="nonzero"/><path fill="#0a122e" d="M 704.367188 233.414062 L 697.09375 233.414062 C 696.324219 233.414062 695.6875 232.78125 695.6875 232.007812 C 695.6875 231.230469 696.324219 230.605469 697.09375 230.605469 L 704.367188 230.605469 C 705.140625 230.605469 705.773438 231.230469 705.773438 232.007812 C 705.773438 232.78125 705.140625 233.414062 704.367188 233.414062 " fill-opacity="1" fill-rule="nonzero"/><path fill="#0a122e" d="M 721.300781 233.414062 L 714.03125 233.414062 C 713.253906 233.414062 712.628906 232.785156 712.628906 232.007812 C 712.628906 231.234375 713.253906 230.601562 714.03125 230.601562 L 721.300781 230.601562 C 722.078125 230.601562 722.707031 231.234375 722.707031 232.007812 C 722.707031 232.785156 722.078125 233.414062 721.300781 233.414062 " fill-opacity="1" fill-rule="nonzero"/><path fill="#0a122e" d="M 39.917969 512.546875 C 39.140625 512.546875 38.511719 511.917969 38.511719 511.144531 L 38.511719 503.871094 C 38.511719 503.09375 39.140625 502.46875 39.917969 502.46875 C 40.695312 502.46875 41.324219 503.09375 41.324219 503.871094 L 41.324219 511.144531 C 41.324219 511.917969 40.695312 512.546875 39.917969 512.546875 " fill-opacity="1" fill-rule="nonzero"/><path fill="#0a122e" d="M 39.917969 529.480469 C 39.140625 529.480469 38.511719 528.855469 38.511719 528.074219 L 38.511719 520.804688 C 38.511719 520.03125 39.140625 519.398438 39.917969 519.398438 C 40.695312 519.398438 41.324219 520.03125 41.324219 520.804688 L 41.324219 528.074219 C 41.324219 528.855469 40.695312 529.480469 39.917969 529.480469 " fill-opacity="1" fill-rule="nonzero"/><path fill="#0a122e" d="M 35.085938 517.378906 L 27.8125 517.378906 C 27.039062 517.378906 26.410156 516.75 26.410156 515.972656 C 26.410156 515.199219 27.039062 514.570312 27.8125 514.570312 L 35.085938 514.570312 C 35.863281 514.570312 36.492188 515.199219 36.492188 515.972656 C 36.492188 516.75 35.863281 517.378906 35.085938 517.378906 " fill-opacity="1" fill-rule="nonzero"/><path fill="#0a122e" d="M 52.023438 517.378906 L 44.75 517.378906 C 43.976562 517.378906 43.347656 516.75 43.347656 515.972656 C 43.347656 515.199219 43.976562 514.570312 44.75 514.570312 L 52.023438 514.570312 C 52.800781 514.570312 53.429688 515.199219 53.429688 515.972656 C 53.429688 516.75 52.800781 517.378906 52.023438 517.378906 " fill-opacity="1" fill-rule="nonzero"/><path fill="#0a122e" d="M 50.949219 469.460938 C 46.730469 471.355469 44.816406 476.402344 46.675781 480.71875 C 47.582031 482.820312 49.242188 484.433594 51.339844 485.25 C 53.398438 486.046875 55.636719 485.984375 57.648438 485.082031 C 61.867188 483.191406 63.785156 478.140625 61.925781 473.828125 C 61.015625 471.722656 59.359375 470.113281 57.257812 469.296875 C 55.203125 468.5 52.964844 468.558594 50.949219 469.460938 Z M 54.300781 488.621094 C 52.960938 488.621094 51.613281 488.371094 50.324219 487.867188 C 47.515625 486.777344 45.300781 484.636719 44.09375 481.832031 C 41.628906 476.117188 44.1875 469.414062 49.800781 466.898438 C 52.503906 465.683594 55.515625 465.605469 58.277344 466.679688 C 61.085938 467.765625 63.296875 469.914062 64.507812 472.714844 C 66.972656 478.429688 64.410156 485.128906 58.800781 487.648438 C 57.359375 488.292969 55.832031 488.621094 54.300781 488.621094 " fill-opacity="1" fill-rule="nonzero"/><path fill="#0a122e" d="M 728.664062 264.222656 C 724.355469 266.15625 722.390625 271.316406 724.296875 275.71875 C 725.222656 277.871094 726.917969 279.515625 729.0625 280.347656 C 731.160156 281.164062 733.449219 281.105469 735.507812 280.179688 C 739.816406 278.246094 741.773438 273.085938 739.875 268.683594 C 738.949219 266.53125 737.25 264.886719 735.105469 264.058594 C 733.007812 263.238281 730.722656 263.296875 728.664062 264.222656 Z M 732.089844 283.730469 C 730.722656 283.730469 729.355469 283.476562 728.042969 282.964844 C 725.191406 281.859375 722.945312 279.679688 721.714844 276.835938 C 719.207031 271.027344 721.808594 264.214844 727.507812 261.660156 C 730.257812 260.425781 733.320312 260.34375 736.125 261.4375 C 738.976562 262.542969 741.226562 264.722656 742.453125 267.566406 C 744.957031 273.378906 742.359375 280.1875 736.65625 282.742188 C 735.191406 283.402344 733.640625 283.730469 732.089844 283.730469 " fill-opacity="1" fill-rule="nonzero"/><path fill="#2a47b8" d="M 580.992188 766.253906 L 229.65625 766.253906 C 214.515625 766.253906 203.792969 754.019531 205.703125 738.933594 L 292.210938 55.65625 C 294.121094 40.566406 307.945312 28.332031 323.082031 28.332031 L 656.777344 24.433594 C 695.082031 24.433594 700.277344 40.566406 698.371094 55.65625 L 611.863281 738.933594 C 609.949219 754.019531 596.128906 766.253906 580.992188 766.253906 " fill-opacity="1" fill-rule="nonzero"/><path fill="#ffffff" d="M 559.847656 766.253906 L 208.515625 766.253906 C 193.375 766.253906 182.652344 753.980469 184.5625 738.84375 L 271.070312 53.390625 C 272.980469 38.253906 286.804688 25.980469 301.941406 25.980469 L 653.273438 25.980469 C 668.414062 25.980469 679.136719 38.253906 677.226562 53.390625 L 590.71875 738.84375 C 588.808594 753.980469 574.988281 766.253906 559.847656 766.253906 " fill-opacity="1" fill-rule="nonzero"/><path fill="#718bee" d="M 204.582031 739.789062 L 287.183594 85.296875 C 287.625 81.800781 290.816406 78.96875 294.3125 78.96875 L 647.53125 78.96875 C 651.027344 78.96875 653.5 81.800781 653.058594 85.296875 L 570.460938 739.789062 C 570.019531 743.285156 566.828125 746.117188 563.332031 746.117188 L 210.113281 746.117188 C 206.617188 746.117188 204.140625 743.285156 204.582031 739.789062 " fill-opacity="1" fill-rule="nonzero"/><path fill="#ebeefd" d="M 473.207031 60.84375 C 467.535156 60.84375 463.519531 56.25 464.234375 50.574219 C 464.949219 44.90625 470.125 40.308594 475.800781 40.308594 C 481.472656 40.308594 485.488281 44.90625 484.773438 50.574219 C 484.058594 56.25 478.882812 60.84375 473.207031 60.84375 " fill-opacity="1" fill-rule="nonzero"/><path fill="#0a122e" d="M 506.09375 767.660156 L 208.515625 767.660156 C 200.824219 767.660156 193.949219 764.664062 189.15625 759.234375 C 184.316406 753.738281 182.1875 746.4375 183.167969 738.667969 L 198.566406 616.636719 C 198.664062 615.871094 199.363281 615.328125 200.136719 615.425781 C 200.90625 615.519531 201.453125 616.222656 201.355469 616.996094 L 185.957031 739.023438 C 185.078125 745.980469 186.964844 752.492188 191.265625 757.375 C 195.519531 762.195312 201.644531 764.847656 208.515625 764.847656 L 506.09375 764.847656 C 506.871094 764.847656 507.5 765.476562 507.5 766.253906 C 507.5 767.027344 506.871094 767.660156 506.09375 767.660156 " fill-opacity="1" fill-rule="nonzero"/><path fill="#0a122e" d="M 199.296875 621.492188 C 199.238281 621.492188 199.175781 621.492188 199.117188 621.484375 C 198.347656 621.390625 197.800781 620.683594 197.898438 619.914062 L 269.671875 53.21875 C 271.667969 37.425781 286.140625 24.578125 301.941406 24.578125 L 653.273438 24.578125 C 660.960938 24.578125 667.835938 27.574219 672.628906 33.003906 C 677.476562 38.496094 679.601562 45.800781 678.617188 53.566406 L 642.457031 345.078125 C 642.359375 345.847656 641.65625 346.394531 640.890625 346.292969 C 640.117188 346.203125 639.574219 345.5 639.664062 344.726562 L 675.832031 53.21875 C 676.707031 46.261719 674.820312 39.746094 670.519531 34.867188 C 666.269531 30.042969 660.148438 27.394531 653.273438 27.394531 L 301.941406 27.394531 C 287.511719 27.394531 274.285156 39.132812 272.464844 53.566406 L 200.691406 620.265625 C 200.597656 620.976562 199.992188 621.492188 199.296875 621.492188 " fill-opacity="1" fill-rule="nonzero"/><path fill="#ebeefd" d="M 330.992188 262.894531 L 298.769531 262.894531 C 294.742188 262.894531 291.875 259.6875 292.375 255.734375 L 296.351562 224.109375 C 296.847656 220.152344 300.515625 216.949219 304.546875 216.949219 L 336.769531 216.949219 C 340.800781 216.949219 343.664062 220.152344 343.164062 224.109375 L 339.1875 255.734375 C 338.691406 259.6875 335.019531 262.894531 330.992188 262.894531 " fill-opacity="1" fill-rule="nonzero"/><path fill="#0a122e" d="M 304.546875 218.351562 C 301.210938 218.351562 298.160156 221.011719 297.746094 224.28125 L 293.769531 255.90625 C 293.582031 257.402344 293.984375 258.796875 294.90625 259.839844 C 295.84375 260.902344 297.21875 261.488281 298.773438 261.488281 L 330.992188 261.488281 C 334.335938 261.488281 337.382812 258.828125 337.792969 255.558594 L 341.769531 223.929688 C 341.960938 222.4375 341.554688 221.042969 340.632812 220 C 339.695312 218.933594 338.324219 218.351562 336.769531 218.351562 Z M 330.992188 264.296875 L 298.773438 264.296875 C 296.398438 264.296875 294.277344 263.378906 292.796875 261.699219 C 291.335938 260.042969 290.691406 257.859375 290.980469 255.558594 L 294.957031 223.929688 C 295.539062 219.304688 299.839844 215.539062 304.546875 215.539062 L 336.769531 215.539062 C 339.144531 215.539062 341.265625 216.460938 342.746094 218.140625 C 344.207031 219.792969 344.847656 221.976562 344.5625 224.28125 L 340.582031 255.90625 C 340.003906 260.535156 335.699219 264.296875 330.992188 264.296875 " fill-opacity="1" fill-rule="nonzero"/><path fill="#ebeefd" d="M 320.628906 346.988281 L 288.410156 346.988281 C 284.378906 346.988281 281.515625 343.78125 282.011719 339.828125 L 285.988281 308.203125 C 286.488281 304.246094 290.15625 301.039062 294.1875 301.039062 L 326.410156 301.039062 C 330.4375 301.039062 333.296875 304.246094 332.804688 308.203125 L 328.828125 339.828125 C 328.328125 343.78125 324.660156 346.988281 320.628906 346.988281 " fill-opacity="1" fill-rule="nonzero"/><path fill="#0a122e" d="M 294.1875 302.445312 C 290.847656 302.445312 287.796875 305.105469 287.382812 308.375 L 283.410156 340 C 283.21875 341.496094 283.625 342.890625 284.542969 343.933594 C 285.484375 344.996094 286.855469 345.582031 288.410156 345.582031 L 320.628906 345.582031 C 323.96875 345.582031 327.019531 342.921875 327.429688 339.652344 L 331.410156 308.023438 C 331.59375 306.535156 331.191406 305.136719 330.273438 304.09375 C 329.332031 303.03125 327.960938 302.445312 326.410156 302.445312 Z M 320.628906 348.394531 L 288.410156 348.394531 C 286.035156 348.394531 283.914062 347.472656 282.4375 345.792969 C 280.972656 344.136719 280.328125 341.957031 280.617188 339.652344 L 284.59375 308.023438 C 285.175781 303.398438 289.480469 299.632812 294.1875 299.632812 L 326.410156 299.632812 C 328.78125 299.632812 330.898438 300.558594 332.382812 302.234375 C 333.839844 303.890625 334.488281 306.070312 334.195312 308.375 L 330.222656 340 C 329.640625 344.628906 325.335938 348.394531 320.628906 348.394531 " fill-opacity="1" fill-rule="nonzero"/><path fill="#2a47b8" d="M 302.332031 341.800781 C 301.695312 341.800781 301.054688 341.714844 300.425781 341.53125 C 298.125 340.871094 296.378906 339.039062 295.828125 336.71875 L 292.039062 322.421875 C 291.3125 319.671875 292.953125 316.851562 295.703125 316.125 C 298.457031 315.390625 301.277344 317.035156 302.011719 319.789062 L 303.972656 327.210938 L 318.195312 308.59375 C 319.921875 306.332031 323.160156 305.898438 325.421875 307.625 C 327.683594 309.355469 328.117188 312.585938 326.386719 314.847656 L 307.636719 339.394531 L 307.433594 339.609375 C 306.058594 341.03125 304.210938 341.800781 302.332031 341.800781 " fill-opacity="1" fill-rule="nonzero"/><path fill="#ebeefd" d="M 310.664062 432.125 L 278.445312 432.125 C 274.414062 432.125 271.550781 428.917969 272.046875 424.960938 L 276.023438 393.335938 C 276.523438 389.382812 280.191406 386.175781 284.222656 386.175781 L 316.445312 386.175781 C 320.472656 386.175781 323.339844 389.382812 322.835938 393.335938 L 318.863281 424.960938 C 318.363281 428.917969 314.695312 432.125 310.664062 432.125 " fill-opacity="1" fill-rule="nonzero"/><path fill="#0a122e" d="M 284.222656 387.578125 C 280.882812 387.578125 277.832031 390.242188 277.417969 393.511719 L 273.445312 425.136719 C 273.253906 426.628906 273.660156 428.027344 274.578125 429.070312 C 275.515625 430.132812 276.890625 430.71875 278.445312 430.71875 L 310.664062 430.71875 C 314.003906 430.71875 317.054688 428.058594 317.46875 424.789062 L 321.445312 393.160156 C 321.628906 391.671875 321.226562 390.273438 320.308594 389.230469 C 319.371094 388.167969 318 387.578125 316.445312 387.578125 Z M 310.664062 433.53125 L 278.445312 433.53125 C 276.070312 433.53125 273.949219 432.609375 272.46875 430.929688 C 271.007812 429.273438 270.363281 427.089844 270.652344 424.789062 L 274.628906 393.160156 C 275.210938 388.535156 279.515625 384.769531 284.222656 384.769531 L 316.445312 384.769531 C 318.816406 384.769531 320.933594 385.695312 322.417969 387.371094 C 323.878906 389.027344 324.523438 391.207031 324.230469 393.511719 L 320.257812 425.136719 C 319.675781 429.765625 315.371094 433.53125 310.664062 433.53125 " fill-opacity="1" fill-rule="nonzero"/><path fill="#ebeefd" d="M 301.09375 517 L 268.871094 517 C 264.839844 517 261.976562 513.792969 262.476562 509.835938 L 266.453125 478.207031 C 266.949219 474.257812 270.617188 471.050781 274.648438 471.050781 L 306.867188 471.050781 C 310.898438 471.050781 313.761719 474.257812 313.265625 478.207031 L 309.289062 509.835938 C 308.792969 513.792969 305.121094 517 301.09375 517 " fill-opacity="1" fill-rule="nonzero"/><path fill="#0a122e" d="M 274.648438 472.457031 C 271.308594 472.457031 268.257812 475.117188 267.847656 478.386719 L 263.871094 510.011719 C 263.683594 511.503906 264.085938 512.902344 265.007812 513.945312 C 265.945312 515.007812 267.316406 515.59375 268.871094 515.59375 L 301.089844 515.59375 C 304.433594 515.59375 307.484375 512.929688 307.894531 509.660156 L 311.871094 478.035156 C 312.058594 476.542969 311.65625 475.144531 310.738281 474.101562 C 309.796875 473.039062 308.421875 472.457031 306.867188 472.457031 Z M 301.089844 518.40625 L 268.871094 518.40625 C 266.5 518.40625 264.378906 517.480469 262.898438 515.804688 C 261.433594 514.148438 260.789062 511.964844 261.082031 509.660156 L 265.054688 478.035156 C 265.636719 473.410156 269.941406 469.644531 274.648438 469.644531 L 306.867188 469.644531 C 309.242188 469.644531 311.363281 470.566406 312.84375 472.246094 C 314.304688 473.898438 314.949219 476.082031 314.660156 478.386719 L 310.6875 510.011719 C 310.101562 514.640625 305.800781 518.40625 301.089844 518.40625 " fill-opacity="1" fill-rule="nonzero"/><path fill="#ebeefd" d="M 599.847656 227.414062 L 369.777344 227.414062 C 366.410156 227.414062 364.082031 224.234375 364.570312 220.304688 C 365.0625 216.375 368.195312 213.191406 371.558594 213.191406 L 601.625 213.191406 C 604.992188 213.191406 607.324219 216.375 606.832031 220.304688 C 606.339844 224.234375 603.214844 227.414062 599.847656 227.414062 " fill-opacity="1" fill-rule="nonzero"/><path fill="#ebeefd" d="M 562.757812 264.070312 L 365.21875 264.070312 C 361.851562 264.070312 359.519531 260.886719 360.011719 256.957031 C 360.503906 253.03125 363.636719 249.851562 367 249.851562 L 564.539062 249.851562 C 567.90625 249.851562 570.238281 253.03125 569.746094 256.957031 C 569.253906 260.886719 566.125 264.070312 562.757812 264.070312 " fill-opacity="1" fill-rule="nonzero"/><path fill="#ebeefd" d="M 572.320312 314.210938 L 359.175781 314.210938 C 355.808594 314.210938 353.476562 311.027344 353.972656 307.101562 C 354.460938 303.175781 357.59375 299.988281 360.953125 299.988281 L 574.097656 299.988281 C 577.46875 299.988281 579.796875 303.175781 579.304688 307.101562 C 578.816406 311.027344 575.6875 314.210938 572.320312 314.210938 " fill-opacity="1" fill-rule="nonzero"/><path fill="#ebeefd" d="M 474.820312 350.183594 L 354.921875 350.183594 C 351.554688 350.183594 349.222656 346.996094 349.714844 343.070312 C 350.207031 339.144531 353.335938 335.960938 356.703125 335.960938 L 476.605469 335.960938 C 479.972656 335.960938 482.300781 339.144531 481.8125 343.070312 C 481.320312 346.996094 478.1875 350.183594 474.820312 350.183594 " fill-opacity="1" fill-rule="nonzero"/><path fill="#ebeefd" d="M 578.671875 396.523438 L 348.605469 396.523438 C 345.234375 396.523438 342.90625 393.34375 343.398438 389.410156 C 343.886719 385.484375 347.015625 382.300781 350.382812 382.300781 L 580.453125 382.300781 C 583.824219 382.300781 586.152344 385.484375 585.660156 389.410156 C 585.167969 393.34375 582.035156 396.523438 578.671875 396.523438 " fill-opacity="1" fill-rule="nonzero"/><path fill="#ebeefd" d="M 541.585938 433.179688 L 344.046875 433.179688 C 340.679688 433.179688 338.351562 429.992188 338.839844 426.066406 C 339.332031 422.140625 342.460938 418.957031 345.828125 418.957031 L 543.363281 418.957031 C 546.734375 418.957031 549.0625 422.140625 548.570312 426.066406 C 548.082031 429.992188 544.953125 433.179688 541.585938 433.179688 " fill-opacity="1" fill-rule="nonzero"/><path fill="#ebeefd" d="M 562.910156 483.316406 L 337.515625 483.316406 C 334.148438 483.316406 331.820312 480.136719 332.308594 476.207031 C 332.800781 472.28125 335.933594 469.097656 339.300781 469.097656 L 564.691406 469.097656 C 568.058594 469.097656 570.390625 472.28125 569.898438 476.207031 C 569.410156 480.136719 566.277344 483.316406 562.910156 483.316406 " fill-opacity="1" fill-rule="nonzero"/><path fill="#ebeefd" d="M 453.960938 516.785156 L 334.0625 516.785156 C 330.695312 516.785156 328.363281 513.605469 328.855469 509.679688 C 329.347656 505.75 332.472656 502.566406 335.839844 502.566406 L 455.742188 502.566406 C 459.109375 502.566406 461.441406 505.75 460.949219 509.679688 C 460.457031 513.605469 457.332031 516.785156 453.960938 516.785156 " fill-opacity="1" fill-rule="nonzero"/><path fill="#ebeefd" d="M 463.503906 720.660156 L 314.4375 720.660156 C 312.773438 720.660156 311.636719 719.300781 311.878906 717.621094 L 333.558594 571.570312 C 333.882812 569.363281 335.917969 567.578125 338.101562 567.578125 L 486.1875 567.578125 C 488.035156 567.578125 489.308594 569.09375 489.035156 570.964844 L 467.316406 717.308594 C 467.039062 719.160156 465.332031 720.660156 463.503906 720.660156 " fill-opacity="1" fill-rule="nonzero"/><path fill="#ffffff" d="M 482.699219 613.089844 L 327.398438 613.089844 L 333.691406 570.652344 C 333.945312 568.953125 335.507812 567.578125 337.1875 567.578125 L 486.605469 567.578125 C 488.179688 567.578125 489.261719 568.867188 489.027344 570.464844 L 482.699219 613.089844 " fill-opacity="1" fill-rule="nonzero"/><path fill="#718bee" d="M 436.546875 590.363281 L 380.207031 590.363281 C 377.445312 590.363281 375.546875 588.101562 375.960938 585.308594 C 376.375 582.511719 378.949219 580.25 381.710938 580.25 L 438.046875 580.25 C 440.808594 580.25 442.714844 582.511719 442.296875 585.308594 C 441.882812 588.101562 439.3125 590.363281 436.546875 590.363281 " fill-opacity="1" fill-rule="nonzero"/><path fill="#ffffff" d="M 433.046875 664.367188 C 432.667969 682.800781 417.410156 697.4375 398.976562 697.054688 C 380.539062 696.675781 365.902344 681.425781 366.277344 662.992188 C 366.660156 644.558594 381.917969 629.921875 400.351562 630.304688 C 418.785156 630.683594 433.425781 645.933594 433.046875 664.367188 " fill-opacity="1" fill-rule="nonzero"/><path fill="#0a122e" d="M 399.644531 631.703125 C 391.351562 631.703125 383.519531 634.851562 377.519531 640.605469 C 371.355469 646.519531 367.863281 654.480469 367.683594 663.019531 C 367.320312 680.648438 381.371094 695.285156 399.003906 695.648438 C 407.558594 695.820312 415.644531 692.667969 421.808594 686.753906 C 427.972656 680.839844 431.464844 672.878906 431.640625 664.339844 L 433.046875 664.371094 L 431.640625 664.339844 C 432.003906 646.710938 417.957031 632.074219 400.324219 631.710938 C 400.097656 631.707031 399.871094 631.703125 399.644531 631.703125 Z M 399.683594 698.46875 C 399.4375 698.46875 399.191406 698.46875 398.945312 698.460938 C 389.65625 698.273438 380.992188 694.472656 374.558594 687.765625 C 368.121094 681.0625 364.679688 672.253906 364.875 662.964844 C 365.066406 653.671875 368.867188 645.011719 375.570312 638.578125 C 382.277344 632.144531 391.089844 628.707031 400.382812 628.898438 C 419.5625 629.296875 434.84375 645.21875 434.453125 664.398438 C 434.257812 673.6875 430.460938 682.347656 423.757812 688.785156 C 417.226562 695.042969 408.703125 698.46875 399.683594 698.46875 " fill-opacity="1" fill-rule="nonzero"/><path fill="#0a122e" d="M 396.957031 679.609375 C 396.425781 679.609375 395.929688 679.300781 395.691406 678.816406 L 385.386719 657.542969 C 385.046875 656.84375 385.339844 656.003906 386.039062 655.667969 C 386.738281 655.328125 387.578125 655.617188 387.917969 656.320312 L 396.589844 674.214844 C 400.015625 662.25 404.304688 653.378906 409.648438 647.167969 C 410.152344 646.578125 411.042969 646.511719 411.628906 647.015625 C 412.21875 647.523438 412.289062 648.410156 411.777344 649 C 406.269531 655.398438 401.742188 665.34375 398.320312 678.558594 C 398.167969 679.125 397.683594 679.542969 397.097656 679.605469 C 397.050781 679.609375 397.003906 679.609375 396.957031 679.609375 " fill-opacity="1" fill-rule="nonzero"/><path fill="#ffffff" d="M 553.265625 746.230469 L 555.960938 774.851562 C 556.054688 775.65625 555.511719 776.394531 554.800781 776.441406 L 540.585938 777.316406 C 539.96875 777.355469 539.441406 776.863281 539.355469 776.171875 L 536.714844 750.160156 L 553.265625 746.230469 " fill-opacity="1" fill-rule="nonzero"/><path fill="#0a122e" d="M 538.238281 751.238281 L 540.742188 775.898438 L 554.566406 775.046875 C 554.566406 775.035156 554.566406 775.019531 554.566406 775.007812 L 552.015625 747.96875 Z M 540.511719 778.726562 C 539.21875 778.726562 538.136719 777.726562 537.964844 776.347656 L 535.316406 750.300781 C 535.246094 749.601562 535.703125 748.953125 536.390625 748.792969 L 552.941406 744.859375 C 553.335938 744.769531 553.753906 744.847656 554.085938 745.085938 C 554.414062 745.320312 554.625 745.691406 554.664062 746.097656 L 557.363281 774.71875 C 557.449219 775.496094 557.210938 776.304688 556.703125 776.90625 C 556.234375 777.464844 555.589844 777.800781 554.886719 777.84375 L 540.671875 778.71875 C 540.621094 778.722656 540.566406 778.726562 540.511719 778.726562 " fill-opacity="1" fill-rule="nonzero"/><path fill="#2a47b8" d="M 558.203125 767.4375 C 559.148438 770.824219 561.136719 780.351562 561.96875 786.082031 C 562.492188 789.679688 560.21875 793.078125 556.742188 794.019531 C 546.902344 796.679688 523.390625 796.566406 503.816406 797.429688 C 502.472656 797.488281 500.003906 796.835938 498.90625 793.589844 C 495.183594 782.574219 515.757812 779.164062 536.09375 767.964844 C 536.492188 767.742188 536.980469 767.765625 537.351562 768.03125 C 537.585938 768.195312 537.882812 768.402344 538.234375 768.625 C 541.769531 770.875 547.652344 770.878906 551.246094 768.71875 L 555.300781 766.277344 C 556.414062 765.609375 557.851562 766.179688 558.203125 767.4375 " fill-opacity="1" fill-rule="nonzero"/><path fill="#0a122e" d="M 536.652344 769.257812 C 530.46875 772.65625 524.253906 775.347656 518.765625 777.722656 C 505.542969 783.449219 498.160156 786.988281 500.238281 793.136719 C 501.203125 795.996094 503.335938 796.039062 503.753906 796.027344 C 508.78125 795.800781 514.125 795.648438 519.296875 795.488281 C 534.003906 795.054688 549.214844 794.597656 556.371094 792.664062 C 559.191406 791.902344 560.996094 789.160156 560.578125 786.28125 C 559.78125 780.800781 557.804688 771.234375 556.851562 767.820312 C 556.78125 767.578125 556.609375 767.480469 556.515625 767.441406 C 556.417969 767.40625 556.226562 767.359375 556.023438 767.480469 L 551.96875 769.921875 C 547.910156 772.359375 541.410156 772.3125 537.476562 769.808594 C 537.160156 769.605469 536.882812 769.421875 536.652344 769.257812 Z M 503.648438 798.839844 C 501.542969 798.839844 498.773438 797.59375 497.578125 794.035156 C 494.5625 785.136719 504.753906 780.726562 517.652344 775.144531 C 523.113281 772.777344 529.308594 770.097656 535.414062 766.730469 C 536.285156 766.253906 537.367188 766.3125 538.167969 766.882812 C 538.386719 767.039062 538.660156 767.230469 538.988281 767.4375 C 542.058594 769.390625 547.339844 769.425781 550.519531 767.515625 L 554.578125 765.074219 C 555.488281 764.527344 556.570312 764.4375 557.554688 764.828125 C 558.542969 765.222656 559.269531 766.035156 559.558594 767.0625 C 560.542969 770.589844 562.527344 780.15625 563.363281 785.878906 C 563.980469 790.160156 561.296875 794.242188 557.105469 795.378906 C 549.632812 797.402344 534.9375 797.835938 519.378906 798.304688 C 514.21875 798.457031 508.878906 798.613281 503.878906 798.835938 C 503.800781 798.835938 503.726562 798.839844 503.648438 798.839844 " fill-opacity="1" fill-rule="nonzero"/><path fill="#ffffff" d="M 562.5625 788.679688 C 562.582031 788.773438 562.597656 788.847656 562.601562 788.878906 C 563.121094 792.472656 559.707031 794.6875 556.441406 796.214844 C 546.75 800.761719 507.613281 798.160156 506.101562 798.054688 C 506.070312 798.054688 506.050781 798.054688 506.019531 798.054688 C 505.535156 798.0625 500.5625 798.0625 499.132812 794.972656 C 498.953125 794.589844 498.84375 794.050781 498.78125 793.539062 C 498.667969 792.714844 498.726562 791.875 498.90625 791.0625 C 499.054688 790.402344 499.707031 789.988281 500.359375 790.15625 C 507.625 792.011719 524.585938 792.628906 541.535156 790.761719 C 552.804688 789.519531 557.699219 787.0625 560.3125 785.503906 C 561.023438 785.078125 561.933594 785.492188 562.097656 786.308594 C 562.234375 786.996094 562.394531 787.828125 562.5625 788.679688 " fill-opacity="1" fill-rule="nonzero"/><path fill="#0a122e" d="M 506.007812 796.648438 C 506.050781 796.648438 506.152344 796.648438 506.1875 796.648438 C 520.101562 797.59375 548.367188 798.449219 555.84375 794.945312 C 559.867188 793.054688 561.523438 791.246094 561.210938 789.082031 L 561.191406 788.976562 L 562.5625 788.679688 L 561.183594 788.945312 L 560.773438 786.867188 C 557.808594 788.597656 552.605469 790.957031 541.691406 792.160156 C 524.09375 794.097656 507.304688 793.308594 500.238281 791.570312 C 500.117188 792.191406 500.097656 792.789062 500.171875 793.359375 C 500.257812 794.007812 500.363281 794.285156 500.40625 794.378906 C 501.265625 796.230469 504.46875 796.683594 505.996094 796.648438 C 506 796.648438 506.003906 796.648438 506.007812 796.648438 Z M 530.679688 800.308594 C 519.207031 800.308594 508.183594 799.601562 506.007812 799.460938 C 504.984375 799.480469 499.617188 799.363281 497.855469 795.5625 C 497.640625 795.097656 497.488281 794.5 497.386719 793.726562 C 497.257812 792.769531 497.308594 791.769531 497.535156 790.757812 C 497.691406 790.066406 498.121094 789.460938 498.71875 789.09375 C 499.324219 788.726562 500.03125 788.621094 500.710938 788.792969 C 507.402344 790.503906 523.929688 791.285156 541.382812 789.363281 C 552.074219 788.1875 556.894531 785.90625 559.585938 784.296875 C 560.3125 783.863281 561.203125 783.8125 561.972656 784.152344 C 562.75 784.496094 563.3125 785.199219 563.476562 786.039062 L 563.945312 788.40625 C 563.945312 788.40625 563.945312 788.40625 563.945312 788.410156 L 562.5625 788.679688 L 563.945312 788.4375 C 563.96875 788.554688 563.984375 788.636719 563.988281 788.675781 C 564.746094 793.871094 559.148438 796.496094 557.039062 797.488281 C 552.3125 799.703125 541.300781 800.308594 530.679688 800.308594 " fill-opacity="1" fill-rule="nonzero"/><path fill="#0a122e" d="M 534.695312 778.269531 C 534.398438 778.269531 534.097656 778.175781 533.84375 777.984375 L 527.910156 773.460938 C 527.289062 772.992188 527.171875 772.109375 527.640625 771.492188 C 528.113281 770.875 528.996094 770.753906 529.613281 771.226562 L 535.550781 775.746094 C 536.164062 776.214844 536.285156 777.097656 535.816406 777.714844 C 535.539062 778.078125 535.121094 778.269531 534.695312 778.269531 " fill-opacity="1" fill-rule="nonzero"/><path fill="#0a122e" d="M 526.8125 781.503906 C 526.515625 781.503906 526.21875 781.414062 525.96875 781.222656 L 520.773438 777.324219 C 520.152344 776.859375 520.023438 775.980469 520.488281 775.355469 C 520.960938 774.738281 521.839844 774.609375 522.460938 775.074219 L 527.652344 778.972656 C 528.277344 779.4375 528.398438 780.320312 527.933594 780.941406 C 527.660156 781.308594 527.238281 781.503906 526.8125 781.503906 " fill-opacity="1" fill-rule="nonzero"/><path fill="#2a47b8" d="M 595.515625 481.5 C 595.515625 481.5 606.796875 504.070312 610.589844 527.847656 C 614.121094 549.984375 627.113281 641.132812 658.769531 714.242188 C 662.359375 722.527344 658.21875 731.152344 649.390625 733.074219 C 645.855469 733.84375 644.378906 732.589844 641.320312 731.101562 C 639.746094 730.335938 637.132812 728.070312 637.132812 728.070312 C 637.132812 728.070312 581.09375 681.242188 558.238281 558.371094 C 543.546875 479.34375 545.992188 485.613281 545.992188 485.613281 L 595.515625 481.5 " fill-opacity="1" fill-rule="nonzero"/><path fill="#0a122e" d="M 547.304688 486.914062 C 547.648438 490.546875 549.664062 504.566406 559.625 558.117188 C 571.371094 621.28125 592.070312 663.835938 607.367188 688.414062 C 623.929688 715.035156 637.902344 726.878906 638.039062 726.992188 C 638.75 727.605469 640.789062 729.273438 641.9375 729.835938 C 642.4375 730.074219 642.894531 730.3125 643.328125 730.539062 C 645.457031 731.632812 646.621094 732.238281 649.09375 731.703125 C 652.84375 730.886719 655.792969 728.710938 657.398438 725.585938 C 659.039062 722.386719 659.066406 718.457031 657.484375 714.796875 C 627.589844 645.75 614.285156 560.570312 609.914062 532.578125 C 609.644531 530.851562 609.410156 529.347656 609.207031 528.066406 C 605.902344 507.351562 596.730469 487.296875 594.671875 482.980469 Z M 647.394531 734.714844 C 645.289062 734.714844 643.808594 733.949219 642.042969 733.039062 C 641.625 732.820312 641.1875 732.597656 640.710938 732.363281 C 639.015625 731.542969 636.496094 729.378906 636.21875 729.132812 C 635.65625 728.664062 621.863281 716.988281 605.066406 690.042969 C 589.613281 665.242188 568.707031 622.3125 556.859375 558.628906 C 551.488281 529.738281 547.789062 508.929688 545.867188 496.796875 C 545.1875 492.523438 544.746094 489.414062 544.554688 487.539062 C 544.367188 485.78125 544.234375 484.511719 545.515625 484.148438 C 545.785156 484.066406 546.085938 484.074219 546.371094 484.171875 L 595.40625 480.097656 C 595.988281 480.046875 596.519531 480.355469 596.773438 480.871094 C 596.890625 481.097656 608.199219 503.90625 611.984375 527.625 C 612.183594 528.902344 612.425781 530.417969 612.695312 532.144531 C 617.050781 560.050781 630.3125 644.960938 660.0625 713.683594 C 661.988281 718.113281 661.925781 722.921875 659.898438 726.867188 C 657.902344 730.757812 654.28125 733.449219 649.691406 734.449219 C 648.835938 734.632812 648.089844 734.714844 647.394531 734.714844 " fill-opacity="1" fill-rule="nonzero"/><path fill="#2a47b8" d="M 579.785156 491.828125 C 579.785156 491.828125 586.363281 534.71875 573.917969 566.449219 C 561.957031 596.960938 554.316406 716.578125 558.773438 751.132812 C 559.054688 753.3125 557.546875 755.296875 555.378906 755.601562 C 549.933594 756.367188 540.121094 757.402344 533.410156 756.148438 C 532.171875 755.917969 531.179688 755.015625 530.871094 753.792969 C 526.4375 736.261719 489.6875 577.769531 515.601562 496.550781 L 579.785156 491.828125 " fill-opacity="1" fill-rule="nonzero"/><path fill="#718bee" d="M 531.714844 517.96875 C 531.382812 517.96875 531.066406 518.089844 530.808594 518.308594 C 530.519531 518.5625 530.355469 518.914062 530.339844 519.296875 L 529.601562 542.460938 C 529.496094 545.789062 531.394531 548.820312 534.4375 550.175781 L 546.207031 555.445312 C 549.210938 556.792969 552.738281 556.433594 555.40625 554.503906 L 563.023438 548.992188 C 565.039062 547.539062 566.265625 545.28125 566.398438 542.808594 L 567.699219 518.550781 C 567.730469 517.988281 567.433594 517.628906 567.253906 517.460938 C 566.949219 517.1875 566.550781 517.058594 566.125 517.117188 C 559.4375 518.089844 546.101562 519.488281 531.863281 517.980469 C 531.8125 517.972656 531.765625 517.96875 531.714844 517.96875 Z M 549.972656 559.0625 C 548.304688 559.0625 546.628906 558.71875 545.054688 558.015625 L 533.28125 552.746094 C 529.199219 550.914062 526.652344 546.84375 526.792969 542.367188 L 527.53125 519.207031 C 527.566406 518.050781 528.089844 516.953125 528.964844 516.191406 C 529.839844 515.429688 531.011719 515.0625 532.160156 515.183594 C 546.09375 516.664062 559.164062 515.285156 565.722656 514.335938 C 566.964844 514.152344 568.222656 514.539062 569.152344 515.390625 C 570.082031 516.238281 570.578125 517.445312 570.507812 518.703125 L 569.207031 542.957031 C 569.027344 546.285156 567.375 549.3125 564.671875 551.265625 L 557.054688 556.78125 C 554.964844 558.289062 552.476562 559.0625 549.972656 559.0625 " fill-opacity="1" fill-rule="nonzero"/><path fill="#718bee" d="M 606.816406 553.59375 C 606.152344 553.59375 605.488281 553.441406 604.875 553.125 L 591.914062 546.539062 C 590.625 545.886719 589.757812 544.636719 589.609375 543.199219 L 586.683594 516.21875 C 586.441406 513.949219 588.011719 511.898438 590.265625 511.550781 L 602.511719 509.621094 C 603.28125 509.5 604 510.023438 604.125 510.792969 C 604.246094 511.558594 603.714844 512.277344 602.949219 512.398438 L 590.699219 514.332031 C 589.929688 514.453125 589.398438 515.144531 589.484375 515.917969 L 592.40625 542.894531 C 592.457031 543.386719 592.75 543.8125 593.191406 544.03125 L 606.152344 550.617188 C 606.632812 550.863281 607.203125 550.824219 607.640625 550.507812 L 610.734375 548.417969 C 611.375 547.988281 612.25 548.152344 612.679688 548.796875 C 613.121094 549.441406 612.949219 550.3125 612.3125 550.75 L 609.242188 552.820312 C 608.523438 553.328125 607.675781 553.59375 606.816406 553.59375 " fill-opacity="1" fill-rule="nonzero"/><path fill="#0a122e" d="M 540.960938 758.136719 C 538.199219 758.136719 535.492188 757.972656 533.148438 757.53125 C 531.371094 757.203125 529.941406 755.871094 529.503906 754.136719 C 529.074219 752.4375 486.699219 582.511719 514.257812 496.125 C 514.429688 495.578125 514.921875 495.195312 515.492188 495.152344 L 560.304688 491.855469 C 561.085938 491.804688 561.753906 492.378906 561.8125 493.15625 C 561.871094 493.925781 561.285156 494.601562 560.511719 494.65625 L 516.652344 497.882812 C 489.917969 583.792969 531.800781 751.757812 532.230469 753.453125 C 532.40625 754.128906 532.953125 754.636719 533.664062 754.769531 C 540.207031 755.992188 549.953125 754.941406 555.179688 754.210938 C 556.59375 754.011719 557.558594 752.742188 557.375 751.316406 C 553.027344 717.609375 560.269531 597.410156 572.609375 565.941406 C 577.433594 553.628906 579.960938 538.210938 580.105469 520.113281 C 580.109375 519.34375 580.738281 518.71875 581.515625 518.71875 C 581.519531 518.71875 581.519531 518.71875 581.523438 518.71875 C 582.304688 518.730469 582.925781 519.363281 582.917969 520.140625 C 582.769531 538.578125 580.179688 554.332031 575.226562 566.964844 C 563 598.152344 555.839844 717.46875 560.164062 750.957031 C 560.542969 753.875 558.480469 756.585938 555.570312 756.992188 C 551.996094 757.496094 546.371094 758.136719 540.960938 758.136719 " fill-opacity="1" fill-rule="nonzero"/><path fill="#ffffff" d="M 649.457031 746.953125 C 647.730469 738.316406 646.980469 736.539062 642.832031 729.878906 C 639.753906 724.929688 647.242188 717.464844 651.054688 716.894531 C 657.417969 715.582031 656.40625 717.601562 663.679688 726.921875 L 669.375 733.929688 C 669.375 733.929688 650.972656 754.507812 649.457031 746.953125 " fill-opacity="1" fill-rule="nonzero"/><path fill="#0a122e" d="M 651.140625 750.007812 C 650.859375 750.007812 650.589844 749.976562 650.34375 749.902344 C 649.660156 749.722656 648.460938 749.125 648.085938 747.226562 C 646.5625 739.628906 646.085938 737.636719 643.046875 732.566406 C 642.648438 731.898438 642.859375 731.03125 643.527344 730.636719 C 644.195312 730.234375 645.058594 730.453125 645.457031 731.121094 C 648.726562 736.578125 649.273438 738.851562 650.839844 746.675781 C 650.855469 746.757812 650.945312 747.15625 651.078125 747.195312 C 653.179688 747.769531 661.089844 740.925781 667.523438 733.886719 L 662.878906 728.222656 C 660.769531 725.523438 659.472656 723.421875 658.320312 721.496094 C 657.914062 720.832031 658.140625 719.96875 658.800781 719.570312 C 659.46875 719.171875 660.332031 719.386719 660.734375 720.054688 C 661.839844 721.90625 663.085938 723.921875 665.078125 726.46875 L 670.460938 733.039062 C 670.902344 733.574219 670.890625 734.351562 670.425781 734.867188 C 667.144531 738.539062 656.449219 750.007812 651.140625 750.007812 " fill-opacity="1" fill-rule="nonzero"/><path fill="#2a47b8" d="M 648.453125 743.710938 L 655.820312 732.601562 C 659.257812 727.417969 666.566406 726.644531 671.011719 730.996094 L 679.441406 738.070312 C 679.441406 738.070312 681.054688 742.933594 680.542969 746.070312 C 679.875 750.160156 678.558594 755.984375 676.015625 761.757812 C 672.105469 770.636719 661.269531 788.484375 657.414062 794.753906 C 656.605469 796.066406 654.585938 797.367188 653.175781 796.738281 C 651.5 795.988281 649.773438 794.644531 648.097656 793.074219 C 645.507812 790.644531 646.378906 779.285156 647.304688 771.382812 C 647.902344 766.316406 647.457031 753.378906 647.242188 748.046875 C 647.175781 746.507812 647.601562 744.996094 648.453125 743.710938 " fill-opacity="1" fill-rule="nonzero"/><path fill="#0a122e" d="M 648.453125 743.710938 L 648.464844 743.710938 Z M 664.089844 729.574219 C 663.789062 729.574219 663.488281 729.589844 663.183594 729.617188 C 660.652344 729.886719 658.398438 731.257812 656.992188 733.375 L 649.621094 744.488281 C 648.933594 745.535156 648.589844 746.742188 648.644531 747.992188 C 648.863281 753.355469 649.308594 766.382812 648.707031 771.546875 C 646.726562 788.402344 648.480469 791.5 649.066406 792.050781 C 650.832031 793.710938 652.410156 794.855469 653.753906 795.457031 C 654.265625 795.683594 655.625 794.980469 656.214844 794.019531 C 659.566406 788.574219 670.800781 770.105469 674.730469 761.191406 C 677.25 755.476562 678.523438 749.6875 679.15625 745.84375 C 679.496094 743.75 678.679688 740.40625 678.226562 738.882812 L 670.027344 732 C 668.425781 730.429688 666.300781 729.574219 664.089844 729.574219 Z M 654 798.316406 C 653.527344 798.316406 653.058594 798.226562 652.601562 798.023438 C 650.953125 797.28125 649.164062 795.996094 647.140625 794.101562 C 645.621094 792.683594 643.851562 788.761719 645.910156 771.222656 C 646.488281 766.257812 646.050781 753.402344 645.832031 748.105469 C 645.761719 746.261719 646.257812 744.476562 647.277344 742.9375 L 654.648438 731.828125 C 656.515625 729 659.523438 727.179688 662.890625 726.824219 C 666.246094 726.472656 669.542969 727.613281 671.957031 729.953125 L 680.652344 737.246094 L 680.773438 737.625 C 680.847656 737.839844 682.492188 742.855469 681.929688 746.296875 C 681.277344 750.304688 679.941406 756.335938 677.304688 762.320312 C 673.410156 771.152344 662.933594 788.457031 658.617188 795.488281 C 657.765625 796.863281 655.886719 798.316406 654 798.316406 " fill-opacity="1" fill-rule="nonzero"/><path fill="#0a122e" d="M 647.570312 757.789062 C 646.957031 757.789062 646.390625 757.375 646.214844 756.753906 C 646.015625 756.003906 646.453125 755.234375 647.199219 755.027344 L 655.132812 752.847656 C 655.878906 752.640625 656.652344 753.082031 656.859375 753.832031 C 657.0625 754.582031 656.625 755.351562 655.878906 755.558594 L 647.945312 757.738281 C 647.824219 757.773438 647.695312 757.789062 647.570312 757.789062 " fill-opacity="1" fill-rule="nonzero"/><path fill="#0a122e" d="M 648.160156 764.867188 C 647.539062 764.867188 646.976562 764.457031 646.804688 763.832031 C 646.597656 763.082031 647.035156 762.308594 647.789062 762.105469 L 655.71875 759.921875 C 656.460938 759.722656 657.238281 760.15625 657.445312 760.90625 C 657.652344 761.65625 657.210938 762.433594 656.460938 762.636719 L 648.535156 764.8125 C 648.40625 764.851562 648.28125 764.867188 648.160156 764.867188 " fill-opacity="1" fill-rule="nonzero"/><path fill="#ffffff" d="M 656.25 797.320312 C 655.445312 797.320312 654.671875 797.191406 653.972656 796.949219 C 651.609375 796.136719 645.683594 794.371094 646.34375 785.882812 C 647.027344 777.085938 653.71875 772.601562 658.613281 766.828125 C 662.339844 762.421875 661.960938 743.996094 663.136719 740.386719 C 665.238281 733.917969 674.683594 732.945312 679.441406 738.070312 C 682.445312 741.304688 682.796875 748.332031 682.503906 753.5 C 681.957031 763.171875 676.269531 782.433594 669.074219 791.738281 C 665.570312 796.273438 660.160156 797.320312 656.25 797.320312 " fill-opacity="1" fill-rule="nonzero"/><path fill="#0a122e" d="M 671.691406 736.199219 C 671.019531 736.199219 670.339844 736.269531 669.671875 736.414062 C 667.089844 736.984375 665.199219 738.585938 664.472656 740.820312 C 664.128906 741.886719 663.898438 744.945312 663.660156 748.1875 C 663.117188 755.441406 662.4375 764.480469 659.683594 767.734375 C 658.519531 769.105469 657.261719 770.410156 656.039062 771.671875 C 652.027344 775.8125 648.230469 779.730469 647.742188 785.992188 C 647.191406 793.152344 651.761719 794.710938 654.21875 795.550781 L 654.429688 795.621094 C 654.996094 795.816406 655.605469 795.914062 656.246094 795.914062 C 659.167969 795.914062 664.574219 795.261719 667.964844 790.875 C 675.21875 781.496094 680.59375 762.421875 681.101562 753.421875 C 681.488281 746.535156 680.507812 741.285156 678.410156 739.023438 C 676.730469 737.214844 674.238281 736.199219 671.691406 736.199219 Z M 656.246094 798.726562 C 655.289062 798.726562 654.371094 798.578125 653.515625 798.277344 L 653.308594 798.210938 C 650.820312 797.363281 644.21875 795.109375 644.941406 785.773438 C 645.503906 778.503906 649.835938 774.035156 654.019531 769.714844 C 655.207031 768.484375 656.4375 767.21875 657.535156 765.921875 C 659.703125 763.359375 660.394531 754.101562 660.851562 747.976562 C 661.125 744.269531 661.351562 741.339844 661.800781 739.949219 C 662.835938 736.75 665.488281 734.457031 669.070312 733.667969 C 673.207031 732.757812 677.683594 734.109375 680.472656 737.113281 C 684.054688 740.972656 684.164062 749.089844 683.910156 753.578125 C 683.382812 762.9375 677.769531 782.792969 670.1875 792.597656 C 666.0625 797.929688 659.6875 798.726562 656.246094 798.726562 " fill-opacity="1" fill-rule="nonzero"/><path fill="#0a122e" d="M 656.25 798.726562 C 653.949219 798.726562 651.84375 797.832031 650.492188 796.277344 C 649.273438 794.882812 648.75 793.058594 649.019531 791.136719 C 650.308594 781.828125 655.34375 777 660.671875 771.882812 C 664.597656 768.121094 665.664062 754.449219 666.171875 747.878906 C 666.371094 745.386719 666.46875 744.15625 666.640625 743.542969 C 667.445312 740.601562 671.046875 737.976562 674.851562 737.558594 C 678.367188 737.167969 681.339844 738.757812 683.015625 741.921875 C 683.375 742.605469 683.113281 743.453125 682.425781 743.816406 C 681.738281 744.183594 680.890625 743.917969 680.53125 743.230469 C 679.09375 740.519531 676.816406 740.167969 675.160156 740.351562 C 672.285156 740.664062 669.792969 742.679688 669.355469 744.28125 C 669.246094 744.667969 669.113281 746.410156 668.976562 748.09375 C 668.398438 755.542969 667.316406 769.410156 662.621094 773.910156 C 657.433594 778.886719 652.960938 783.179688 651.804688 791.523438 C 651.644531 792.640625 651.921875 793.644531 652.609375 794.429688 C 653.429688 795.375 654.757812 795.914062 656.25 795.914062 C 657.109375 795.914062 657.964844 795.863281 658.796875 795.75 C 659.566406 795.65625 660.273438 796.195312 660.371094 796.96875 C 660.472656 797.738281 659.925781 798.441406 659.15625 798.539062 C 658.207031 798.660156 657.234375 798.726562 656.25 798.726562 " fill-opacity="1" fill-rule="nonzero"/><path fill="#ffffff" d="M 639.617188 501.871094 C 639.617188 501.871094 649.835938 499.214844 652.46875 501.503906 C 653.152344 502.097656 650.9375 515.398438 651.667969 516.070312 C 655.15625 519.257812 660.589844 523.378906 661.742188 526.359375 C 663.535156 530.980469 661.398438 544.363281 660.300781 550.367188 C 659.738281 553.464844 655.429688 553.988281 654.242188 551.074219 C 653.914062 550.273438 653.75 549.21875 653.84375 547.832031 C 654.171875 542.980469 653.714844 539.480469 653.386719 537.738281 C 653.242188 536.972656 652.820312 536.292969 652.191406 535.828125 C 649.261719 533.65625 640.234375 526.609375 638.910156 521.363281 C 638.742188 520.691406 639.140625 519.078125 639.527344 517.808594 C 639.902344 516.566406 640.070312 515.277344 640.027344 513.988281 L 639.617188 501.871094 " fill-opacity="1" fill-rule="nonzero"/><path fill="#0a122e" d="M 651.183594 501.984375 Z M 641.066406 502.964844 L 641.429688 513.9375 C 641.484375 515.382812 641.292969 516.820312 640.871094 518.210938 C 640.210938 520.429688 640.277344 521.023438 640.28125 521.046875 C 641.246094 524.84375 647.496094 530.59375 653.027344 534.699219 C 653.941406 535.378906 654.558594 536.363281 654.769531 537.480469 C 655.09375 539.210938 655.59375 542.875 655.246094 547.925781 C 655.175781 549 655.277344 549.882812 655.546875 550.542969 C 655.988281 551.628906 657.011719 551.609375 657.308594 551.582031 C 657.976562 551.507812 658.742188 551.089844 658.917969 550.109375 C 661.027344 538.554688 661.597656 529.867188 660.4375 526.863281 C 659.675781 524.894531 656.183594 521.875 653.378906 519.445312 C 652.445312 518.632812 651.53125 517.84375 650.722656 517.105469 C 649.929688 516.375 649.921875 515.402344 650.675781 508.414062 C 650.90625 506.285156 651.21875 503.46875 651.203125 502.347656 C 649.589844 501.609375 645.066406 502.039062 641.066406 502.964844 Z M 657.09375 554.402344 C 655.246094 554.402344 653.652344 553.34375 652.941406 551.601562 C 652.511719 550.539062 652.339844 549.242188 652.445312 547.738281 C 652.761719 542.992188 652.304688 539.601562 652.003906 538 C 651.925781 537.582031 651.695312 537.210938 651.355469 536.957031 C 647.667969 534.226562 638.957031 527.265625 637.546875 521.703125 C 637.410156 521.152344 637.351562 520.15625 638.183594 517.402344 C 638.515625 516.304688 638.660156 515.167969 638.621094 514.03125 L 638.21875 501.921875 C 638.191406 501.261719 638.632812 500.675781 639.269531 500.511719 C 641.09375 500.035156 650.355469 497.804688 653.394531 500.441406 C 654.203125 501.136719 654.210938 501.914062 653.476562 508.714844 C 653.234375 510.949219 652.878906 514.21875 652.925781 515.308594 C 653.640625 515.949219 654.417969 516.628906 655.222656 517.324219 C 658.574219 520.226562 662.039062 523.226562 663.058594 525.851562 C 664.921875 530.664062 663 543.4375 661.683594 550.617188 C 661.316406 552.652344 659.675781 554.160156 657.597656 554.375 C 657.425781 554.394531 657.257812 554.402344 657.09375 554.402344 " fill-opacity="1" fill-rule="nonzero"/><path fill="#ffffff" d="M 432.441406 341.257812 L 427.613281 336.621094 C 424.023438 333.589844 422.683594 326.964844 422.683594 326.964844 C 422.054688 324.457031 420.601562 322.230469 418.558594 320.644531 L 398.332031 304.910156 C 397.007812 303.886719 395.039062 304.613281 394.753906 306.265625 C 394.476562 307.90625 394.863281 310.058594 397.382812 312.308594 L 402.753906 316.75 C 403.707031 317.539062 403.945312 318.894531 403.328125 319.964844 C 402.191406 321.929688 400.792969 325.339844 401.808594 329.128906 C 404.066406 337.558594 414.121094 340.445312 416.628906 341.042969 C 416.992188 341.128906 423.558594 350.996094 423.558594 350.996094 L 432.441406 341.257812 " fill-opacity="1" fill-rule="nonzero"/><path fill="#0a122e" d="M 396.957031 305.84375 C 396.820312 305.84375 396.703125 305.875 396.640625 305.902344 C 396.484375 305.964844 396.207031 306.125 396.140625 306.503906 C 395.867188 308.117188 396.597656 309.71875 398.320312 311.261719 L 403.648438 315.667969 C 405.136719 316.894531 405.507812 318.996094 404.542969 320.667969 C 403.4375 322.578125 402.300781 325.535156 403.167969 328.765625 C 405.25 336.523438 415.019531 339.214844 416.957031 339.675781 C 417.578125 339.824219 417.832031 339.882812 423.730469 348.71875 L 430.480469 341.324219 L 426.640625 337.632812 C 422.785156 334.386719 421.367188 327.53125 421.308594 327.242188 C 420.769531 325.113281 419.480469 323.140625 417.695312 321.753906 L 397.464844 306.019531 C 397.289062 305.886719 397.109375 305.84375 396.957031 305.84375 Z M 423.558594 352.402344 C 423.523438 352.402344 423.484375 352.402344 423.453125 352.398438 C 423.019531 352.367188 422.628906 352.132812 422.386719 351.773438 C 419.738281 347.796875 416.753906 343.421875 415.886719 342.308594 C 412.363281 341.410156 402.785156 338.191406 400.449219 329.492188 C 399.335938 325.335938 400.738281 321.632812 402.109375 319.261719 C 402.386719 318.785156 402.277344 318.183594 401.855469 317.832031 L 396.488281 313.390625 C 393.339844 310.574219 393.058594 307.835938 393.371094 306.027344 C 393.585938 304.769531 394.429688 303.746094 395.625 303.28125 C 396.835938 302.8125 398.167969 303.007812 399.191406 303.800781 L 419.421875 319.535156 C 421.703125 321.304688 423.339844 323.820312 424.050781 326.621094 C 424.074219 326.746094 425.355469 332.875 428.519531 335.546875 L 433.417969 340.242188 C 433.96875 340.773438 433.996094 341.640625 433.484375 342.207031 L 424.601562 351.945312 C 424.328125 352.238281 423.953125 352.402344 423.558594 352.402344 " fill-opacity="1" fill-rule="nonzero"/><path fill="#0a122e" d="M 418.089844 345.492188 L 429.242188 334.324219 C 430.300781 333.726562 431.574219 334.007812 432.457031 334.859375 C 457.800781 359.316406 477.136719 356.671875 497.425781 351.578125 C 497.425781 351.578125 518.253906 346.710938 524.035156 346.175781 C 528.386719 345.761719 539.960938 342.824219 567.070312 345.859375 C 577.609375 347.039062 587.820312 350.257812 597.136719 355.308594 L 598.535156 356.066406 C 598.535156 356.066406 675.199219 404.140625 656.460938 507.917969 C 656.253906 509.070312 655.242188 510 654.066406 510 L 638.664062 510 C 637.390625 510 636.324219 508.921875 636.246094 507.644531 C 635.550781 496.886719 631.371094 450.429688 609.785156 424.675781 C 607.40625 421.832031 602.8125 422.65625 601.703125 426.199219 C 599.992188 431.683594 599.546875 443.34375 604.082031 467.921875 C 604.210938 468.671875 609.917969 497.667969 609.917969 497.667969 C 609.917969 497.667969 549.917969 507.953125 529.003906 504.195312 C 512.46875 501.230469 507.488281 497.160156 506.121094 495.589844 C 505.808594 495.226562 505.671875 494.753906 505.726562 494.28125 L 508.152344 473.148438 C 509.019531 465.492188 511.140625 451.171875 508.625 432.925781 C 505.171875 407.835938 490.125 408.320312 490.125 408.320312 C 471.019531 407.09375 436.695312 411.109375 416.859375 348.492188 C 416.492188 347.34375 417.035156 346.082031 418.089844 345.492188 " fill-opacity="1" fill-rule="nonzero"/><path fill="#ffffff" d="M 519.273438 292.617188 C 519.273438 292.617188 515.621094 298.21875 515.449219 302.820312 C 515.402344 304.042969 514.941406 307.933594 511.992188 312.21875 C 511.707031 312.632812 511.777344 313.1875 512.164062 313.523438 L 515.054688 316.046875 C 515.253906 316.21875 515.363281 316.464844 515.371094 316.722656 C 515.402344 318.347656 515.515625 324.351562 515.722656 325.464844 C 515.964844 326.753906 517.015625 327.886719 517.539062 328.160156 C 518.914062 328.882812 524.828125 328.066406 524.828125 328.066406 C 524.828125 328.066406 526.414062 328.195312 529.625 336.585938 C 533.089844 345.648438 526.152344 349.164062 526.152344 349.164062 C 523.550781 350.558594 523.964844 353.15625 526.808594 354.027344 C 536.617188 357.027344 555.65625 360.277344 566.710938 351.925781 C 568.789062 350.359375 567.910156 348.695312 566.125 348.296875 C 539.746094 342.453125 551.980469 314.789062 551.433594 314.652344 C 550.023438 314.296875 541.878906 305.90625 537.136719 303.546875 C 533.902344 301.9375 530.03125 304.359375 527.386719 301.902344 L 519.273438 292.617188 " fill-opacity="1" fill-rule="nonzero"/><path fill="#0a122e" d="M 551.777344 313.292969 C 551.789062 313.296875 551.804688 313.300781 551.824219 313.304688 C 551.804688 313.300781 551.789062 313.296875 551.777344 313.292969 Z M 514.117188 317.109375 L 514.132812 317.109375 Z M 524.824219 326.664062 C 524.863281 326.664062 524.902344 326.664062 524.9375 326.667969 C 525.550781 326.71875 527.410156 326.871094 530.933594 336.089844 C 534.804688 346.214844 526.867188 350.382812 526.785156 350.421875 C 526.164062 350.753906 525.789062 351.199219 525.820312 351.574219 C 525.855469 351.921875 526.300781 352.402344 527.214844 352.683594 C 531.515625 354.003906 553.566406 360.09375 565.863281 350.808594 C 566.40625 350.398438 566.511719 350.101562 566.507812 350.050781 C 566.492188 349.992188 566.289062 349.78125 565.824219 349.671875 C 558.613281 348.074219 553.464844 344.738281 550.523438 339.753906 C 545.261719 330.835938 548.660156 319.316406 549.777344 315.53125 C 549.792969 315.472656 549.8125 315.40625 549.835938 315.34375 C 549.039062 314.777344 547.914062 313.796875 546.054688 312.171875 C 543.136719 309.621094 539.136719 306.117188 536.511719 304.804688 C 535.378906 304.242188 534.027344 304.328125 532.601562 304.421875 C 530.59375 304.542969 528.316406 304.6875 526.425781 302.929688 C 526.390625 302.898438 526.355469 302.863281 526.324219 302.832031 L 519.503906 295.011719 C 518.464844 296.914062 516.957031 300.144531 516.851562 302.882812 C 516.808594 304.035156 516.421875 308.101562 513.359375 312.710938 L 515.972656 314.988281 C 516.472656 315.425781 516.765625 316.046875 516.773438 316.703125 C 516.855469 321.222656 516.980469 324.558594 517.105469 325.203125 C 517.257812 326.035156 517.992188 326.800781 518.203125 326.925781 C 518.796875 327.175781 521.8125 327.066406 524.628906 326.675781 C 524.695312 326.667969 524.761719 326.664062 524.824219 326.664062 Z M 547.464844 358.648438 C 537.863281 358.648438 529.007812 356.175781 526.394531 355.378906 C 524.441406 354.78125 523.183594 353.457031 523.027344 351.851562 C 522.875 350.300781 523.792969 348.832031 525.480469 347.929688 C 525.742188 347.796875 531.253906 344.804688 528.308594 337.089844 C 526.25 331.710938 524.957031 330.015625 524.492188 329.527344 C 522.359375 329.800781 518.351562 330.179688 516.882812 329.40625 C 516.054688 328.96875 514.671875 327.5 514.335938 325.722656 C 514.132812 324.621094 514.019531 319.867188 513.964844 316.972656 L 511.234375 314.585938 C 510.316406 313.789062 510.144531 312.429688 510.828125 311.425781 C 513.734375 307.207031 514.011719 303.480469 514.039062 302.773438 C 514.230469 297.839844 517.9375 292.09375 518.09375 291.851562 C 518.335938 291.484375 518.734375 291.246094 519.175781 291.214844 C 519.613281 291.179688 520.046875 291.359375 520.332031 291.695312 L 528.390625 300.917969 C 529.332031 301.761719 530.546875 301.730469 532.425781 301.613281 C 534.082031 301.511719 535.957031 301.390625 537.757812 302.289062 C 540.714844 303.757812 544.703125 307.253906 547.90625 310.054688 C 549.425781 311.390625 551.3125 313.046875 551.847656 313.3125 C 552.1875 313.417969 552.484375 313.660156 552.65625 313.964844 C 552.996094 314.554688 552.875 314.96875 552.472656 316.328125 C 551.445312 319.824219 548.308594 330.460938 552.941406 338.320312 C 555.480469 342.613281 560.011719 345.507812 566.429688 346.929688 C 567.902344 347.261719 568.988281 348.222656 569.257812 349.453125 C 569.417969 350.195312 569.414062 351.65625 567.554688 353.050781 C 561.90625 357.324219 554.488281 358.648438 547.464844 358.648438 " fill-opacity="1" fill-rule="nonzero"/><path fill="#0a122e" d="M 512.230469 312.949219 C 512.203125 312.949219 512.175781 312.949219 512.148438 312.949219 C 510.75 312.863281 509.574219 312.253906 508.746094 311.183594 C 506.480469 308.273438 507.457031 302.757812 507.578125 302.140625 C 507.714844 301.402344 508.421875 300.90625 509.160156 301.011719 L 529.871094 304.03125 C 530.640625 304.140625 531.171875 304.855469 531.0625 305.621094 C 530.945312 306.390625 530.230469 306.925781 529.46875 306.8125 L 510.164062 304 C 510.007812 305.707031 510.015625 308.246094 510.964844 309.464844 C 511.304688 309.898438 511.71875 310.105469 512.316406 310.144531 C 513.09375 310.1875 513.683594 310.855469 513.632812 311.628906 C 513.585938 312.375 512.96875 312.949219 512.230469 312.949219 " fill-opacity="1" fill-rule="nonzero"/><path fill="#0a122e" d="M 529.785156 315.203125 C 529.097656 315.203125 528.480469 315.113281 527.992188 314.972656 C 527.25 314.757812 526.816406 313.980469 527.027344 313.234375 C 527.242188 312.488281 528.015625 312.0625 528.761719 312.269531 C 529.136719 312.367188 532.429688 313.121094 533.953125 309.25 C 534.515625 307.824219 534.425781 306.699219 533.710938 306.160156 C 533.03125 305.648438 531.722656 305.613281 530.527344 306.535156 C 530.320312 306.691406 529.785156 307.414062 529.394531 308.054688 C 528.992188 308.71875 528.132812 308.929688 527.46875 308.527344 C 526.804688 308.125 526.589844 307.261719 526.988281 306.597656 C 527.226562 306.207031 528.058594 304.886719 528.8125 304.304688 C 530.882812 302.714844 533.59375 302.550781 535.398438 303.914062 C 537.179688 305.25 537.617188 307.628906 536.570312 310.277344 C 535.035156 314.175781 532.039062 315.203125 529.785156 315.203125 " fill-opacity="1" fill-rule="nonzero"/><path fill="#0a122e" d="M 511.496094 278.917969 C 513.359375 275.710938 515.371094 272.953125 521.605469 271.652344 C 525.871094 270.765625 532.878906 273.84375 536.347656 277.445312 C 536.640625 277.746094 537.09375 277.75 537.332031 277.449219 C 538.0625 276.507812 539.785156 274.386719 541.335938 274.183594 C 545.816406 273.597656 550.484375 279.363281 552.152344 282.335938 C 553.375 284.507812 555.441406 289.425781 556.519531 295.15625 C 556.582031 295.511719 556.914062 295.773438 557.269531 295.734375 C 558.621094 295.589844 561.332031 295.570312 563.761719 297.324219 C 568.089844 300.449219 567.675781 305.109375 567.632812 305.679688 C 567.125 312.316406 560.441406 317.289062 555.359375 320.003906 C 551.910156 321.847656 550.613281 322.117188 548.578125 322.613281 C 548.460938 322.644531 548.339844 322.632812 548.222656 322.597656 C 546.421875 322.878906 543.355469 323.054688 539.925781 321.90625 C 534.476562 320.085938 534.785156 311.078125 534.785156 311.078125 L 535.449219 309.371094 C 535.851562 308.34375 535.898438 307.183594 535.46875 306.15625 C 534.152344 303.042969 529.449219 305.445312 529.277344 305.410156 C 520.363281 303.667969 517.195312 301.097656 515.558594 299.34375 C 509.699219 293.058594 506.980469 286.683594 511.496094 278.917969 " fill-opacity="1" fill-rule="nonzero"/></svg>