<svg xmlns="http://www.w3.org/2000/svg" xmlns:xlink="http://www.w3.org/1999/xlink" width="1080" zoomAndPan="magnify" viewBox="0 0 810 809.999993" height="1080" preserveAspectRatio="xMidYMid meet" version="1.0"><path fill="#d4e9ff" d="M 90.621094 424.121094 C 148.773438 365.355469 44.472656 254.441406 64.9375 173.367188 C 96.125 49.8125 411.667969 -11.964844 611.894531 98.578125 C 611.90625 98.585938 611.914062 98.589844 611.925781 98.597656 C 691.96875 142.796875 755.53125 222.550781 782.632812 309.023438 C 795.925781 351.460938 800.332031 397.378906 789.457031 440.847656 C 780.359375 477.21875 759.179688 507.238281 733.425781 534.027344 C 709.191406 559.242188 674.984375 582.640625 669.351562 619.554688 C 666.523438 638.078125 672.058594 656.691406 675.726562 675.066406 C 705.0625 822.027344 434.648438 805.738281 348.34375 792.597656 C 312.488281 787.136719 130.753906 755.375 63.910156 623.429688 C 58.734375 613.21875 9.796875 514.609375 55.847656 459.75 C 71.816406 440.726562 75.113281 439.785156 90.621094 424.121094 " fill-opacity="1" fill-rule="nonzero"/><path fill="#7cb4f1" d="M 286.707031 612.925781 L 83.941406 612.925781 C 76.851562 612.925781 71.101562 607.179688 71.101562 600.089844 C 71.101562 593 76.851562 587.246094 83.941406 587.246094 L 286.707031 587.246094 C 293.796875 587.246094 299.546875 593 299.546875 600.089844 C 299.546875 607.179688 293.796875 612.925781 286.707031 612.925781 " fill-opacity="1" fill-rule="nonzero"/><path fill="#7cb4f1" d="M 721.386719 378.964844 L 518.621094 378.964844 C 511.53125 378.964844 505.777344 373.21875 505.777344 366.125 C 505.777344 359.03125 511.53125 353.289062 518.621094 353.289062 L 721.386719 353.289062 C 728.480469 353.289062 734.230469 359.03125 734.230469 366.125 C 734.230469 373.21875 728.480469 378.964844 721.386719 378.964844 " fill-opacity="1" fill-rule="nonzero"/><path fill="#7cb4f1" d="M 761.738281 442.261719 L 558.972656 442.261719 C 551.882812 442.261719 546.132812 436.515625 546.132812 429.425781 C 546.132812 422.332031 551.882812 416.582031 558.972656 416.582031 L 761.738281 416.582031 C 768.832031 416.582031 774.582031 422.332031 774.582031 429.425781 C 774.582031 436.515625 768.832031 442.261719 761.738281 442.261719 " fill-opacity="1" fill-rule="nonzero"/><path fill="#7cb4f1" d="M 326.148438 560.640625 L 123.382812 560.640625 C 116.292969 560.640625 110.542969 554.886719 110.542969 547.796875 C 110.542969 540.707031 116.292969 534.957031 123.382812 534.957031 L 326.148438 534.957031 C 333.246094 534.957031 338.992188 540.707031 338.992188 547.796875 C 338.992188 554.886719 333.246094 560.640625 326.148438 560.640625 " fill-opacity="1" fill-rule="nonzero"/><path fill="#7cb4f1" d="M 143.296875 477.375 C 133.6875 477.695312 125.636719 470.164062 125.320312 460.539062 C 125.003906 450.925781 132.539062 442.871094 142.148438 442.546875 C 151.761719 442.226562 159.808594 449.765625 160.128906 459.382812 C 160.445312 469 152.910156 477.058594 143.296875 477.375 Z M 177.808594 462.179688 L 177.585938 455.414062 L 170.328125 454.027344 C 169.996094 452.46875 169.542969 450.957031 168.96875 449.511719 L 174.222656 444.324219 L 170.648438 438.582031 L 163.667969 441.011719 C 162.613281 439.84375 161.464844 438.769531 160.230469 437.792969 L 162.191406 430.667969 L 156.226562 427.476562 L 151.402344 433.066406 C 149.921875 432.589844 148.386719 432.238281 146.8125 432.003906 L 144.949219 424.851562 L 138.1875 425.078125 L 136.800781 432.339844 C 135.246094 432.671875 133.738281 433.128906 132.292969 433.703125 L 127.109375 428.449219 L 121.367188 432.023438 L 123.792969 439.007812 C 122.628906 440.066406 121.550781 441.214844 120.578125 442.449219 L 113.453125 440.488281 L 110.265625 446.460938 L 115.847656 451.285156 C 115.371094 452.765625 115.015625 454.304688 114.789062 455.878906 L 107.636719 457.746094 L 107.863281 464.507812 L 115.117188 465.894531 C 115.449219 467.453125 115.902344 468.964844 116.480469 470.410156 L 111.226562 475.597656 L 114.800781 481.339844 L 121.78125 478.910156 C 122.832031 480.074219 123.984375 481.152344 125.214844 482.128906 L 123.253906 489.253906 L 129.21875 492.445312 L 134.042969 486.855469 C 135.527344 487.335938 137.0625 487.691406 138.636719 487.917969 L 140.5 495.070312 L 147.257812 494.84375 L 148.644531 487.582031 C 150.203125 487.25 151.710938 486.792969 153.15625 486.21875 L 158.339844 491.476562 L 164.082031 487.898438 L 161.652344 480.914062 C 162.820312 479.855469 163.894531 478.707031 164.871094 477.472656 L 171.996094 479.433594 L 175.183594 473.460938 L 169.597656 468.640625 C 170.078125 467.15625 170.429688 465.617188 170.660156 464.046875 L 177.808594 462.179688 " fill-opacity="1" fill-rule="nonzero"/><path fill="#1567c1" d="M 225.011719 377.066406 C 211.6875 378.644531 199.601562 369.121094 198.023438 355.792969 C 196.449219 342.46875 205.972656 330.382812 219.296875 328.808594 C 232.625 327.230469 244.707031 336.753906 246.285156 350.078125 C 247.863281 363.40625 238.339844 375.492188 225.011719 377.066406 Z M 271.203125 351.882812 L 270.09375 342.507812 L 259.835938 341.4375 C 259.191406 339.316406 258.382812 337.273438 257.410156 335.328125 L 264.101562 327.503906 L 258.453125 319.941406 L 249.039062 324.140625 C 247.433594 322.644531 245.707031 321.28125 243.878906 320.074219 L 245.765625 309.933594 L 237.089844 306.210938 L 231.046875 314.542969 C 228.929688 314.054688 226.75 313.742188 224.535156 313.609375 L 221.101562 303.894531 L 211.726562 305 L 210.65625 315.253906 C 208.53125 315.898438 206.488281 316.710938 204.542969 317.683594 L 196.71875 310.992188 L 189.15625 316.636719 L 193.355469 326.054688 C 191.863281 327.660156 190.5 329.386719 189.292969 331.214844 L 179.152344 329.328125 L 175.425781 338 L 183.761719 344.046875 C 183.269531 346.167969 182.960938 348.339844 182.832031 350.558594 L 173.109375 353.992188 L 174.21875 363.367188 L 184.472656 364.4375 C 185.117188 366.558594 185.929688 368.605469 186.902344 370.550781 L 180.207031 378.371094 L 185.855469 385.9375 L 195.273438 381.738281 C 196.875 383.234375 198.601562 384.59375 200.433594 385.804688 L 198.546875 395.941406 L 207.21875 399.664062 L 213.265625 391.332031 C 215.382812 391.820312 217.558594 392.128906 219.773438 392.261719 L 223.210938 401.984375 L 232.582031 400.871094 L 233.65625 390.621094 C 235.78125 389.972656 237.820312 389.167969 239.765625 388.191406 L 247.59375 394.882812 L 255.15625 389.238281 L 250.953125 379.820312 C 252.449219 378.214844 253.808594 376.488281 255.019531 374.660156 L 265.160156 376.546875 L 268.882812 367.875 L 260.546875 361.828125 C 261.039062 359.710938 261.347656 357.535156 261.480469 355.316406 L 271.203125 351.882812 " fill-opacity="1" fill-rule="nonzero"/><path fill="#ffffff" d="M 218.523438 327.136719 C 217.628906 327.136719 216.726562 327.191406 215.8125 327.300781 C 203.261719 328.785156 194.257812 340.207031 195.746094 352.757812 C 197.230469 365.3125 208.648438 374.308594 221.203125 372.828125 C 233.757812 371.339844 242.757812 359.921875 241.273438 347.367188 C 239.894531 335.726562 229.96875 327.136719 218.523438 327.136719 Z M 218.488281 375.738281 C 205.671875 375.738281 194.554688 366.121094 193.011719 353.082031 C 191.347656 339.023438 201.429688 326.230469 215.488281 324.566406 C 229.546875 322.902344 242.339844 332.984375 244.007812 347.046875 C 245.667969 361.101562 235.585938 373.894531 221.527344 375.5625 C 220.507812 375.683594 219.492188 375.738281 218.488281 375.738281 Z M 209.617188 387.082031 C 209.722656 387.082031 209.824219 387.09375 209.929688 387.117188 C 211.953125 387.585938 214.066406 387.890625 216.210938 388.011719 C 216.761719 388.046875 217.242188 388.410156 217.425781 388.929688 L 220.492188 397.613281 L 227.683594 396.761719 L 228.640625 387.601562 C 228.695312 387.050781 229.078125 386.589844 229.605469 386.429688 C 231.660156 385.804688 233.644531 385.015625 235.503906 384.085938 C 236 383.835938 236.59375 383.914062 237.015625 384.273438 L 244.003906 390.25 L 249.804688 385.921875 L 246.050781 377.503906 C 245.824219 377 245.925781 376.410156 246.300781 376.003906 C 247.738281 374.460938 249.058594 372.789062 250.226562 371.03125 C 250.53125 370.566406 251.082031 370.332031 251.625 370.4375 L 260.679688 372.121094 L 263.539062 365.46875 L 256.09375 360.066406 C 255.648438 359.742188 255.4375 359.183594 255.5625 358.644531 C 256.03125 356.617188 256.335938 354.5 256.460938 352.359375 C 256.496094 351.808594 256.855469 351.328125 257.375 351.144531 L 266.058594 348.078125 L 265.207031 340.886719 L 256.046875 339.933594 C 255.496094 339.875 255.035156 339.496094 254.875 338.964844 C 254.25 336.914062 253.464844 334.929688 252.53125 333.066406 C 252.285156 332.574219 252.359375 331.976562 252.71875 331.558594 L 258.695312 324.566406 L 254.363281 318.765625 L 245.953125 322.523438 C 245.445312 322.746094 244.855469 322.648438 244.453125 322.269531 C 242.90625 320.832031 241.234375 319.511719 239.472656 318.347656 C 239.011719 318.039062 238.777344 317.488281 238.878906 316.945312 L 240.5625 307.890625 L 233.910156 305.03125 L 228.511719 312.476562 C 228.1875 312.921875 227.628906 313.136719 227.089844 313.011719 C 225.058594 312.539062 222.945312 312.234375 220.808594 312.113281 C 220.253906 312.078125 219.773438 311.714844 219.59375 311.195312 L 216.523438 302.511719 L 209.335938 303.367188 L 208.375 312.527344 C 208.320312 313.070312 207.9375 313.535156 207.410156 313.699219 C 205.359375 314.320312 203.375 315.109375 201.511719 316.039062 C 201.015625 316.285156 200.425781 316.210938 200.003906 315.851562 L 193.011719 309.875 L 187.214844 314.207031 L 190.964844 322.621094 C 191.191406 323.125 191.09375 323.71875 190.714844 324.117188 C 189.273438 325.664062 187.957031 327.335938 186.792969 329.097656 C 186.484375 329.558594 185.933594 329.789062 185.394531 329.691406 L 176.335938 328.007812 L 173.480469 334.660156 L 180.921875 340.058594 C 181.371094 340.382812 181.578125 340.945312 181.453125 341.484375 C 180.984375 343.507812 180.683594 345.621094 180.554688 347.761719 C 180.523438 348.316406 180.164062 348.796875 179.640625 348.980469 L 170.957031 352.050781 L 171.808594 359.238281 L 180.96875 360.195312 C 181.519531 360.253906 181.980469 360.632812 182.140625 361.160156 C 182.765625 363.21875 183.554688 365.199219 184.484375 367.0625 C 184.730469 367.554688 184.660156 368.148438 184.300781 368.570312 L 178.320312 375.558594 L 182.652344 381.359375 L 191.066406 377.605469 C 191.570312 377.382812 192.160156 377.476562 192.566406 377.855469 C 194.109375 379.292969 195.785156 380.617188 197.542969 381.78125 C 198.003906 382.085938 198.238281 382.636719 198.136719 383.179688 L 196.453125 392.234375 L 203.105469 395.089844 L 208.503906 387.648438 C 208.765625 387.289062 209.183594 387.082031 209.617188 387.082031 Z M 219.5625 400.488281 C 218.984375 400.488281 218.460938 400.121094 218.265625 399.566406 L 215.132812 390.695312 C 213.460938 390.5625 211.808594 390.328125 210.203125 389.992188 L 204.683594 397.601562 C 204.308594 398.117188 203.621094 398.308594 203.027344 398.058594 L 194.355469 394.328125 C 193.765625 394.074219 193.429688 393.445312 193.546875 392.816406 L 195.265625 383.558594 C 193.90625 382.613281 192.601562 381.585938 191.363281 380.484375 L 182.769531 384.320312 C 182.183594 384.585938 181.492188 384.402344 181.105469 383.886719 L 175.457031 376.324219 C 175.074219 375.804688 175.097656 375.09375 175.515625 374.601562 L 181.621094 367.464844 C 180.921875 365.980469 180.308594 364.429688 179.785156 362.835938 L 170.429688 361.859375 C 169.789062 361.792969 169.28125 361.292969 169.207031 360.652344 L 168.09375 351.277344 C 168.019531 350.640625 168.398438 350.035156 169.003906 349.820312 L 177.875 346.683594 C 178.011719 345.011719 178.246094 343.363281 178.578125 341.757812 L 170.972656 336.238281 C 170.453125 335.863281 170.261719 335.171875 170.515625 334.585938 L 174.242188 325.910156 C 174.496094 325.320312 175.121094 324.984375 175.757812 325.101562 L 185.011719 326.820312 C 185.953125 325.464844 186.984375 324.15625 188.085938 322.921875 L 184.253906 314.324219 C 183.988281 313.734375 184.167969 313.042969 184.6875 312.660156 L 192.25 307.015625 C 192.761719 306.628906 193.476562 306.648438 193.964844 307.070312 L 201.105469 313.175781 C 202.59375 312.476562 204.144531 311.863281 205.734375 311.339844 L 206.710938 301.984375 C 206.777344 301.347656 207.277344 300.835938 207.917969 300.761719 L 217.292969 299.652344 C 217.925781 299.574219 218.535156 299.953125 218.75 300.558594 L 221.886719 309.425781 C 223.554688 309.566406 225.203125 309.800781 226.8125 310.132812 L 232.332031 302.527344 C 232.707031 302.003906 233.398438 301.816406 233.988281 302.066406 L 242.660156 305.796875 C 243.25 306.046875 243.589844 306.679688 243.46875 307.3125 L 241.75 316.5625 C 243.109375 317.511719 244.417969 318.539062 245.652344 319.640625 L 254.246094 315.804688 C 254.835938 315.542969 255.527344 315.722656 255.910156 316.238281 L 261.558594 323.804688 C 261.941406 324.316406 261.917969 325.03125 261.5 325.519531 L 255.394531 332.660156 C 256.09375 334.148438 256.707031 335.695312 257.230469 337.289062 L 266.585938 338.265625 C 267.226562 338.332031 267.734375 338.835938 267.8125 339.472656 L 268.921875 348.847656 C 268.996094 349.484375 268.621094 350.089844 268.011719 350.304688 L 259.144531 353.4375 C 259.007812 355.109375 258.773438 356.761719 258.4375 358.371094 L 266.042969 363.886719 C 266.5625 364.261719 266.753906 364.949219 266.5 365.542969 L 262.777344 374.214844 C 262.523438 374.808594 261.894531 375.140625 261.257812 375.027344 L 252.007812 373.304688 C 251.0625 374.667969 250.03125 375.972656 248.929688 377.207031 L 252.765625 385.804688 C 253.027344 386.386719 252.847656 387.082031 252.332031 387.464844 L 244.769531 393.113281 C 244.253906 393.5 243.539062 393.476562 243.050781 393.054688 L 235.910156 386.949219 C 234.425781 387.648438 232.875 388.261719 231.28125 388.785156 L 230.304688 398.144531 C 230.238281 398.78125 229.738281 399.289062 229.097656 399.367188 L 219.726562 400.472656 C 219.671875 400.480469 219.617188 400.488281 219.5625 400.488281 " fill-opacity="1" fill-rule="nonzero"/><path fill="#1567c1" d="M 180.0625 254.707031 C 158.273438 261.957031 134.730469 250.164062 127.484375 228.375 C 120.238281 206.585938 132.027344 183.042969 153.816406 175.796875 C 175.609375 168.550781 199.144531 180.335938 206.394531 202.128906 C 213.640625 223.917969 201.851562 247.457031 180.0625 254.707031 Z M 248.773438 196.542969 L 243.675781 181.21875 L 226.121094 182.964844 C 224.308594 179.625 222.242188 176.480469 219.945312 173.5625 L 228.457031 158.132812 L 216.378906 147.410156 L 202.046875 157.699219 C 198.839844 155.746094 195.480469 154.066406 191.996094 152.667969 L 191.65625 135.023438 L 175.835938 131.777344 L 168.578125 147.835938 C 164.863281 147.742188 161.105469 147.976562 157.347656 148.519531 L 148.234375 133.417969 L 132.90625 138.511719 L 134.652344 156.070312 C 131.316406 157.882812 128.171875 159.949219 125.246094 162.246094 L 109.820312 153.734375 L 99.097656 165.8125 L 109.390625 180.144531 C 107.4375 183.347656 105.753906 186.710938 104.355469 190.195312 L 86.714844 190.539062 L 83.464844 206.359375 L 99.523438 213.613281 C 99.433594 217.332031 99.664062 221.085938 100.207031 224.84375 L 85.105469 233.960938 L 90.203125 249.285156 L 107.757812 247.535156 C 109.574219 250.878906 111.636719 254.019531 113.933594 256.945312 L 105.421875 272.367188 L 117.5 283.09375 L 131.832031 272.800781 C 135.035156 274.753906 138.398438 276.4375 141.882812 277.835938 L 142.222656 295.476562 L 158.046875 298.726562 L 165.300781 282.667969 C 169.015625 282.757812 172.773438 282.53125 176.53125 281.984375 L 185.648438 297.085938 L 200.972656 291.992188 L 199.226562 274.4375 C 202.5625 272.621094 205.710938 270.554688 208.632812 268.253906 L 224.058594 276.769531 L 234.785156 264.691406 L 224.488281 250.363281 C 226.445312 247.15625 228.125 243.796875 229.523438 240.308594 L 247.164062 239.96875 L 250.414062 224.148438 L 234.355469 216.890625 C 234.445312 213.171875 234.214844 209.414062 233.671875 205.660156 L 248.773438 196.542969 " fill-opacity="1" fill-rule="nonzero"/><path fill="#ffffff" d="M 175.851562 252.378906 L 175.863281 252.378906 Z M 162.769531 172.699219 C 158.5 172.699219 154.210938 173.386719 150.042969 174.773438 C 139.851562 178.164062 131.589844 185.320312 126.78125 194.921875 C 121.972656 204.523438 121.191406 215.421875 124.582031 225.613281 C 131.578125 246.648438 154.382812 258.070312 175.417969 251.074219 C 185.609375 247.683594 193.867188 240.527344 198.679688 230.925781 C 203.488281 221.324219 204.265625 210.421875 200.878906 200.234375 C 197.492188 190.046875 190.335938 181.785156 180.734375 176.972656 C 175.058594 174.136719 168.933594 172.699219 162.769531 172.699219 Z M 162.761719 255.886719 C 144.761719 255.886719 127.953125 244.476562 121.96875 226.484375 C 118.347656 215.59375 119.183594 203.945312 124.320312 193.6875 C 129.460938 183.429688 138.285156 175.78125 149.171875 172.164062 C 160.058594 168.542969 171.707031 169.375 181.964844 174.511719 C 192.226562 179.652344 199.871094 188.476562 203.488281 199.367188 C 210.964844 221.84375 198.761719 246.207031 176.289062 253.683594 C 171.804688 255.171875 167.246094 255.886719 162.761719 255.886719 Z M 139.367188 292.023438 L 153.035156 294.828125 L 159.835938 279.773438 C 160.066406 279.269531 160.570312 278.933594 161.125 278.964844 C 164.734375 279.050781 168.4375 278.828125 172.125 278.292969 C 172.671875 278.214844 173.214844 278.472656 173.5 278.945312 L 182.046875 293.109375 L 195.285156 288.703125 L 193.648438 272.246094 C 193.589844 271.691406 193.871094 271.164062 194.359375 270.898438 C 197.632812 269.117188 200.730469 267.082031 203.574219 264.847656 C 204.007812 264.503906 204.605469 264.453125 205.085938 264.722656 L 219.550781 272.707031 L 228.816406 262.273438 L 219.164062 248.832031 C 218.839844 248.386719 218.816406 247.789062 219.105469 247.316406 C 221.011719 244.1875 222.671875 240.875 224.035156 237.46875 C 224.242188 236.957031 224.734375 236.617188 225.285156 236.609375 L 241.828125 236.285156 L 244.632812 222.621094 L 229.582031 215.816406 C 229.074219 215.585938 228.757812 215.078125 228.769531 214.527344 C 228.859375 210.917969 228.632812 207.214844 228.097656 203.527344 C 228.019531 202.980469 228.273438 202.4375 228.75 202.152344 L 242.914062 193.605469 L 238.507812 180.367188 L 222.050781 182.007812 C 221.5 182.058594 220.96875 181.78125 220.703125 181.296875 C 218.925781 178.019531 216.886719 174.921875 214.652344 172.082031 C 214.3125 171.644531 214.261719 171.046875 214.53125 170.5625 L 222.511719 156.101562 L 212.078125 146.839844 L 198.640625 156.492188 C 198.191406 156.816406 197.59375 156.835938 197.121094 156.546875 C 193.992188 154.640625 190.679688 152.980469 187.273438 151.617188 C 186.761719 151.414062 186.421875 150.917969 186.410156 150.367188 L 186.089844 133.824219 L 172.425781 131.019531 L 165.621094 146.074219 C 165.394531 146.578125 164.867188 146.890625 164.335938 146.878906 C 160.714844 146.792969 157.015625 147.019531 153.335938 147.550781 C 152.785156 147.636719 152.246094 147.378906 151.957031 146.90625 L 143.414062 132.742188 L 130.175781 137.144531 L 131.8125 153.605469 C 131.867188 154.15625 131.585938 154.683594 131.101562 154.949219 C 127.832031 156.726562 124.730469 158.761719 121.886719 160.996094 C 121.453125 161.339844 120.855469 161.390625 120.371094 161.121094 L 105.910156 153.140625 L 96.644531 163.574219 L 106.296875 177.015625 C 106.621094 177.460938 106.640625 178.058594 106.355469 178.53125 C 104.445312 181.664062 102.789062 184.976562 101.421875 188.378906 C 101.21875 188.890625 100.726562 189.230469 100.171875 189.238281 L 83.628906 189.5625 L 80.824219 203.226562 L 95.878906 210.03125 C 96.382812 210.257812 96.699219 210.765625 96.6875 211.320312 C 96.601562 214.9375 96.824219 218.636719 97.359375 222.320312 C 97.4375 222.867188 97.183594 223.410156 96.710938 223.695312 L 82.546875 232.238281 L 86.953125 245.480469 L 103.410156 243.84375 C 103.960938 243.785156 104.492188 244.066406 104.753906 244.550781 C 106.535156 247.828125 108.570312 250.925781 110.808594 253.761719 C 111.148438 254.203125 111.195312 254.792969 110.929688 255.28125 L 102.949219 269.742188 L 113.378906 279.007812 L 126.820312 269.355469 C 127.269531 269.039062 127.867188 269.011719 128.339844 269.300781 C 131.46875 271.207031 134.78125 272.867188 138.183594 274.230469 C 138.695312 274.433594 139.039062 274.929688 139.046875 275.480469 Z M 153.835938 297.773438 C 153.746094 297.773438 153.652344 297.765625 153.558594 297.746094 L 137.738281 294.5 C 137.105469 294.367188 136.648438 293.820312 136.636719 293.179688 L 136.316406 276.4375 C 133.347656 275.203125 130.453125 273.753906 127.691406 272.121094 L 114.09375 281.886719 C 113.570312 282.261719 112.855469 282.222656 112.375 281.792969 L 100.296875 271.074219 C 99.816406 270.644531 99.695312 269.941406 100.007812 269.378906 L 108.082031 254.746094 C 106.152344 252.21875 104.375 249.511719 102.78125 246.667969 L 86.128906 248.324219 C 85.488281 248.386719 84.890625 248 84.6875 247.394531 L 79.589844 232.066406 C 79.386719 231.453125 79.632812 230.785156 80.183594 230.453125 L 94.511719 221.808594 C 94.085938 218.582031 93.886719 215.34375 93.921875 212.167969 L 78.6875 205.285156 C 78.101562 205.019531 77.777344 204.382812 77.910156 203.75 L 81.15625 187.929688 C 81.285156 187.300781 81.835938 186.84375 82.476562 186.835938 L 99.214844 186.507812 C 100.449219 183.542969 101.898438 180.648438 103.535156 177.886719 L 93.769531 164.285156 C 93.394531 163.761719 93.429688 163.050781 93.859375 162.574219 L 104.582031 150.492188 C 105.007812 150.011719 105.710938 149.894531 106.273438 150.203125 L 120.910156 158.273438 C 123.4375 156.347656 126.144531 154.5625 128.984375 152.976562 L 127.328125 136.324219 C 127.261719 135.679688 127.652344 135.082031 128.261719 134.878906 L 143.585938 129.777344 C 144.199219 129.578125 144.867188 129.824219 145.199219 130.375 L 153.847656 144.703125 C 157.070312 144.28125 160.3125 144.082031 163.488281 144.117188 L 170.371094 128.882812 C 170.636719 128.296875 171.273438 127.972656 171.902344 128.101562 L 187.722656 131.347656 C 188.355469 131.476562 188.808594 132.027344 188.820312 132.671875 L 189.144531 149.410156 C 192.113281 150.644531 195.003906 152.09375 197.769531 153.730469 L 211.367188 143.960938 C 211.890625 143.585938 212.601562 143.621094 213.082031 144.050781 L 225.164062 154.773438 C 225.644531 155.203125 225.761719 155.902344 225.453125 156.464844 L 217.375 171.101562 C 219.308594 173.628906 221.085938 176.335938 222.679688 179.179688 L 239.332031 177.519531 C 239.964844 177.460938 240.570312 177.84375 240.773438 178.453125 L 245.871094 193.78125 C 246.074219 194.394531 245.828125 195.0625 245.277344 195.394531 L 230.949219 204.039062 C 231.375 207.265625 231.570312 210.503906 231.539062 213.679688 L 246.769531 220.5625 C 247.355469 220.828125 247.679688 221.464844 247.550781 222.097656 L 244.300781 237.917969 C 244.171875 238.546875 243.625 239.003906 242.980469 239.019531 L 226.246094 239.34375 C 225.007812 242.304688 223.558594 245.203125 221.925781 247.960938 L 231.691406 261.5625 C 232.066406 262.085938 232.03125 262.796875 231.601562 263.277344 L 220.878906 275.355469 C 220.449219 275.832031 219.746094 275.957031 219.183594 275.644531 L 204.550781 267.574219 C 202.023438 269.5 199.3125 271.28125 196.476562 272.871094 L 198.132812 289.523438 C 198.195312 290.164062 197.808594 290.761719 197.199219 290.96875 L 181.871094 296.066406 C 181.261719 296.265625 180.589844 296.023438 180.257812 295.46875 L 171.613281 281.144531 C 168.382812 281.566406 165.152344 281.765625 161.972656 281.734375 L 155.089844 296.964844 C 154.863281 297.46875 154.367188 297.773438 153.835938 297.773438 " fill-opacity="1" fill-rule="nonzero"/><path fill="#ffffff" d="M 92.996094 141.070312 C 92.582031 141.070312 92.171875 140.882812 91.902344 140.527344 C 91.441406 139.925781 91.558594 139.0625 92.160156 138.601562 C 93.621094 137.492188 95.132812 136.390625 96.664062 135.328125 C 97.285156 134.902344 98.144531 135.058594 98.578125 135.679688 C 99.011719 136.304688 98.851562 137.160156 98.226562 137.597656 C 96.734375 138.628906 95.253906 139.703125 93.832031 140.789062 C 93.582031 140.976562 93.289062 141.070312 92.996094 141.070312 " fill-opacity="1" fill-rule="nonzero"/><path fill="#ffffff" d="M 165.210938 114.238281 C 164.484375 114.238281 163.878906 113.675781 163.835938 112.941406 C 163.792969 112.183594 164.371094 111.535156 165.128906 111.488281 C 168.644531 111.28125 172.152344 111.230469 175.625 111.335938 C 176.386719 111.363281 176.980469 111.996094 176.957031 112.761719 C 176.933594 113.515625 176.273438 114.121094 175.539062 114.089844 C 172.148438 113.980469 168.722656 114.03125 165.292969 114.234375 C 165.265625 114.238281 165.238281 114.238281 165.210938 114.238281 Z M 196.125 116.769531 C 196.019531 116.769531 195.914062 116.757812 195.804688 116.734375 C 192.53125 115.960938 189.148438 115.34375 185.746094 114.90625 C 184.992188 114.800781 184.460938 114.117188 184.558594 113.359375 C 184.652344 112.609375 185.34375 112.074219 186.097656 112.175781 C 189.597656 112.628906 193.074219 113.257812 196.441406 114.054688 C 197.179688 114.234375 197.636719 114.976562 197.460938 115.714844 C 197.3125 116.34375 196.746094 116.769531 196.125 116.769531 Z M 144.691406 117.1875 C 144.0625 117.1875 143.496094 116.753906 143.347656 116.113281 C 143.179688 115.371094 143.644531 114.636719 144.386719 114.46875 C 147.8125 113.691406 151.28125 113.046875 154.695312 112.550781 C 155.445312 112.4375 156.144531 112.960938 156.25 113.714844 C 156.359375 114.46875 155.839844 115.167969 155.085938 115.277344 C 151.746094 115.757812 148.351562 116.386719 144.996094 117.152344 C 144.894531 117.171875 144.789062 117.1875 144.691406 117.1875 Z M 124.878906 123.296875 C 124.332031 123.296875 123.8125 122.964844 123.597656 122.425781 C 123.324219 121.714844 123.671875 120.917969 124.378906 120.644531 C 127.621094 119.367188 130.945312 118.203125 134.261719 117.175781 C 134.988281 116.953125 135.757812 117.359375 135.984375 118.085938 C 136.210938 118.8125 135.800781 119.582031 135.078125 119.804688 C 131.824219 120.808594 128.5625 121.953125 125.382812 123.203125 C 125.21875 123.265625 125.046875 123.296875 124.878906 123.296875 Z M 215.613281 123.742188 C 215.40625 123.742188 215.203125 123.699219 215.007812 123.601562 C 211.976562 122.113281 208.8125 120.773438 205.601562 119.632812 C 204.886719 119.371094 204.515625 118.585938 204.769531 117.875 C 205.023438 117.15625 205.8125 116.78125 206.527344 117.039062 C 209.835938 118.21875 213.097656 119.59375 216.222656 121.136719 C 216.902344 121.472656 217.183594 122.296875 216.847656 122.976562 C 216.609375 123.464844 216.121094 123.742188 215.613281 123.742188 Z M 106.207031 132.292969 C 105.730469 132.292969 105.269531 132.046875 105.015625 131.605469 C 104.632812 130.949219 104.859375 130.105469 105.515625 129.726562 C 108.507812 127.992188 111.625 126.34375 114.777344 124.832031 C 115.460938 124.5 116.285156 124.785156 116.613281 125.472656 C 116.945312 126.15625 116.65625 126.980469 115.96875 127.304688 C 112.878906 128.796875 109.828125 130.414062 106.894531 132.109375 C 106.679688 132.230469 106.441406 132.292969 106.207031 132.292969 Z M 233 134.988281 C 232.691406 134.988281 232.382812 134.878906 232.125 134.671875 C 229.496094 132.5 226.722656 130.472656 223.886719 128.636719 C 223.25 128.226562 223.066406 127.371094 223.480469 126.738281 C 223.890625 126.097656 224.742188 125.914062 225.378906 126.324219 C 228.304688 128.214844 231.164062 130.308594 233.875 132.546875 C 234.460938 133.03125 234.546875 133.898438 234.0625 134.484375 C 233.789062 134.8125 233.398438 134.988281 233 134.988281 " fill-opacity="1" fill-rule="nonzero"/><path fill="#ffffff" d="M 244.378906 146.109375 C 243.992188 146.109375 243.609375 145.945312 243.339844 145.632812 C 242.148438 144.261719 240.914062 142.914062 239.671875 141.632812 C 239.140625 141.089844 239.152344 140.21875 239.699219 139.6875 C 240.242188 139.15625 241.113281 139.171875 241.644531 139.71875 C 242.925781 141.035156 244.195312 142.417969 245.417969 143.828125 C 245.914062 144.402344 245.855469 145.273438 245.28125 145.769531 C 245.019531 145.996094 244.699219 146.109375 244.378906 146.109375 " fill-opacity="1" fill-rule="nonzero"/><path fill="#ffffff" d="M 147.761719 366.34375 C 147.171875 366.34375 146.621094 365.957031 146.445312 365.359375 C 145.480469 362.125 144.988281 359.3125 144.988281 356.996094 C 144.988281 355.75 145.136719 354.652344 145.425781 353.726562 C 145.652344 353 146.421875 352.597656 147.152344 352.824219 C 147.875 353.050781 148.28125 353.820312 148.054688 354.546875 C 147.847656 355.207031 147.742188 356.027344 147.742188 356.996094 C 147.742188 359.015625 148.203125 361.636719 149.082031 364.578125 C 149.296875 365.300781 148.882812 366.070312 148.15625 366.285156 C 148.023438 366.328125 147.890625 366.34375 147.761719 366.34375 Z M 157.222656 386.179688 C 156.765625 386.179688 156.320312 385.957031 156.058594 385.542969 C 154.011719 382.316406 152.171875 379.035156 150.597656 375.796875 C 150.265625 375.113281 150.550781 374.292969 151.234375 373.960938 C 151.914062 373.628906 152.742188 373.910156 153.074219 374.59375 C 154.601562 377.738281 156.386719 380.925781 158.382812 384.070312 C 158.789062 384.707031 158.597656 385.558594 157.957031 385.96875 C 157.730469 386.113281 157.472656 386.179688 157.222656 386.179688 Z M 170.882812 403.414062 C 170.53125 403.414062 170.171875 403.277344 169.90625 403.007812 C 167.34375 400.414062 164.859375 397.597656 162.515625 394.640625 C 162.046875 394.042969 162.144531 393.179688 162.742188 392.707031 C 163.339844 392.234375 164.203125 392.335938 164.675781 392.933594 C 166.953125 395.808594 169.371094 398.550781 171.863281 401.070312 C 172.398438 401.613281 172.394531 402.484375 171.851562 403.019531 C 171.582031 403.285156 171.234375 403.414062 170.882812 403.414062 Z M 188.183594 416.933594 C 187.953125 416.933594 187.71875 416.875 187.503906 416.75 C 184.363281 414.957031 181.242188 412.847656 178.226562 410.46875 C 177.628906 409.996094 177.527344 409.132812 177.996094 408.535156 C 178.464844 407.941406 179.328125 407.839844 179.925781 408.308594 C 182.839844 410.601562 185.847656 412.636719 188.867188 414.363281 C 189.527344 414.738281 189.757812 415.578125 189.378906 416.238281 C 189.125 416.683594 188.664062 416.933594 188.183594 416.933594 Z M 208.828125 424.136719 C 208.765625 424.136719 208.703125 424.128906 208.640625 424.121094 C 204.988281 423.628906 201.304688 422.730469 197.703125 421.453125 C 196.984375 421.199219 196.609375 420.410156 196.863281 419.695312 C 197.117188 418.980469 197.902344 418.601562 198.621094 418.859375 C 202.046875 420.074219 205.542969 420.925781 209.011719 421.394531 C 209.761719 421.492188 210.292969 422.191406 210.1875 422.941406 C 210.09375 423.632812 209.503906 424.136719 208.828125 424.136719 " fill-opacity="1" fill-rule="nonzero"/><path fill="#000000" d="M 711.34375 241.492188 C 710.582031 241.492188 709.960938 240.878906 709.960938 240.121094 L 709.960938 233 C 709.960938 232.242188 710.582031 231.625 711.34375 231.625 C 712.097656 231.625 712.71875 232.242188 712.71875 233 L 712.71875 240.121094 C 712.71875 240.878906 712.097656 241.492188 711.34375 241.492188 " fill-opacity="1" fill-rule="nonzero"/><path fill="#000000" d="M 711.34375 258.070312 C 710.582031 258.070312 709.960938 257.457031 709.960938 256.695312 L 709.960938 249.578125 C 709.960938 248.816406 710.582031 248.203125 711.34375 248.203125 C 712.097656 248.203125 712.71875 248.816406 712.71875 249.578125 L 712.71875 256.695312 C 712.71875 257.457031 712.097656 258.070312 711.34375 258.070312 " fill-opacity="1" fill-rule="nonzero"/><path fill="#000000" d="M 706.609375 246.226562 L 699.492188 246.226562 C 698.738281 246.226562 698.117188 245.609375 698.117188 244.847656 C 698.117188 244.085938 698.738281 243.476562 699.492188 243.476562 L 706.609375 243.476562 C 707.367188 243.476562 707.984375 244.085938 707.984375 244.847656 C 707.984375 245.609375 707.367188 246.226562 706.609375 246.226562 " fill-opacity="1" fill-rule="nonzero"/><path fill="#000000" d="M 723.183594 246.226562 L 716.070312 246.226562 C 715.308594 246.226562 714.695312 245.609375 714.695312 244.847656 C 714.695312 244.089844 715.308594 243.472656 716.070312 243.472656 L 723.183594 243.472656 C 723.945312 243.472656 724.558594 244.089844 724.558594 244.847656 C 724.558594 245.609375 723.945312 246.226562 723.183594 246.226562 " fill-opacity="1" fill-rule="nonzero"/><path fill="#000000" d="M 56.335938 519.460938 C 55.574219 519.460938 54.957031 518.84375 54.957031 518.085938 L 54.957031 510.96875 C 54.957031 510.210938 55.574219 509.59375 56.335938 509.59375 C 57.09375 509.59375 57.710938 510.210938 57.710938 510.96875 L 57.710938 518.085938 C 57.710938 518.84375 57.09375 519.460938 56.335938 519.460938 " fill-opacity="1" fill-rule="nonzero"/><path fill="#000000" d="M 56.335938 536.039062 C 55.574219 536.039062 54.957031 535.421875 54.957031 534.660156 L 54.957031 527.546875 C 54.957031 526.789062 55.574219 526.167969 56.335938 526.167969 C 57.09375 526.167969 57.710938 526.789062 57.710938 527.546875 L 57.710938 534.660156 C 57.710938 535.421875 57.09375 536.039062 56.335938 536.039062 " fill-opacity="1" fill-rule="nonzero"/><path fill="#000000" d="M 51.605469 524.191406 L 44.488281 524.191406 C 43.726562 524.191406 43.113281 523.578125 43.113281 522.8125 C 43.113281 522.054688 43.726562 521.441406 44.488281 521.441406 L 51.605469 521.441406 C 52.363281 521.441406 52.980469 522.054688 52.980469 522.8125 C 52.980469 523.578125 52.363281 524.191406 51.605469 524.191406 " fill-opacity="1" fill-rule="nonzero"/><path fill="#000000" d="M 68.179688 524.191406 L 61.066406 524.191406 C 60.304688 524.191406 59.6875 523.578125 59.6875 522.8125 C 59.6875 522.054688 60.304688 521.441406 61.066406 521.441406 L 68.179688 521.441406 C 68.941406 521.441406 69.558594 522.054688 69.558594 522.8125 C 69.558594 523.578125 68.941406 524.191406 68.179688 524.191406 " fill-opacity="1" fill-rule="nonzero"/><path fill="#000000" d="M 67.132812 477.285156 C 63.003906 479.140625 61.128906 484.082031 62.949219 488.308594 C 63.835938 490.363281 65.457031 491.941406 67.515625 492.738281 C 69.527344 493.519531 71.714844 493.460938 73.6875 492.578125 C 77.8125 490.726562 79.691406 485.78125 77.871094 481.558594 C 76.980469 479.5 75.359375 477.925781 73.304688 477.125 C 71.292969 476.34375 69.101562 476.402344 67.132812 477.285156 Z M 70.410156 496.039062 C 69.097656 496.039062 67.78125 495.792969 66.519531 495.300781 C 63.769531 494.238281 61.605469 492.140625 60.421875 489.394531 C 58.007812 483.800781 60.511719 477.238281 66.003906 474.777344 C 68.652344 473.585938 71.597656 473.511719 74.300781 474.5625 C 77.050781 475.628906 79.214844 477.730469 80.398438 480.46875 C 82.8125 486.0625 80.304688 492.625 74.8125 495.089844 C 73.402344 495.71875 71.910156 496.039062 70.410156 496.039062 " fill-opacity="1" fill-rule="nonzero"/><path fill="#000000" d="M 730.386719 276.382812 C 726.171875 278.277344 724.25 283.328125 726.113281 287.636719 C 727.019531 289.746094 728.679688 291.351562 730.777344 292.167969 C 732.832031 292.964844 735.070312 292.910156 737.085938 292.003906 C 741.300781 290.109375 743.21875 285.058594 741.359375 280.75 C 740.453125 278.640625 738.792969 277.03125 736.691406 276.222656 C 734.640625 275.417969 732.402344 275.476562 730.386719 276.382812 Z M 733.738281 295.480469 C 732.402344 295.480469 731.0625 295.230469 729.78125 294.730469 C 726.988281 293.648438 724.792969 291.511719 723.589844 288.730469 C 721.132812 283.042969 723.679688 276.375 729.257812 273.875 C 731.949219 272.664062 734.945312 272.585938 737.691406 273.65625 C 740.480469 274.738281 742.683594 276.871094 743.882812 279.65625 C 746.335938 285.34375 743.789062 292.007812 738.210938 294.511719 C 736.777344 295.15625 735.257812 295.480469 733.738281 295.480469 " fill-opacity="1" fill-rule="nonzero"/><path fill="#1567c1" d="M 585.867188 767.808594 L 242.023438 767.808594 C 227.210938 767.808594 216.714844 755.832031 218.582031 741.066406 L 303.246094 72.222656 C 305.117188 57.449219 318.644531 45.472656 333.460938 45.472656 L 660.035156 41.660156 C 697.523438 41.660156 702.609375 57.449219 700.742188 72.222656 L 616.078125 741.066406 C 614.203125 755.832031 600.679688 767.808594 585.867188 767.808594 " fill-opacity="1" fill-rule="nonzero"/><path fill="#ffffff" d="M 565.175781 767.808594 L 221.335938 767.808594 C 206.519531 767.808594 196.023438 755.792969 197.890625 740.976562 L 282.558594 70.003906 C 284.425781 55.1875 297.953125 43.171875 312.769531 43.171875 L 656.609375 43.171875 C 671.425781 43.171875 681.917969 55.1875 680.046875 70.003906 L 595.386719 740.976562 C 593.515625 755.792969 579.992188 767.808594 565.175781 767.808594 " fill-opacity="1" fill-rule="nonzero"/><path fill="#7cb4f1" d="M 217.484375 741.902344 L 298.324219 101.234375 C 298.757812 97.816406 301.878906 95.042969 305.300781 95.042969 L 650.984375 95.042969 C 654.40625 95.042969 656.828125 97.816406 656.394531 101.234375 L 575.558594 741.902344 C 575.128906 745.324219 572.003906 748.097656 568.585938 748.097656 L 222.898438 748.097656 C 219.476562 748.097656 217.054688 745.324219 217.484375 741.902344 " fill-opacity="1" fill-rule="nonzero"/><path fill="#d4e9ff" d="M 480.378906 77.300781 C 474.832031 77.300781 470.898438 72.800781 471.597656 67.25 C 472.296875 61.699219 477.363281 57.199219 482.917969 57.199219 C 488.46875 57.199219 492.398438 61.699219 491.699219 67.25 C 491.003906 72.800781 485.9375 77.300781 480.378906 77.300781 " fill-opacity="1" fill-rule="nonzero"/><path fill="#000000" d="M 512.566406 769.183594 L 221.335938 769.183594 C 213.808594 769.183594 207.082031 766.25 202.390625 760.9375 C 197.652344 755.558594 195.566406 748.410156 196.527344 740.804688 L 211.601562 621.351562 C 211.695312 620.601562 212.378906 620.070312 213.136719 620.164062 C 213.890625 620.257812 214.425781 620.945312 214.328125 621.703125 L 199.257812 741.152344 C 198.398438 747.960938 200.242188 754.339844 204.457031 759.113281 C 208.613281 763.832031 214.609375 766.429688 221.335938 766.429688 L 512.566406 766.429688 C 513.328125 766.429688 513.941406 767.046875 513.941406 767.808594 C 513.941406 768.566406 513.328125 769.183594 512.566406 769.183594 " fill-opacity="1" fill-rule="nonzero"/><path fill="#000000" d="M 212.3125 626.105469 C 212.253906 626.105469 212.195312 626.105469 212.136719 626.097656 C 211.382812 626.003906 210.851562 625.3125 210.945312 624.558594 L 281.1875 69.835938 C 283.140625 54.378906 297.304688 41.800781 312.765625 41.800781 L 656.605469 41.800781 C 664.132812 41.800781 670.855469 44.734375 675.550781 50.046875 C 680.292969 55.425781 682.375 62.574219 681.410156 70.175781 L 646.019531 355.527344 C 645.925781 356.285156 645.238281 356.816406 644.488281 356.71875 C 643.734375 356.628906 643.199219 355.941406 643.289062 355.1875 L 678.683594 69.835938 C 679.539062 63.027344 677.695312 56.648438 673.484375 51.871094 C 669.324219 47.152344 663.332031 44.558594 656.605469 44.558594 L 312.765625 44.558594 C 298.644531 44.558594 285.703125 56.046875 283.917969 70.175781 L 213.675781 624.902344 C 213.585938 625.601562 212.996094 626.105469 212.3125 626.105469 " fill-opacity="1" fill-rule="nonzero"/><path fill="#d4e9ff" d="M 341.199219 275.082031 L 309.664062 275.082031 C 305.722656 275.082031 302.917969 271.945312 303.40625 268.074219 L 307.296875 237.113281 C 307.785156 233.242188 311.375 230.105469 315.320312 230.105469 L 346.851562 230.105469 C 350.796875 230.105469 353.601562 233.242188 353.113281 237.113281 L 349.222656 268.074219 C 348.734375 271.945312 345.144531 275.082031 341.199219 275.082031 " fill-opacity="1" fill-rule="nonzero"/><path fill="#000000" d="M 315.320312 231.480469 C 312.054688 231.480469 309.066406 234.082031 308.664062 237.285156 L 304.773438 268.242188 C 304.585938 269.707031 304.984375 271.070312 305.882812 272.09375 C 306.800781 273.132812 308.144531 273.707031 309.667969 273.707031 L 341.199219 273.707031 C 344.472656 273.707031 347.453125 271.101562 347.855469 267.898438 L 351.746094 236.941406 C 351.933594 235.480469 351.539062 234.113281 350.636719 233.09375 C 349.71875 232.050781 348.375 231.480469 346.851562 231.480469 Z M 341.199219 276.457031 L 309.667969 276.457031 C 307.34375 276.457031 305.269531 275.554688 303.820312 273.914062 C 302.390625 272.292969 301.757812 270.15625 302.042969 267.898438 L 305.933594 236.941406 C 306.503906 232.414062 310.714844 228.726562 315.320312 228.726562 L 346.851562 228.726562 C 349.175781 228.726562 351.253906 229.628906 352.703125 231.273438 C 354.132812 232.890625 354.761719 235.027344 354.480469 237.285156 L 350.585938 268.242188 C 350.019531 272.773438 345.808594 276.457031 341.199219 276.457031 " fill-opacity="1" fill-rule="nonzero"/><path fill="#d4e9ff" d="M 331.058594 357.398438 L 299.523438 357.398438 C 295.582031 357.398438 292.777344 354.261719 293.265625 350.390625 L 297.15625 319.433594 C 297.644531 315.558594 301.234375 312.421875 305.179688 312.421875 L 336.714844 312.421875 C 340.65625 312.421875 343.457031 315.558594 342.972656 319.433594 L 339.082031 350.390625 C 338.59375 354.261719 335 357.398438 331.058594 357.398438 " fill-opacity="1" fill-rule="nonzero"/><path fill="#000000" d="M 305.179688 313.796875 C 301.910156 313.796875 298.925781 316.402344 298.523438 319.601562 L 294.632812 350.5625 C 294.445312 352.023438 294.84375 353.390625 295.742188 354.410156 C 296.660156 355.449219 298.003906 356.023438 299.523438 356.023438 L 331.058594 356.023438 C 334.328125 356.023438 337.3125 353.417969 337.714844 350.21875 L 341.605469 319.257812 C 341.789062 317.800781 341.394531 316.429688 340.496094 315.410156 C 339.574219 314.371094 338.234375 313.796875 336.714844 313.796875 Z M 331.058594 358.777344 L 299.523438 358.777344 C 297.203125 358.777344 295.125 357.871094 293.679688 356.230469 C 292.25 354.609375 291.617188 352.472656 291.898438 350.21875 L 295.789062 319.257812 C 296.359375 314.730469 300.574219 311.046875 305.179688 311.046875 L 336.714844 311.046875 C 339.035156 311.046875 341.109375 311.949219 342.5625 313.589844 C 343.988281 315.210938 344.621094 317.347656 344.335938 319.601562 L 340.449219 350.5625 C 339.878906 355.089844 335.664062 358.777344 331.058594 358.777344 " fill-opacity="1" fill-rule="nonzero"/><path fill="#1567c1" d="M 313.148438 352.324219 C 312.527344 352.324219 311.902344 352.238281 311.285156 352.058594 C 309.035156 351.410156 307.324219 349.617188 306.785156 347.347656 L 303.078125 333.351562 C 302.367188 330.664062 303.96875 327.902344 306.664062 327.1875 C 309.359375 326.46875 312.121094 328.078125 312.835938 330.773438 L 314.753906 338.039062 L 328.675781 319.816406 C 330.367188 317.601562 333.535156 317.179688 335.75 318.867188 C 337.960938 320.5625 338.386719 323.726562 336.695312 325.9375 L 318.339844 349.96875 L 318.140625 350.175781 C 316.800781 351.570312 314.992188 352.324219 313.148438 352.324219 " fill-opacity="1" fill-rule="nonzero"/><path fill="#d4e9ff" d="M 321.308594 440.738281 L 289.773438 440.738281 C 285.828125 440.738281 283.027344 437.597656 283.511719 433.726562 L 287.402344 402.765625 C 287.890625 398.898438 291.484375 395.757812 295.425781 395.757812 L 326.960938 395.757812 C 330.90625 395.757812 333.710938 398.898438 333.21875 402.765625 L 329.328125 433.726562 C 328.839844 437.597656 325.25 440.738281 321.308594 440.738281 " fill-opacity="1" fill-rule="nonzero"/><path fill="#000000" d="M 295.425781 397.132812 C 292.15625 397.132812 289.171875 399.738281 288.769531 402.941406 L 284.878906 433.894531 C 284.695312 435.359375 285.089844 436.726562 285.988281 437.746094 C 286.910156 438.789062 288.25 439.359375 289.773438 439.359375 L 321.308594 439.359375 C 324.574219 439.359375 327.558594 436.757812 327.964844 433.554688 L 331.855469 402.597656 C 332.039062 401.136719 331.644531 399.769531 330.742188 398.75 C 329.828125 397.707031 328.484375 397.132812 326.960938 397.132812 Z M 321.308594 442.113281 L 289.773438 442.113281 C 287.449219 442.113281 285.375 441.210938 283.925781 439.566406 C 282.496094 437.945312 281.863281 435.808594 282.148438 433.554688 L 286.039062 402.597656 C 286.609375 398.070312 290.820312 394.382812 295.425781 394.382812 L 326.960938 394.382812 C 329.285156 394.382812 331.355469 395.289062 332.808594 396.929688 C 334.238281 398.550781 334.867188 400.6875 334.582031 402.941406 L 330.691406 433.894531 C 330.125 438.429688 325.914062 442.113281 321.308594 442.113281 " fill-opacity="1" fill-rule="nonzero"/><path fill="#d4e9ff" d="M 311.9375 523.816406 L 280.402344 523.816406 C 276.460938 523.816406 273.65625 520.679688 274.144531 516.804688 L 278.035156 485.847656 C 278.523438 481.980469 282.113281 478.839844 286.058594 478.839844 L 317.589844 478.839844 C 321.535156 478.839844 324.335938 481.980469 323.851562 485.847656 L 319.960938 516.804688 C 319.472656 520.679688 315.882812 523.816406 311.9375 523.816406 " fill-opacity="1" fill-rule="nonzero"/><path fill="#000000" d="M 286.058594 480.21875 C 282.789062 480.21875 279.804688 482.820312 279.402344 486.023438 L 275.507812 516.980469 C 275.324219 518.441406 275.722656 519.808594 276.621094 520.828125 C 277.539062 521.871094 278.882812 522.441406 280.402344 522.441406 L 311.9375 522.441406 C 315.207031 522.441406 318.191406 519.835938 318.59375 516.636719 L 322.488281 485.679688 C 322.671875 484.21875 322.277344 482.851562 321.375 481.828125 C 320.457031 480.789062 319.113281 480.21875 317.589844 480.21875 Z M 311.9375 525.195312 L 280.402344 525.195312 C 278.082031 525.195312 276.003906 524.292969 274.558594 522.648438 C 273.125 521.027344 272.496094 518.890625 272.78125 516.636719 L 276.671875 485.679688 C 277.238281 481.152344 281.453125 477.464844 286.058594 477.464844 L 317.589844 477.464844 C 319.914062 477.464844 321.992188 478.367188 323.4375 480.011719 C 324.867188 481.628906 325.5 483.765625 325.21875 486.023438 L 321.328125 516.980469 C 320.753906 521.507812 316.546875 525.195312 311.9375 525.195312 " fill-opacity="1" fill-rule="nonzero"/><path fill="#d4e9ff" d="M 604.320312 240.351562 L 379.15625 240.351562 C 375.859375 240.351562 373.582031 237.238281 374.058594 233.394531 C 374.542969 229.546875 377.605469 226.429688 380.898438 226.429688 L 606.0625 226.429688 C 609.355469 226.429688 611.640625 229.546875 611.15625 233.394531 C 610.675781 237.238281 607.613281 240.351562 604.320312 240.351562 " fill-opacity="1" fill-rule="nonzero"/><path fill="#d4e9ff" d="M 568.019531 276.234375 L 374.695312 276.234375 C 371.402344 276.234375 369.117188 273.117188 369.601562 269.273438 C 370.082031 265.429688 373.148438 262.316406 376.4375 262.316406 L 569.765625 262.316406 C 573.058594 262.316406 575.34375 265.429688 574.859375 269.273438 C 574.378906 273.117188 571.316406 276.234375 568.019531 276.234375 " fill-opacity="1" fill-rule="nonzero"/><path fill="#d4e9ff" d="M 577.378906 325.316406 L 368.78125 325.316406 C 365.488281 325.316406 363.203125 322.199219 363.6875 318.355469 C 364.167969 314.511719 367.234375 311.394531 370.523438 311.394531 L 579.121094 311.394531 C 582.417969 311.394531 584.699219 314.511719 584.214844 318.355469 C 583.738281 322.199219 580.675781 325.316406 577.378906 325.316406 " fill-opacity="1" fill-rule="nonzero"/><path fill="#d4e9ff" d="M 481.960938 360.527344 L 364.617188 360.527344 C 361.324219 360.527344 359.039062 357.40625 359.523438 353.5625 C 360.003906 349.71875 363.066406 346.605469 366.363281 346.605469 L 483.707031 346.605469 C 487 346.605469 489.28125 349.71875 488.800781 353.5625 C 488.320312 357.40625 485.253906 360.527344 481.960938 360.527344 " fill-opacity="1" fill-rule="nonzero"/><path fill="#d4e9ff" d="M 583.597656 405.886719 L 358.4375 405.886719 C 355.136719 405.886719 352.859375 402.777344 353.339844 398.925781 C 353.820312 395.082031 356.882812 391.96875 360.175781 391.96875 L 585.335938 391.96875 C 588.636719 391.96875 590.914062 395.082031 590.433594 398.925781 C 589.957031 402.777344 586.890625 405.886719 583.597656 405.886719 " fill-opacity="1" fill-rule="nonzero"/><path fill="#d4e9ff" d="M 547.300781 441.769531 L 353.976562 441.769531 C 350.679688 441.769531 348.398438 438.652344 348.882812 434.808594 C 349.363281 430.964844 352.421875 427.847656 355.71875 427.847656 L 549.042969 427.847656 C 552.339844 427.847656 554.621094 430.964844 554.136719 434.808594 C 553.65625 438.652344 550.597656 441.769531 547.300781 441.769531 " fill-opacity="1" fill-rule="nonzero"/><path fill="#d4e9ff" d="M 568.171875 490.847656 L 347.585938 490.847656 C 344.289062 490.847656 342.011719 487.734375 342.488281 483.890625 C 342.972656 480.046875 346.035156 476.929688 349.332031 476.929688 L 569.914062 476.929688 C 573.210938 476.929688 575.492188 480.046875 575.011719 483.890625 C 574.53125 487.734375 571.464844 490.847656 568.171875 490.847656 " fill-opacity="1" fill-rule="nonzero"/><path fill="#d4e9ff" d="M 461.546875 523.609375 L 344.203125 523.609375 C 340.90625 523.609375 338.625 520.496094 339.109375 516.652344 C 339.589844 512.808594 342.648438 509.691406 345.945312 509.691406 L 463.289062 509.691406 C 466.585938 509.691406 468.867188 512.808594 468.382812 516.652344 C 467.902344 520.496094 464.84375 523.609375 461.546875 523.609375 " fill-opacity="1" fill-rule="nonzero"/><path fill="#d4e9ff" d="M 470.882812 723.175781 L 324.996094 723.175781 C 323.371094 723.175781 322.257812 721.847656 322.496094 720.203125 L 343.710938 577.238281 C 344.027344 575.078125 346.019531 573.328125 348.15625 573.328125 L 493.085938 573.328125 C 494.894531 573.328125 496.140625 574.8125 495.871094 576.644531 L 474.617188 719.898438 C 474.347656 721.707031 472.675781 723.175781 470.882812 723.175781 " fill-opacity="1" fill-rule="nonzero"/><path fill="#ffffff" d="M 489.671875 617.878906 L 337.679688 617.878906 L 343.84375 576.339844 C 344.089844 574.675781 345.621094 573.328125 347.261719 573.328125 L 493.492188 573.328125 C 495.035156 573.328125 496.09375 574.59375 495.863281 576.15625 L 489.671875 617.878906 " fill-opacity="1" fill-rule="nonzero"/><path fill="#7cb4f1" d="M 444.503906 595.632812 L 389.363281 595.632812 C 386.664062 595.632812 384.800781 593.417969 385.207031 590.683594 C 385.617188 587.949219 388.132812 585.734375 390.835938 585.734375 L 445.972656 585.734375 C 448.675781 585.734375 450.539062 587.949219 450.132812 590.683594 C 449.726562 593.417969 447.207031 595.632812 444.503906 595.632812 " fill-opacity="1" fill-rule="nonzero"/><path fill="#ffffff" d="M 441.078125 668.074219 C 440.707031 686.121094 425.773438 700.445312 407.734375 700.070312 C 389.691406 699.699219 375.363281 684.773438 375.734375 666.726562 C 376.109375 648.683594 391.039062 634.355469 409.082031 634.730469 C 427.121094 635.101562 441.449219 650.03125 441.078125 668.074219 " fill-opacity="1" fill-rule="nonzero"/><path fill="#000000" d="M 408.386719 636.097656 C 400.273438 636.097656 392.605469 639.179688 386.734375 644.816406 C 380.699219 650.601562 377.285156 658.394531 377.109375 666.753906 C 376.753906 684.011719 390.503906 698.339844 407.761719 698.695312 C 416.132812 698.863281 424.046875 695.777344 430.078125 689.988281 C 436.109375 684.199219 439.527344 676.40625 439.703125 668.046875 L 441.078125 668.078125 L 439.703125 668.046875 C 440.054688 650.789062 426.308594 636.464844 409.050781 636.109375 C 408.832031 636.101562 408.609375 636.097656 408.386719 636.097656 Z M 408.425781 701.453125 C 408.183594 701.453125 407.945312 701.453125 407.703125 701.449219 C 398.609375 701.261719 390.132812 697.542969 383.835938 690.976562 C 377.539062 684.414062 374.171875 675.792969 374.363281 666.699219 C 374.546875 657.601562 378.265625 649.128906 384.828125 642.828125 C 391.390625 636.535156 400.015625 633.167969 409.109375 633.355469 C 427.882812 633.746094 442.835938 649.332031 442.453125 668.101562 C 442.265625 677.195312 438.546875 685.675781 431.984375 691.976562 C 425.59375 698.101562 417.253906 701.453125 408.425781 701.453125 " fill-opacity="1" fill-rule="nonzero"/><path fill="#000000" d="M 405.757812 682.992188 C 405.238281 682.992188 404.75 682.695312 404.519531 682.21875 L 394.433594 661.394531 C 394.101562 660.707031 394.390625 659.886719 395.074219 659.558594 C 395.757812 659.226562 396.578125 659.511719 396.910156 660.195312 L 405.398438 677.714844 C 408.75 666 412.949219 657.316406 418.175781 651.238281 C 418.671875 650.660156 419.542969 650.59375 420.117188 651.089844 C 420.695312 651.585938 420.761719 652.453125 420.261719 653.027344 C 414.871094 659.292969 410.441406 669.03125 407.089844 681.964844 C 406.945312 682.519531 406.46875 682.929688 405.894531 682.988281 C 405.847656 682.992188 405.804688 682.992188 405.757812 682.992188 " fill-opacity="1" fill-rule="nonzero"/><path fill="#ffffff" d="M 558.734375 748.207031 L 561.371094 776.222656 C 561.460938 777.011719 560.929688 777.734375 560.234375 777.78125 L 546.324219 778.636719 C 545.71875 778.675781 545.203125 778.195312 545.121094 777.515625 L 542.535156 752.054688 L 558.734375 748.207031 " fill-opacity="1" fill-rule="nonzero"/><path fill="#000000" d="M 544.023438 753.109375 L 546.476562 777.25 L 560.007812 776.414062 C 560.007812 776.402344 560.007812 776.390625 560.007812 776.375 L 557.507812 749.910156 Z M 546.25 780.019531 C 544.984375 780.019531 543.925781 779.039062 543.753906 777.6875 L 541.164062 752.191406 C 541.097656 751.507812 541.542969 750.871094 542.21875 750.714844 L 558.414062 746.867188 C 558.800781 746.777344 559.210938 746.851562 559.535156 747.085938 C 559.855469 747.320312 560.0625 747.679688 560.101562 748.078125 L 562.742188 776.09375 C 562.824219 776.855469 562.59375 777.648438 562.097656 778.234375 C 561.636719 778.78125 561.007812 779.109375 560.316406 779.152344 L 546.40625 780.011719 C 546.355469 780.015625 546.300781 780.019531 546.25 780.019531 " fill-opacity="1" fill-rule="nonzero"/><path fill="#1567c1" d="M 563.5625 768.96875 C 564.488281 772.28125 566.4375 781.605469 567.25 787.214844 C 567.761719 790.738281 565.539062 794.066406 562.132812 794.988281 C 552.503906 797.589844 529.496094 797.480469 510.339844 798.324219 C 509.023438 798.382812 506.605469 797.746094 505.53125 794.566406 C 501.886719 783.785156 522.023438 780.445312 541.925781 769.480469 C 542.316406 769.265625 542.792969 769.289062 543.15625 769.546875 C 543.386719 769.710938 543.675781 769.910156 544.019531 770.128906 C 547.484375 772.332031 553.238281 772.332031 556.753906 770.21875 L 560.722656 767.832031 C 561.8125 767.175781 563.21875 767.734375 563.5625 768.96875 " fill-opacity="1" fill-rule="nonzero"/><path fill="#000000" d="M 542.472656 770.75 C 536.417969 774.078125 530.335938 776.707031 524.96875 779.035156 C 512.027344 784.640625 504.800781 788.105469 506.835938 794.125 C 507.78125 796.921875 509.867188 796.964844 510.277344 796.953125 C 515.195312 796.730469 520.425781 796.578125 525.488281 796.425781 C 539.882812 796 554.769531 795.554688 561.773438 793.660156 C 564.53125 792.914062 566.296875 790.230469 565.890625 787.414062 C 565.109375 782.050781 563.171875 772.683594 562.238281 769.339844 C 562.171875 769.105469 562.003906 769.007812 561.914062 768.972656 C 561.816406 768.933594 561.632812 768.886719 561.433594 769.007812 L 557.464844 771.398438 C 553.492188 773.785156 547.132812 773.738281 543.28125 771.289062 C 542.972656 771.089844 542.699219 770.910156 542.472656 770.75 Z M 510.171875 799.707031 C 508.113281 799.707031 505.402344 798.488281 504.230469 795.003906 C 501.28125 786.292969 511.253906 781.976562 523.875 776.507812 C 529.222656 774.191406 535.285156 771.570312 541.261719 768.273438 C 542.113281 767.808594 543.171875 767.863281 543.953125 768.421875 C 544.171875 768.578125 544.4375 768.765625 544.757812 768.96875 C 547.765625 770.878906 552.929688 770.910156 556.046875 769.042969 L 560.015625 766.652344 C 560.90625 766.117188 561.964844 766.027344 562.929688 766.414062 C 563.894531 766.800781 564.609375 767.59375 564.890625 768.597656 C 565.851562 772.050781 567.796875 781.414062 568.613281 787.015625 C 569.21875 791.210938 566.589844 795.207031 562.488281 796.316406 C 555.175781 798.296875 540.792969 798.722656 525.570312 799.179688 C 520.519531 799.328125 515.292969 799.484375 510.398438 799.703125 C 510.324219 799.703125 510.246094 799.707031 510.171875 799.707031 " fill-opacity="1" fill-rule="nonzero"/><path fill="#ffffff" d="M 567.828125 789.757812 C 567.851562 789.851562 567.863281 789.925781 567.867188 789.953125 C 568.378906 793.472656 565.035156 795.640625 561.839844 797.136719 C 552.355469 801.589844 514.054688 799.039062 512.574219 798.933594 C 512.542969 798.933594 512.523438 798.933594 512.496094 798.933594 C 512.019531 798.941406 507.15625 798.941406 505.753906 795.921875 C 505.578125 795.542969 505.46875 795.015625 505.410156 794.519531 C 505.300781 793.710938 505.355469 792.886719 505.53125 792.09375 C 505.675781 791.445312 506.316406 791.039062 506.957031 791.207031 C 514.066406 793.019531 530.664062 793.628906 547.25 791.796875 C 558.28125 790.582031 563.070312 788.179688 565.628906 786.648438 C 566.324219 786.234375 567.214844 786.640625 567.375 787.441406 C 567.507812 788.113281 567.667969 788.925781 567.828125 789.757812 " fill-opacity="1" fill-rule="nonzero"/><path fill="#000000" d="M 512.480469 797.558594 C 512.523438 797.558594 512.621094 797.5625 512.65625 797.5625 C 526.273438 798.488281 553.9375 799.324219 561.253906 795.890625 C 565.191406 794.042969 566.8125 792.269531 566.507812 790.152344 L 566.488281 790.050781 L 567.828125 789.757812 L 566.480469 790.019531 L 566.082031 787.984375 C 563.179688 789.679688 558.085938 791.988281 547.40625 793.167969 C 530.183594 795.0625 513.75 794.292969 506.835938 792.589844 C 506.71875 793.195312 506.699219 793.785156 506.773438 794.339844 C 506.855469 794.976562 506.957031 795.25 507 795.339844 C 507.84375 797.152344 510.976562 797.59375 512.46875 797.558594 C 512.472656 797.558594 512.476562 797.558594 512.480469 797.558594 Z M 536.628906 801.144531 C 525.398438 801.144531 514.609375 800.453125 512.480469 800.3125 C 511.480469 800.332031 506.230469 800.21875 504.503906 796.496094 C 504.292969 796.042969 504.144531 795.457031 504.042969 794.699219 C 503.917969 793.761719 503.96875 792.785156 504.1875 791.792969 C 504.34375 791.117188 504.765625 790.523438 505.351562 790.164062 C 505.941406 789.804688 506.632812 789.699219 507.296875 789.871094 C 513.847656 791.546875 530.023438 792.3125 547.101562 790.429688 C 557.566406 789.277344 562.28125 787.046875 564.917969 785.46875 C 565.628906 785.042969 566.5 784.992188 567.253906 785.328125 C 568.011719 785.667969 568.5625 786.355469 568.726562 787.175781 L 569.183594 789.492188 C 569.183594 789.492188 569.183594 789.492188 569.183594 789.496094 L 567.828125 789.757812 L 569.1875 789.523438 C 569.207031 789.636719 569.222656 789.71875 569.226562 789.753906 C 569.964844 794.84375 564.488281 797.414062 562.421875 798.382812 C 557.800781 800.550781 547.023438 801.144531 536.628906 801.144531 " fill-opacity="1" fill-rule="nonzero"/><path fill="#000000" d="M 540.558594 779.570312 C 540.269531 779.570312 539.972656 779.480469 539.726562 779.289062 L 533.914062 774.863281 C 533.308594 774.402344 533.195312 773.539062 533.65625 772.9375 C 534.113281 772.332031 534.980469 772.214844 535.582031 772.675781 L 541.394531 777.097656 C 541.996094 777.558594 542.113281 778.421875 541.652344 779.027344 C 541.382812 779.382812 540.972656 779.570312 540.558594 779.570312 " fill-opacity="1" fill-rule="nonzero"/><path fill="#000000" d="M 532.839844 782.734375 C 532.550781 782.734375 532.261719 782.648438 532.015625 782.460938 L 526.933594 778.644531 C 526.324219 778.1875 526.199219 777.328125 526.65625 776.71875 C 527.117188 776.113281 527.976562 775.988281 528.582031 776.441406 L 533.667969 780.257812 C 534.277344 780.714844 534.398438 781.578125 533.941406 782.1875 C 533.671875 782.542969 533.261719 782.734375 532.839844 782.734375 " fill-opacity="1" fill-rule="nonzero"/><path fill="#1567c1" d="M 600.082031 489.070312 C 600.082031 489.070312 611.121094 511.164062 614.832031 534.4375 C 618.289062 556.109375 631.003906 645.332031 661.988281 716.894531 C 665.5 725.007812 661.445312 733.449219 652.808594 735.332031 C 649.347656 736.082031 647.902344 734.855469 644.90625 733.398438 C 643.367188 732.648438 640.808594 730.429688 640.808594 730.429688 C 640.808594 730.429688 585.964844 684.59375 563.597656 564.320312 C 549.21875 486.960938 551.613281 493.097656 551.613281 493.097656 L 600.082031 489.070312 " fill-opacity="1" fill-rule="nonzero"/><path fill="#000000" d="M 552.898438 494.367188 C 553.234375 497.925781 555.207031 511.652344 564.957031 564.066406 C 576.453125 625.898438 596.710938 667.554688 611.679688 691.613281 C 627.886719 717.671875 641.5625 729.261719 641.699219 729.375 C 642.390625 729.976562 644.386719 731.609375 645.511719 732.15625 C 646 732.394531 646.449219 732.625 646.871094 732.847656 C 648.957031 733.917969 650.097656 734.511719 652.515625 733.984375 C 656.1875 733.1875 659.070312 731.058594 660.644531 728 C 662.25 724.867188 662.277344 721.019531 660.726562 717.4375 C 631.472656 649.847656 618.453125 566.46875 614.171875 539.066406 C 613.910156 537.378906 613.679688 535.90625 613.480469 534.652344 C 610.246094 514.375 601.269531 494.746094 599.257812 490.519531 Z M 650.855469 736.933594 C 648.792969 736.933594 647.34375 736.183594 645.613281 735.292969 C 645.203125 735.082031 644.777344 734.859375 644.3125 734.632812 C 642.652344 733.828125 640.1875 731.710938 639.914062 731.46875 C 639.363281 731.015625 625.863281 719.582031 609.429688 693.207031 C 594.304688 668.929688 573.84375 626.910156 562.25 564.570312 C 556.992188 536.289062 553.375 515.921875 551.488281 504.042969 C 550.828125 499.863281 550.394531 496.816406 550.207031 494.980469 C 550.023438 493.261719 549.894531 492.015625 551.148438 491.660156 C 551.410156 491.582031 551.707031 491.589844 551.984375 491.683594 L 599.972656 487.695312 C 600.542969 487.644531 601.0625 487.949219 601.3125 488.457031 C 601.425781 488.675781 612.492188 511.003906 616.195312 534.21875 C 616.394531 535.472656 616.628906 536.953125 616.894531 538.644531 C 621.160156 565.960938 634.136719 649.078125 663.253906 716.347656 C 665.132812 720.683594 665.074219 725.390625 663.089844 729.253906 C 661.136719 733.0625 657.59375 735.695312 653.097656 736.671875 C 652.265625 736.855469 651.53125 736.933594 650.855469 736.933594 " fill-opacity="1" fill-rule="nonzero"/><path fill="#1567c1" d="M 584.6875 499.179688 C 584.6875 499.179688 591.125 541.164062 578.945312 572.226562 C 567.238281 602.09375 559.761719 719.179688 564.125 753.007812 C 564.394531 755.136719 562.921875 757.082031 560.796875 757.382812 C 555.46875 758.128906 545.867188 759.144531 539.300781 757.917969 C 538.089844 757.691406 537.117188 756.804688 536.816406 755.613281 C 532.476562 738.449219 496.511719 583.304688 521.871094 503.804688 L 584.6875 499.179688 " fill-opacity="1" fill-rule="nonzero"/><path fill="#7cb4f1" d="M 537.640625 524.769531 C 537.316406 524.769531 537.007812 524.886719 536.753906 525.101562 C 536.472656 525.351562 536.308594 525.695312 536.296875 526.066406 L 535.574219 548.742188 C 535.46875 552 537.328125 554.964844 540.304688 556.296875 L 551.824219 561.453125 C 554.761719 562.773438 558.214844 562.421875 560.824219 560.53125 L 568.28125 555.136719 C 570.253906 553.710938 571.453125 551.503906 571.582031 549.082031 L 572.859375 525.335938 C 572.886719 524.785156 572.597656 524.433594 572.421875 524.273438 C 572.125 524.003906 571.734375 523.875 571.316406 523.9375 C 564.773438 524.886719 551.71875 526.253906 537.785156 524.777344 C 537.738281 524.773438 537.691406 524.769531 537.640625 524.769531 Z M 555.507812 564.996094 C 553.878906 564.996094 552.234375 564.65625 550.695312 563.96875 L 539.175781 558.808594 C 535.179688 557.019531 532.683594 553.035156 532.824219 548.652344 L 533.542969 525.980469 C 533.582031 524.847656 534.09375 523.773438 534.949219 523.027344 C 535.804688 522.285156 536.953125 521.921875 538.078125 522.042969 C 551.710938 523.488281 564.507812 522.140625 570.921875 521.210938 C 572.140625 521.03125 573.371094 521.410156 574.28125 522.246094 C 575.1875 523.074219 575.675781 524.253906 575.609375 525.488281 L 574.332031 549.226562 C 574.15625 552.484375 572.539062 555.449219 569.894531 557.363281 L 562.4375 562.761719 C 560.394531 564.238281 557.960938 564.996094 555.507812 564.996094 " fill-opacity="1" fill-rule="nonzero"/><path fill="#7cb4f1" d="M 611.136719 559.640625 C 610.492188 559.640625 609.839844 559.488281 609.242188 559.183594 L 596.554688 552.734375 C 595.292969 552.097656 594.445312 550.871094 594.300781 549.46875 L 591.4375 523.058594 C 591.199219 520.835938 592.734375 518.828125 594.941406 518.488281 L 606.929688 516.597656 C 607.679688 516.476562 608.386719 516.992188 608.503906 517.742188 C 608.621094 518.492188 608.105469 519.195312 607.355469 519.3125 L 595.367188 521.207031 C 594.617188 521.324219 594.09375 522.003906 594.179688 522.757812 L 597.035156 549.167969 C 597.085938 549.648438 597.375 550.066406 597.804688 550.28125 L 610.492188 556.726562 C 610.960938 556.96875 611.519531 556.925781 611.945312 556.621094 L 614.972656 554.574219 C 615.601562 554.152344 616.457031 554.316406 616.878906 554.945312 C 617.308594 555.574219 617.140625 556.429688 616.519531 556.855469 L 613.511719 558.882812 C 612.8125 559.382812 611.980469 559.640625 611.136719 559.640625 " fill-opacity="1" fill-rule="nonzero"/><path fill="#000000" d="M 546.6875 759.863281 C 543.984375 759.863281 541.335938 759.699219 539.042969 759.269531 C 537.300781 758.945312 535.90625 757.644531 535.480469 755.949219 C 535.054688 754.28125 493.585938 587.945312 520.554688 503.386719 C 520.722656 502.851562 521.207031 502.476562 521.765625 502.433594 L 565.621094 499.207031 C 566.386719 499.15625 567.039062 499.71875 567.097656 500.480469 C 567.152344 501.234375 566.582031 501.894531 565.824219 501.949219 L 522.898438 505.105469 C 496.734375 589.203125 537.726562 753.617188 538.144531 755.277344 C 538.316406 755.941406 538.851562 756.4375 539.550781 756.566406 C 545.953125 757.765625 555.488281 756.734375 560.605469 756.019531 C 561.988281 755.824219 562.933594 754.578125 562.753906 753.1875 C 558.496094 720.191406 565.585938 602.53125 577.660156 571.726562 C 582.386719 559.675781 584.855469 544.582031 585 526.867188 C 585.003906 526.113281 585.617188 525.503906 586.378906 525.503906 C 586.382812 525.503906 586.382812 525.503906 586.390625 525.503906 C 587.148438 525.511719 587.757812 526.132812 587.75 526.890625 C 587.605469 544.941406 585.070312 560.363281 580.226562 572.726562 C 568.257812 603.257812 561.253906 720.050781 565.484375 752.832031 C 565.855469 755.691406 563.832031 758.34375 560.988281 758.742188 C 557.492188 759.238281 551.984375 759.863281 546.6875 759.863281 " fill-opacity="1" fill-rule="nonzero"/><path fill="#ffffff" d="M 652.871094 748.914062 C 651.179688 740.457031 650.449219 738.722656 646.386719 732.203125 C 643.375 727.355469 650.707031 720.050781 654.4375 719.488281 C 660.664062 718.207031 659.671875 720.183594 666.789062 729.308594 L 672.367188 736.167969 C 672.367188 736.167969 654.355469 756.308594 652.871094 748.914062 " fill-opacity="1" fill-rule="nonzero"/><path fill="#000000" d="M 654.519531 751.902344 C 654.242188 751.902344 653.980469 751.875 653.738281 751.804688 C 653.070312 751.625 651.894531 751.039062 651.527344 749.183594 C 650.039062 741.746094 649.574219 739.796875 646.597656 734.832031 C 646.207031 734.175781 646.417969 733.332031 647.070312 732.941406 C 647.71875 732.550781 648.566406 732.761719 648.957031 733.417969 C 652.15625 738.757812 652.691406 740.984375 654.222656 748.644531 C 654.238281 748.722656 654.328125 749.113281 654.457031 749.148438 C 656.515625 749.714844 664.253906 743.011719 670.550781 736.125 L 666.003906 730.582031 C 663.945312 727.9375 662.671875 725.878906 661.542969 723.996094 C 661.148438 723.347656 661.367188 722.5 662.015625 722.109375 C 662.667969 721.71875 663.515625 721.933594 663.90625 722.582031 C 664.992188 724.394531 666.210938 726.367188 668.160156 728.863281 L 673.425781 735.296875 C 673.859375 735.816406 673.847656 736.578125 673.394531 737.082031 C 670.179688 740.679688 659.714844 751.902344 654.519531 751.902344 " fill-opacity="1" fill-rule="nonzero"/><path fill="#1567c1" d="M 651.886719 745.742188 L 659.101562 734.867188 C 662.460938 729.792969 669.617188 729.035156 673.964844 733.292969 L 682.214844 740.21875 C 682.214844 740.21875 683.796875 744.980469 683.292969 748.050781 C 682.640625 752.054688 681.351562 757.757812 678.863281 763.40625 C 675.035156 772.097656 664.433594 789.566406 660.65625 795.707031 C 659.867188 796.988281 657.890625 798.261719 656.511719 797.648438 C 654.871094 796.914062 653.179688 795.597656 651.542969 794.0625 C 649.003906 791.683594 649.859375 780.566406 650.765625 772.828125 C 651.347656 767.867188 650.914062 755.203125 650.703125 749.984375 C 650.640625 748.480469 651.054688 747 651.886719 745.742188 " fill-opacity="1" fill-rule="nonzero"/><path fill="#000000" d="M 651.890625 745.742188 L 651.898438 745.742188 Z M 667.191406 731.902344 C 666.894531 731.902344 666.601562 731.917969 666.308594 731.945312 C 663.828125 732.207031 661.621094 733.550781 660.246094 735.625 L 653.03125 746.503906 C 652.359375 747.527344 652.023438 748.707031 652.078125 749.929688 C 652.289062 755.179688 652.726562 767.933594 652.136719 772.988281 C 650.199219 789.488281 651.914062 792.519531 652.488281 793.058594 C 654.21875 794.683594 655.761719 795.804688 657.074219 796.394531 C 657.578125 796.617188 658.90625 795.929688 659.484375 794.988281 C 662.765625 789.65625 673.757812 771.578125 677.605469 762.851562 C 680.074219 757.257812 681.320312 751.59375 681.9375 747.828125 C 682.269531 745.78125 681.472656 742.503906 681.027344 741.015625 L 673 734.277344 C 671.4375 732.742188 669.355469 731.902344 667.191406 731.902344 Z M 657.316406 799.191406 C 656.855469 799.191406 656.394531 799.105469 655.945312 798.90625 C 654.332031 798.179688 652.585938 796.921875 650.601562 795.066406 C 649.117188 793.675781 647.386719 789.84375 649.402344 772.671875 C 649.96875 767.8125 649.535156 755.226562 649.324219 750.042969 C 649.253906 748.238281 649.738281 746.488281 650.738281 744.984375 L 657.949219 734.109375 C 659.78125 731.339844 662.722656 729.558594 666.015625 729.210938 C 669.300781 728.867188 672.527344 729.980469 674.890625 732.273438 L 683.398438 739.414062 L 683.519531 739.785156 C 683.59375 739.992188 685.199219 744.90625 684.652344 748.273438 C 684.015625 752.195312 682.707031 758.097656 680.125 763.957031 C 676.316406 772.605469 666.0625 789.542969 661.835938 796.425781 C 661.003906 797.769531 659.164062 799.191406 657.316406 799.191406 " fill-opacity="1" fill-rule="nonzero"/><path fill="#000000" d="M 651.027344 759.523438 C 650.421875 759.523438 649.871094 759.117188 649.699219 758.507812 C 649.503906 757.777344 649.929688 757.019531 650.660156 756.816406 L 658.425781 754.6875 C 659.15625 754.484375 659.914062 754.914062 660.113281 755.648438 C 660.316406 756.382812 659.886719 757.136719 659.15625 757.339844 L 651.390625 759.472656 C 651.273438 759.503906 651.148438 759.523438 651.027344 759.523438 " fill-opacity="1" fill-rule="nonzero"/><path fill="#000000" d="M 651.601562 766.449219 C 650.996094 766.449219 650.441406 766.046875 650.273438 765.433594 C 650.070312 764.703125 650.503906 763.945312 651.238281 763.746094 L 659 761.609375 C 659.722656 761.414062 660.488281 761.839844 660.691406 762.574219 C 660.890625 763.308594 660.460938 764.066406 659.722656 764.265625 L 651.96875 766.398438 C 651.84375 766.433594 651.722656 766.449219 651.601562 766.449219 " fill-opacity="1" fill-rule="nonzero"/><path fill="#ffffff" d="M 659.519531 798.21875 C 658.730469 798.21875 657.976562 798.09375 657.292969 797.855469 C 654.976562 797.0625 649.179688 795.332031 649.824219 787.023438 C 650.492188 778.410156 657.042969 774.023438 661.832031 768.371094 C 665.480469 764.058594 665.109375 746.019531 666.257812 742.488281 C 668.316406 736.15625 677.5625 735.203125 682.214844 740.21875 C 685.15625 743.382812 685.5 750.261719 685.214844 755.320312 C 684.679688 764.792969 679.109375 783.644531 672.070312 792.753906 C 668.640625 797.195312 663.34375 798.21875 659.519531 798.21875 " fill-opacity="1" fill-rule="nonzero"/><path fill="#000000" d="M 674.628906 738.386719 C 673.972656 738.386719 673.308594 738.457031 672.65625 738.597656 C 670.128906 739.15625 668.277344 740.726562 667.570312 742.910156 C 667.230469 743.957031 667.003906 746.949219 666.769531 750.121094 C 666.238281 757.226562 665.574219 766.074219 662.878906 769.257812 C 661.742188 770.597656 660.507812 771.875 659.3125 773.109375 C 655.386719 777.164062 651.667969 781 651.195312 787.128906 C 650.652344 794.136719 655.125 795.664062 657.53125 796.484375 L 657.738281 796.554688 C 658.289062 796.746094 658.890625 796.839844 659.515625 796.839844 C 662.375 796.839844 667.664062 796.203125 670.988281 791.910156 C 678.082031 782.726562 683.34375 764.058594 683.84375 755.246094 C 684.21875 748.503906 683.261719 743.367188 681.207031 741.152344 C 679.5625 739.382812 677.125 738.386719 674.628906 738.386719 Z M 659.515625 799.59375 C 658.582031 799.59375 657.679688 799.449219 656.84375 799.15625 L 656.640625 799.089844 C 654.207031 798.257812 647.746094 796.054688 648.449219 786.914062 C 649.003906 779.800781 653.242188 775.425781 657.335938 771.195312 C 658.5 769.992188 659.703125 768.753906 660.777344 767.484375 C 662.898438 764.976562 663.574219 755.910156 664.019531 749.914062 C 664.292969 746.285156 664.511719 743.421875 664.949219 742.0625 C 665.964844 738.925781 668.5625 736.683594 672.066406 735.910156 C 676.117188 735.019531 680.496094 736.34375 683.226562 739.28125 C 686.730469 743.058594 686.835938 751.003906 686.589844 755.402344 C 686.074219 764.5625 680.578125 783.996094 673.160156 793.59375 C 669.121094 798.816406 662.882812 799.59375 659.515625 799.59375 " fill-opacity="1" fill-rule="nonzero"/><path fill="#000000" d="M 659.519531 799.59375 C 657.265625 799.59375 655.207031 798.71875 653.882812 797.195312 C 652.691406 795.832031 652.179688 794.046875 652.441406 792.167969 C 653.703125 783.054688 658.632812 778.324219 663.847656 773.316406 C 667.6875 769.632812 668.730469 756.253906 669.230469 749.824219 C 669.421875 747.378906 669.519531 746.179688 669.6875 745.574219 C 670.476562 742.699219 674.003906 740.125 677.726562 739.71875 C 681.164062 739.335938 684.074219 740.894531 685.714844 743.988281 C 686.066406 744.660156 685.808594 745.488281 685.136719 745.847656 C 684.464844 746.203125 683.636719 745.945312 683.28125 745.273438 C 681.875 742.617188 679.644531 742.273438 678.027344 742.453125 C 675.210938 742.761719 672.773438 744.730469 672.34375 746.300781 C 672.238281 746.679688 672.105469 748.382812 671.976562 750.03125 C 671.410156 757.324219 670.351562 770.894531 665.753906 775.304688 C 660.675781 780.171875 656.300781 784.375 655.167969 792.546875 C 655.015625 793.636719 655.285156 794.621094 655.957031 795.390625 C 656.761719 796.3125 658.0625 796.839844 659.519531 796.839844 C 660.363281 796.839844 661.199219 796.789062 662.011719 796.683594 C 662.765625 796.589844 663.457031 797.117188 663.554688 797.871094 C 663.652344 798.628906 663.117188 799.316406 662.363281 799.410156 C 661.4375 799.53125 660.484375 799.59375 659.519531 799.59375 " fill-opacity="1" fill-rule="nonzero"/><path fill="#ffffff" d="M 643.242188 509.011719 C 643.242188 509.011719 653.242188 506.414062 655.820312 508.652344 C 656.488281 509.230469 654.320312 522.25 655.035156 522.910156 C 658.449219 526.027344 663.765625 530.0625 664.894531 532.984375 C 666.648438 537.507812 664.558594 550.605469 663.484375 556.480469 C 662.933594 559.511719 658.714844 560.027344 657.554688 557.171875 C 657.234375 556.390625 657.074219 555.359375 657.164062 554.003906 C 657.484375 549.25 657.035156 545.824219 656.714844 544.121094 C 656.574219 543.371094 656.164062 542.707031 655.546875 542.25 C 652.679688 540.121094 643.847656 533.226562 642.546875 528.089844 C 642.382812 527.433594 642.773438 525.855469 643.152344 524.609375 C 643.519531 523.394531 643.6875 522.136719 643.644531 520.871094 L 643.242188 509.011719 " fill-opacity="1" fill-rule="nonzero"/><path fill="#000000" d="M 654.558594 509.121094 Z M 644.660156 510.078125 L 645.015625 520.824219 C 645.070312 522.238281 644.882812 523.644531 644.46875 525.007812 C 643.820312 527.175781 643.886719 527.757812 643.894531 527.78125 C 644.832031 531.496094 650.953125 537.128906 656.367188 541.144531 C 657.257812 541.808594 657.863281 542.777344 658.070312 543.867188 C 658.386719 545.5625 658.875 549.148438 658.539062 554.089844 C 658.46875 555.144531 658.566406 556.007812 658.832031 556.652344 C 659.261719 557.714844 660.261719 557.699219 660.558594 557.667969 C 661.207031 557.601562 661.960938 557.1875 662.128906 556.230469 C 664.195312 544.917969 664.75 536.414062 663.617188 533.476562 C 662.871094 531.546875 659.457031 528.589844 656.710938 526.214844 C 655.792969 525.417969 654.902344 524.648438 654.113281 523.921875 C 653.332031 523.207031 653.328125 522.253906 654.066406 515.417969 C 654.292969 513.332031 654.59375 510.574219 654.578125 509.476562 C 653.003906 508.753906 648.574219 509.175781 644.660156 510.078125 Z M 660.34375 560.433594 C 658.535156 560.433594 656.976562 559.394531 656.28125 557.691406 C 655.859375 556.652344 655.695312 555.378906 655.792969 553.910156 C 656.105469 549.265625 655.65625 545.945312 655.363281 544.375 C 655.289062 543.964844 655.0625 543.605469 654.730469 543.355469 C 651.121094 540.679688 642.59375 533.867188 641.214844 528.425781 C 641.082031 527.886719 641.027344 526.910156 641.835938 524.210938 C 642.164062 523.136719 642.304688 522.027344 642.269531 520.914062 L 641.871094 509.0625 C 641.847656 508.414062 642.277344 507.839844 642.902344 507.679688 C 644.6875 507.214844 653.75 505.027344 656.722656 507.609375 C 657.519531 508.292969 657.523438 509.050781 656.804688 515.710938 C 656.570312 517.894531 656.21875 521.097656 656.265625 522.164062 C 656.964844 522.792969 657.726562 523.457031 658.515625 524.136719 C 661.792969 526.976562 665.1875 529.914062 666.183594 532.484375 C 668.007812 537.195312 666.128906 549.695312 664.835938 556.726562 C 664.476562 558.71875 662.871094 560.195312 660.839844 560.40625 C 660.671875 560.421875 660.503906 560.433594 660.34375 560.433594 " fill-opacity="1" fill-rule="nonzero"/><path fill="#ffffff" d="M 440.484375 351.789062 L 435.757812 347.253906 C 432.246094 344.285156 430.9375 337.800781 430.9375 337.800781 C 430.320312 335.34375 428.898438 333.167969 426.898438 331.613281 L 407.101562 316.210938 C 405.808594 315.207031 403.878906 315.921875 403.601562 317.539062 C 403.328125 319.144531 403.710938 321.25 406.171875 323.453125 L 411.429688 327.800781 C 412.363281 328.574219 412.597656 329.898438 411.992188 330.949219 C 410.878906 332.871094 409.511719 336.210938 410.507812 339.917969 C 412.71875 348.167969 422.558594 350.996094 425.011719 351.582031 C 425.367188 351.664062 431.789062 361.324219 431.789062 361.324219 L 440.484375 351.789062 " fill-opacity="1" fill-rule="nonzero"/><path fill="#000000" d="M 405.757812 317.125 C 405.621094 317.125 405.511719 317.15625 405.449219 317.179688 C 405.292969 317.246094 405.023438 317.398438 404.957031 317.769531 C 404.691406 319.351562 405.40625 320.917969 407.089844 322.425781 L 412.304688 326.738281 C 413.761719 327.941406 414.125 330 413.183594 331.636719 C 412.097656 333.507812 410.988281 336.402344 411.835938 339.5625 C 413.875 347.15625 423.433594 349.789062 425.328125 350.242188 C 425.941406 350.386719 426.1875 350.445312 431.960938 359.09375 L 438.566406 351.855469 L 434.808594 348.242188 C 431.035156 345.0625 429.644531 338.355469 429.589844 338.074219 C 429.0625 335.988281 427.800781 334.054688 426.050781 332.699219 L 406.253906 317.296875 C 406.082031 317.164062 405.90625 317.125 405.757812 317.125 Z M 431.789062 362.699219 C 431.757812 362.699219 431.71875 362.699219 431.6875 362.695312 C 431.265625 362.664062 430.882812 362.4375 430.644531 362.085938 C 428.054688 358.191406 425.128906 353.90625 424.28125 352.816406 C 420.835938 351.9375 411.460938 348.789062 409.175781 340.273438 C 408.085938 336.207031 409.457031 332.582031 410.800781 330.261719 C 411.070312 329.789062 410.964844 329.203125 410.550781 328.859375 L 405.296875 324.515625 C 402.21875 321.753906 401.945312 319.074219 402.246094 317.300781 C 402.457031 316.074219 403.285156 315.070312 404.453125 314.617188 C 405.636719 314.160156 406.945312 314.351562 407.945312 315.125 L 427.742188 330.527344 C 429.976562 332.257812 431.578125 334.722656 432.273438 337.460938 C 432.296875 337.585938 433.546875 343.582031 436.648438 346.199219 L 441.441406 350.796875 C 441.980469 351.316406 442.007812 352.167969 441.507812 352.71875 L 432.8125 362.25 C 432.546875 362.539062 432.175781 362.699219 431.789062 362.699219 " fill-opacity="1" fill-rule="nonzero"/><path fill="#000000" d="M 426.441406 355.933594 L 437.351562 345.003906 C 438.390625 344.417969 439.636719 344.695312 440.5 345.527344 C 465.304688 369.46875 484.226562 366.878906 504.082031 361.894531 C 504.082031 361.894531 524.46875 357.128906 530.125 356.601562 C 534.386719 356.199219 545.710938 353.324219 572.242188 356.296875 C 582.554688 357.449219 592.546875 360.601562 601.667969 365.542969 L 603.035156 366.285156 C 603.035156 366.285156 678.066406 413.34375 659.722656 514.929688 C 659.523438 516.058594 658.53125 516.964844 657.382812 516.964844 L 642.308594 516.964844 C 641.0625 516.964844 640.019531 515.914062 639.941406 514.660156 C 639.261719 504.132812 635.171875 458.65625 614.046875 433.445312 C 611.714844 430.660156 607.222656 431.472656 606.136719 434.9375 C 604.460938 440.308594 604.027344 451.722656 608.460938 475.777344 C 608.59375 476.511719 614.175781 504.894531 614.175781 504.894531 C 614.175781 504.894531 555.453125 514.964844 534.988281 511.285156 C 518.808594 508.382812 513.929688 504.398438 512.59375 502.859375 C 512.289062 502.507812 512.152344 502.042969 512.207031 501.582031 L 514.578125 480.894531 C 515.429688 473.398438 517.503906 459.382812 515.042969 441.523438 C 511.664062 416.964844 496.9375 417.4375 496.9375 417.4375 C 478.242188 416.234375 444.648438 420.164062 425.234375 358.871094 C 424.875 357.746094 425.40625 356.511719 426.441406 355.933594 " fill-opacity="1" fill-rule="nonzero"/><path fill="#ffffff" d="M 525.464844 304.175781 C 525.464844 304.175781 521.890625 309.664062 521.71875 314.167969 C 521.675781 315.359375 521.222656 319.167969 518.339844 323.367188 C 518.058594 323.773438 518.128906 324.316406 518.507812 324.644531 L 521.335938 327.109375 C 521.53125 327.28125 521.636719 327.523438 521.644531 327.773438 C 521.675781 329.363281 521.785156 335.238281 521.992188 336.328125 C 522.226562 337.589844 523.257812 338.703125 523.765625 338.96875 C 525.113281 339.679688 530.898438 338.875 530.898438 338.875 C 530.898438 338.875 532.453125 339.003906 535.59375 347.21875 C 538.988281 356.089844 532.195312 359.53125 532.195312 359.53125 C 529.652344 360.894531 530.058594 363.4375 532.839844 364.289062 C 542.4375 367.226562 561.070312 370.410156 571.890625 362.234375 C 573.921875 360.699219 573.066406 359.070312 571.320312 358.679688 C 545.5 352.960938 557.476562 325.882812 556.9375 325.746094 C 555.558594 325.398438 547.589844 317.1875 542.949219 314.875 C 539.78125 313.300781 535.992188 315.671875 533.402344 313.265625 L 525.464844 304.175781 " fill-opacity="1" fill-rule="nonzero"/><path fill="#000000" d="M 557.273438 324.414062 C 557.285156 324.417969 557.304688 324.421875 557.320312 324.429688 C 557.304688 324.421875 557.285156 324.417969 557.273438 324.414062 Z M 520.421875 328.152344 L 520.433594 328.152344 Z M 530.898438 337.503906 C 530.933594 337.503906 530.972656 337.503906 531.011719 337.507812 C 531.609375 337.558594 533.429688 337.707031 536.875 346.730469 C 540.664062 356.640625 532.894531 360.722656 532.816406 360.757812 C 532.210938 361.085938 531.839844 361.523438 531.875 361.886719 C 531.90625 362.226562 532.34375 362.703125 533.238281 362.976562 C 537.445312 364.265625 559.027344 370.226562 571.0625 361.140625 C 571.59375 360.738281 571.695312 360.449219 571.691406 360.398438 C 571.675781 360.339844 571.480469 360.132812 571.023438 360.027344 C 563.964844 358.464844 558.925781 355.195312 556.050781 350.316406 C 550.898438 341.589844 554.222656 330.3125 555.320312 326.605469 C 555.335938 326.550781 555.351562 326.488281 555.375 326.425781 C 554.597656 325.867188 553.492188 324.910156 551.675781 323.320312 C 548.820312 320.820312 544.902344 317.390625 542.335938 316.109375 C 541.226562 315.554688 539.90625 315.640625 538.507812 315.730469 C 536.542969 315.851562 534.3125 315.992188 532.460938 314.273438 C 532.429688 314.242188 532.394531 314.207031 532.363281 314.175781 L 525.6875 306.523438 C 524.675781 308.382812 523.199219 311.546875 523.09375 314.226562 C 523.050781 315.355469 522.675781 319.332031 519.679688 323.847656 L 522.234375 326.074219 C 522.726562 326.503906 523.011719 327.113281 523.019531 327.753906 C 523.097656 332.179688 523.222656 335.445312 523.34375 336.074219 C 523.492188 336.890625 524.210938 337.636719 524.417969 337.761719 C 525 338.007812 527.949219 337.898438 530.707031 337.515625 C 530.769531 337.507812 530.835938 337.503906 530.898438 337.503906 Z M 553.054688 368.8125 C 543.660156 368.8125 534.992188 366.394531 532.433594 365.613281 C 530.523438 365.027344 529.292969 363.730469 529.136719 362.160156 C 528.988281 360.640625 529.890625 359.207031 531.542969 358.324219 C 531.796875 358.191406 537.191406 355.261719 534.304688 347.710938 C 532.292969 342.445312 531.027344 340.785156 530.570312 340.308594 C 528.484375 340.574219 524.5625 340.945312 523.125 340.191406 C 522.3125 339.761719 520.960938 338.320312 520.632812 336.582031 C 520.433594 335.507812 520.320312 330.851562 520.269531 328.019531 L 517.597656 325.683594 C 516.699219 324.902344 516.53125 323.574219 517.199219 322.589844 C 520.042969 318.460938 520.316406 314.808594 520.34375 314.121094 C 520.527344 309.289062 524.15625 303.664062 524.3125 303.429688 C 524.546875 303.066406 524.9375 302.832031 525.367188 302.804688 C 525.796875 302.773438 526.21875 302.945312 526.503906 303.273438 L 534.386719 312.300781 C 535.308594 313.128906 536.496094 313.097656 538.335938 312.984375 C 539.957031 312.882812 541.789062 312.765625 543.554688 313.648438 C 546.449219 315.082031 550.351562 318.503906 553.488281 321.25 C 554.976562 322.554688 556.820312 324.175781 557.34375 324.4375 C 557.675781 324.539062 557.96875 324.777344 558.136719 325.074219 C 558.46875 325.652344 558.347656 326.054688 557.957031 327.386719 C 556.949219 330.808594 553.878906 341.21875 558.414062 348.914062 C 560.898438 353.117188 565.335938 355.953125 571.617188 357.34375 C 573.058594 357.667969 574.121094 358.609375 574.382812 359.8125 C 574.539062 360.539062 574.535156 361.96875 572.714844 363.332031 C 567.1875 367.515625 559.925781 368.8125 553.054688 368.8125 " fill-opacity="1" fill-rule="nonzero"/><path fill="#000000" d="M 518.574219 324.082031 C 518.542969 324.082031 518.519531 324.082031 518.492188 324.078125 C 517.121094 323.996094 515.972656 323.398438 515.160156 322.351562 C 512.945312 319.503906 513.902344 314.105469 514.015625 313.5 C 514.152344 312.777344 514.847656 312.292969 515.566406 312.394531 L 535.835938 315.347656 C 536.589844 315.457031 537.109375 316.15625 537 316.90625 C 536.890625 317.660156 536.1875 318.183594 535.441406 318.074219 L 516.550781 315.320312 C 516.398438 316.992188 516.40625 319.476562 517.335938 320.667969 C 517.664062 321.09375 518.070312 321.296875 518.65625 321.332031 C 519.414062 321.378906 519.992188 322.027344 519.945312 322.789062 C 519.898438 323.519531 519.292969 324.082031 518.574219 324.082031 " fill-opacity="1" fill-rule="nonzero"/><path fill="#000000" d="M 535.753906 326.289062 C 535.082031 326.289062 534.476562 326.195312 534 326.058594 C 533.269531 325.851562 532.847656 325.089844 533.054688 324.359375 C 533.265625 323.628906 534.019531 323.210938 534.75 323.414062 C 535.117188 323.507812 538.339844 324.25 539.832031 320.457031 C 540.378906 319.066406 540.292969 317.960938 539.59375 317.433594 C 538.929688 316.933594 537.648438 316.898438 536.476562 317.800781 C 536.277344 317.953125 535.753906 318.660156 535.371094 319.289062 C 534.976562 319.941406 534.136719 320.148438 533.484375 319.753906 C 532.832031 319.359375 532.625 318.511719 533.015625 317.863281 C 533.25 317.480469 534.0625 316.1875 534.796875 315.617188 C 536.828125 314.058594 539.480469 313.902344 541.246094 315.238281 C 542.988281 316.542969 543.414062 318.875 542.390625 321.464844 C 540.890625 325.28125 537.957031 326.289062 535.753906 326.289062 " fill-opacity="1" fill-rule="nonzero"/><path fill="#000000" d="M 517.851562 290.769531 C 519.675781 287.628906 521.644531 284.929688 527.746094 283.65625 C 531.921875 282.785156 538.78125 285.800781 542.175781 289.324219 C 542.460938 289.621094 542.90625 289.625 543.136719 289.328125 C 543.851562 288.410156 545.539062 286.332031 547.058594 286.132812 C 551.441406 285.558594 556.007812 291.203125 557.640625 294.113281 C 558.835938 296.242188 560.859375 301.050781 561.917969 306.664062 C 561.980469 307.011719 562.304688 307.265625 562.652344 307.230469 C 563.972656 307.089844 566.628906 307.070312 569.003906 308.785156 C 573.242188 311.847656 572.835938 316.40625 572.792969 316.964844 C 572.296875 323.460938 565.753906 328.328125 560.78125 330.988281 C 557.40625 332.789062 556.136719 333.054688 554.144531 333.539062 C 554.03125 333.570312 553.910156 333.558594 553.792969 333.523438 C 552.03125 333.800781 549.035156 333.972656 545.675781 332.847656 C 540.34375 331.0625 540.644531 322.25 540.644531 322.25 L 541.296875 320.578125 C 541.691406 319.570312 541.734375 318.433594 541.3125 317.429688 C 540.027344 314.382812 535.425781 316.734375 535.253906 316.699219 C 526.53125 314.992188 523.429688 312.480469 521.828125 310.765625 C 516.09375 304.609375 513.4375 298.371094 517.851562 290.769531 " fill-opacity="1" fill-rule="nonzero"/></svg>